999
dxfrw 0.6.3
  0
SECTION
  2
HEADER
  9
$ACADVER
  1
AC1021
  9
$DWGCODEPAGE
  3
ANSI_1252
  9
$INSBASE
 10
0
 20
0
 30
0
  9
$EXTMIN
 10
190
 20
-311.25
 30
0
  9
$EXTMAX
 10
841.25
 20
366.9000000000001
 30
0
  9
$LIMMIN
 10
0
 20
0
  9
$LIMMAX
 10
420
 20
297
  9
$ORTHOMODE
 70
    0
  9
$REGENMODE
 70
    1
  9
$FILLMODE
 70
    1
  9
$QTEXTMODE
 70
    0
  9
$MIRRTEXT
 70
    0
  9
$LTSCALE
 40
1
  9
$ATTMODE
 70
    0
  9
$TEXTSIZE
 40
2.5
  9
$TRACEWID
 40
15.68
  9
$TEXTSTYLE
  7
STANDARD
  9
$CLAYER
  8
3 net
  9
$CELTYPE
  6
BYLAYER
  9
$CECOLOR
 62
  256
  9
$CELTSCALE
 40
1
  9
$DISPSILH
 70
    0
  9
$DIMSCALE
 40
1
  9
$DIMASZ
 40
2.5
  9
$DIMEXO
 40
0.625
  9
$DIMDLI
 40
3.75
  9
$DIMRND
 40
0
  9
$DIMDLE
 40
0
  9
$DIMEXE
 40
1.25
  9
$DIMTP
 40
0
  9
$DIMTM
 40
0
  9
$DIMTXT
 40
7
  9
$DIMCEN
 40
2.5
  9
$DIMTSZ
 40
0
  9
$DIMTOL
 70
    0
  9
$DIMLIM
 70
    0
  9
$DIMTIH
 70
    0
  9
$DIMTOH
 70
    0
  9
$DIMSE1
 70
    0
  9
$DIMSE2
 70
    0
  9
$DIMTAD
 70
    1
  9
$DIMZIN
 70
    1
  9
$DIMBLK
  1

  9
$DIMASO
 70
    1
  9
$DIMSHO
 70
    1
  9
$DIMPOST
  1

  9
$DIMAPOST
  1

  9
$DIMALT
 70
    0
  9
$DIMALTD
 70
    3
  9
$DIMALTF
 40
0.03937
  9
$DIMLFAC
 40
1
  9
$DIMTOFL
 70
    1
  9
$DIMTVP
 40
0
  9
$DIMTIX
 70
    0
  9
$DIMSOXD
 70
    0
  9
$DIMSAH
 70
    0
  9
$DIMBLK1
  1

  9
$DIMBLK2
  1

  9
$DIMSTYLE
  2
STANDARD
  9
$DIMCLRD
 70
    0
  9
$DIMCLRE
 70
    0
  9
$DIMCLRT
 70
    0
  9
$DIMTFAC
 40
1
  9
$DIMGAP
 40
0.625
  9
$DIMJUST
 70
    0
  9
$DIMSD1
 70
    0
  9
$DIMSD2
 70
    0
  9
$DIMTOLJ
 70
    0
  9
$DIMTZIN
 70
    8
  9
$DIMALTZ
 70
    0
  9
$DIMALTTZ
 70
    0
  9
$DIMUPT
 70
    0
  9
$DIMDEC
 70
    1
  9
$DIMTDEC
 70
    2
  9
$DIMALTU
 70
    2
  9
$DIMALTTD
 70
    3
  9
$DIMTXSTY
  7
standard
  9
$DIMAUNIT
 70
    0
  9
$DIMADEC
 70
    2
  9
$DIMALTRND
 40
0
  9
$DIMAZIN
 70
    0
  9
$DIMDSEP
 70
    0
  9
$DIMATFIT
 70
    3
  9
$DIMFRAC
 70
    0
  9
$DIMLDRBLK
  1
STANDARD
  9
$DIMLUNIT
 70
    2
  9
$DIMLWD
 70
   -2
  9
$DIMLWE
 70
   -2
  9
$DIMTMOVE
 70
    0
  9
$DIMFXL
 40
1
  9
$DIMFXLON
 70
    0
  9
$DIMJOGANG
 40
0.7854
  9
$DIMTFILL
 70
    0
  9
$DIMTFILLCLR
 70
    0
  9
$DIMARCSYM
 70
    0
  9
$DIMLTYPE
  6

  9
$DIMLTEX1
  6

  9
$DIMLTEX2
  6

  9
$LUNITS
 70
    2
  9
$LUPREC
 70
    4
  9
$SKETCHINC
 40
1
  9
$FILLETRAD
 40
0
  9
$AUNITS
 70
    0
  9
$AUPREC
 70
    2
  9
$MENU
  1
.
  9
$ELEVATION
 40
0
  9
$PELEVATION
 40
0
  9
$THICKNESS
 40
0
  9
$LIMCHECK
 70
    0
  9
$CHAMFERA
 40
0
  9
$CHAMFERB
 40
0
  9
$CHAMFERC
 40
0
  9
$CHAMFERD
 40
0
  9
$SKPOLY
 70
    0
  9
$USRTIMER
 70
    1
  9
$ANGBASE
 50
0
  9
$ANGDIR
 70
    0
  9
$PDMODE
 70
   96
  9
$PDSIZE
 40
-2
  9
$PLINEWID
 40
0
  9
$SPLFRAME
 70
    0
  9
$SPLINETYPE
 70
    2
  9
$SPLINESEGS
 70
    8
  9
$HANDSEED
  5
20000
  9
$SURFTAB1
 70
    6
  9
$SURFTAB2
 70
    6
  9
$SURFTYPE
 70
    6
  9
$SURFU
 70
    6
  9
$SURFV
 70
    6
  9
$UCSBASE
  2

  9
$UCSNAME
  2

  9
$UCSORG
 10
0
 20
0
 30
0
  9
$UCSXDIR
 10
1
 20
0
 30
0
  9
$UCSYDIR
 10
0
 20
1
 30
0
  9
$UCSORTHOREF
  2

  9
$UCSORTHOVIEW
 70
    0
  9
$UCSORGTOP
 10
0
 20
0
 30
0
  9
$UCSORGBOTTOM
 10
0
 20
0
 30
0
  9
$UCSORGLEFT
 10
0
 20
0
 30
0
  9
$UCSORGRIGHT
 10
0
 20
0
 30
0
  9
$UCSORGFRONT
 10
0
 20
0
 30
0
  9
$UCSORGBACK
 10
0
 20
0
 30
0
  9
$PUCSBASE
  2

  9
$PUCSNAME
  2

  9
$PUCSORG
 10
0
 20
0
 30
0
  9
$PUCSXDIR
 10
1
 20
0
 30
0
  9
$PUCSYDIR
 10
0
 20
1
 30
0
  9
$PUCSORTHOREF
  2

  9
$PUCSORTHOVIEW
 70
    0
  9
$PUCSORGTOP
 10
0
 20
0
 30
0
  9
$PUCSORGBOTTOM
 10
0
 20
0
 30
0
  9
$PUCSORGLEFT
 10
0
 20
0
 30
0
  9
$PUCSORGRIGHT
 10
0
 20
0
 30
0
  9
$PUCSORGFRONT
 10
0
 20
0
 30
0
  9
$PUCSORGBACK
 10
0
 20
0
 30
0
  9
$USERI1
 70
    0
  9
$USERI2
 70
    0
  9
$USERI3
 70
    0
  9
$USERI4
 70
    0
  9
$USERI5
 70
    0
  9
$USERR1
 40
0
  9
$USERR2
 40
0
  9
$USERR3
 40
0
  9
$USERR4
 40
0
  9
$USERR5
 40
0
  9
$WORLDVIEW
 70
    1
  9
$SHADEDGE
 70
    3
  9
$SHADEDIF
 70
   70
  9
$TILEMODE
 70
    1
  9
$MAXACTVP
 70
   64
  9
$PINSBASE
 10
-42.32142857142856
 20
140.55
 30
0
  9
$PLIMCHECK
 70
    0
  9
$PEXTMIN
 10
0
 20
0
 30
0
  9
$PEXTMAX
 10
0
 20
0
 30
0
  9
$GRIDMODE
 70
    1
  9
$SNAPSTYLE
 70
    0
  9
$GRIDUNIT
 10
0
 20
0
  9
$PLIMMIN
 10
0
 20
0
  9
$PLIMMAX
 10
212.02
 20
298.1
  9
$UNITMODE
 70
    0
  9
$VISRETAIN
 70
    1
  9
$PLINEGEN
 70
    0
  9
$PSLTSCALE
 70
    1
  9
$TREEDEPTH
 70
 3020
  9
$CMLSTYLE
  2
Standard
  9
$CMLJUST
 70
    0
  9
$CMLSCALE
 40
20
  9
$PROXYGRAPHICS
 70
    1
  9
$MEASUREMENT
 70
    1
  9
$CELWEIGHT
370
   -1
  9
$ENDCAPS
280
    0
  9
$JOINSTYLE
280
    0
  9
$LWDISPLAY
290
    0
  9
$INSUNITS
 70
    4
  9
$HYPERLINKBASE
  1

  9
$STYLESHEET
  1

  9
$XEDIT
290
    1
  9
$CEPSNTYPE
380
    0
  9
$PSTYLEMODE
290
    1
  9
$EXTNAMES
290
    1
  9
$PSVPSCALE
 40
0.2857142857142857
  9
$OLESTARTUP
290
    0
  9
$SORTENTS
280
  127
  9
$INDEXCTL
280
    0
  9
$HIDETEXT
280
    1
  9
$XCLIPFRAME
290
    0
  9
$HALOGAP
280
    0
  9
$OBSCOLOR
 70
  257
  9
$OBSLTYPE
280
    0
  9
$INTERSECTIONDISPLAY
280
    0
  9
$INTERSECTIONCOLOR
 70
  257
  9
$DIMASSOC
280
    1
  9
$PROJECTNAME
  1

  9
$CAMERADISPLAY
290
    0
  9
$LENSLENGTH
 40
50
  9
$CAMERAHEIGHT
 40
0
  9
$STEPSPERSEC
 40
2
  9
$STEPSIZE
 40
50
  9
$3DDWFPREC
 40
2
  9
$PSOLWIDTH
 40
5
  9
$PSOLHEIGHT
 40
80
  9
$LOFTANG1
 40
1.570796326794897
  9
$LOFTANG2
 40
1.570796326794897
  9
$LOFTMAG1
 40
0
  9
$LOFTMAG2
 40
0
  9
$LOFTPARAM
 70
    7
  9
$LOFTNORMALS
280
    1
  9
$LATITUDE
 40
1
  9
$LONGITUDE
 40
1
  9
$NORTHDIRECTION
 40
0
  9
$TIMEZONE
 70
-8000
  9
$LIGHTGLYPHDISPLAY
280
    1
  9
$TILEMODELIGHTSYNCH
280
    1
  9
$SOLIDHIST
280
    1
  9
$SHOWHIST
280
    1
  9
$DWFFRAME
280
    2
  9
$DGNFRAME
280
    0
  9
$REALWORLDSCALE
290
    1
  9
$INTERFERECOLOR
 62
    1
  9
$CSHADOW
280
    0
  9
$SHADOWPLANELOCATION
 40
0
  0
ENDSEC
  0
SECTION
  2
CLASSES
  0
ENDSEC
  0
SECTION
  2
TABLES
  0
TABLE
  2
VPORT
  5
8
330
0
100
AcDbSymbolTable
 70
    1
  0
VPORT
  5
31
330
2
100
AcDbSymbolTableRecord
100
AcDbViewportTableRecord
  2
*ACTIVE
 70
    0
 10
0
 20
0
 11
1
 21
1
 12
425.7524139901968
 22
195.0283542744727
 13
0
 23
0
 14
10
 24
10
 15
10
 25
10
 16
0
 26
0
 36
1
 17
0
 27
0
 37
0
 40
603.5819283702484
 41
1.604301075268817
 42
50
 43
0
 44
0
 50
0
 51
0
 71
    0
 72
  100
 73
    1
 74
    3
 75
    0
 76
    1
 77
    0
 78
    0
281
    0
 65
    1
110
0
120
0
130
0
111
1
121
0
131
0
112
0
122
1
132
0
 79
    0
146
0
348
10020
 60
    7
 61
    5
292
1
282
    1
141
0
142
0
 63
  250
421
3358443
  0
ENDTAB
  0
TABLE
  2
LTYPE
  5
5
330
0
100
AcDbSymbolTable
 70
    4
  0
LTYPE
  5
14
330
5
100
AcDbSymbolTableRecord
100
AcDbLinetypeTableRecord
  2
ByBlock
 70
    0
  3

 72
   65
 73
    0
 40
0
  0
LTYPE
  5
15
330
5
100
AcDbSymbolTableRecord
100
AcDbLinetypeTableRecord
  2
ByLayer
 70
    0
  3

 72
   65
 73
    0
 40
0
  0
LTYPE
  5
16
330
5
100
AcDbSymbolTableRecord
100
AcDbLinetypeTableRecord
  2
Continuous
 70
    0
  3
Solid line
 72
   65
 73
    0
 40
0
  0
LTYPE
  5
32
330
5
100
AcDbSymbolTableRecord
100
AcDbLinetypeTableRecord
  2
DOT
 70
    0
  3
Dot . . . . . . . . . . . . . . . . . . . . . .
 72
   65
 73
    2
 40
6.35
 49
0
 74
    0
 49
-6.35
 74
    0
  0
LTYPE
  5
33
330
5
100
AcDbSymbolTableRecord
100
AcDbLinetypeTableRecord
  2
DOTTINY
 70
    0
  3
Dot (.15x) .....................................
 72
   65
 73
    2
 40
0.9525
 49
0
 74
    0
 49
-0.9525
 74
    0
  0
LTYPE
  5
34
330
5
100
AcDbSymbolTableRecord
100
AcDbLinetypeTableRecord
  2
DOT2
 70
    0
  3
Dot (.5x) .....................................
 72
   65
 73
    2
 40
3.175
 49
0
 74
    0
 49
-3.175
 74
    0
  0
LTYPE
  5
35
330
5
100
AcDbSymbolTableRecord
100
AcDbLinetypeTableRecord
  2
DOTX2
 70
    0
  3
Dot (2x) .  .  .  .  .  .  .  .  .  .  .  .  .
 72
   65
 73
    2
 40
12.7
 49
0
 74
    0
 49
-12.7
 74
    0
  0
LTYPE
  5
36
330
5
100
AcDbSymbolTableRecord
100
AcDbLinetypeTableRecord
  2
DASHED
 70
    0
  3
Dashed _ _ _ _ _ _ _ _ _ _ _ _ _ _ _ _ _
 72
   65
 73
    2
 40
19.05
 49
12.7
 74
    0
 49
-6.35
 74
    0
  0
LTYPE
  5
37
330
5
100
AcDbSymbolTableRecord
100
AcDbLinetypeTableRecord
  2
DASHEDTINY
 70
    0
  3
Dashed (.15x) _ _ _ _ _ _ _ _ _ _ _ _ _ _ _ _ _
 72
   65
 73
    2
 40
2.8575
 49
1.905
 74
    0
 49
-0.9525
 74
    0
  0
LTYPE
  5
38
330
5
100
AcDbSymbolTableRecord
100
AcDbLinetypeTableRecord
  2
DASHED2
 70
    0
  3
Dashed (.5x) _ _ _ _ _ _ _ _ _ _ _ _ _ _ _ _ _
 72
   65
 73
    2
 40
9.524999999999999
 49
6.35
 74
    0
 49
-3.175
 74
    0
  0
LTYPE
  5
39
330
5
100
AcDbSymbolTableRecord
100
AcDbLinetypeTableRecord
  2
DASHEDX2
 70
    0
  3
Dashed (2x) ____  ____  ____  ____  ____  ___
 72
   65
 73
    2
 40
38.09999999999999
 49
25.4
 74
    0
 49
-12.7
 74
    0
  0
LTYPE
  5
3A
330
5
100
AcDbSymbolTableRecord
100
AcDbLinetypeTableRecord
  2
DASHDOT
 70
    0
  3
Dash dot __ . __ . __ . __ . __ . __ . __ . __
 72
   65
 73
    4
 40
25.4
 49
12.7
 74
    0
 49
-6.35
 74
    0
 49
0
 74
    0
 49
-6.35
 74
    0
  0
LTYPE
  5
3B
330
5
100
AcDbSymbolTableRecord
100
AcDbLinetypeTableRecord
  2
DASHDOTTINY
 70
    0
  3
Dash dot (.15x) _._._._._._._._._._._._._._._.
 72
   65
 73
    4
 40
3.81
 49
1.905
 74
    0
 49
-0.9525
 74
    0
 49
0
 74
    0
 49
-0.9525
 74
    0
  0
LTYPE
  5
3C
330
5
100
AcDbSymbolTableRecord
100
AcDbLinetypeTableRecord
  2
DASHDOT2
 70
    0
  3
Dash dot (.5x) _._._._._._._._._._._._._._._.
 72
   65
 73
    4
 40
12.7
 49
6.35
 74
    0
 49
-3.175
 74
    0
 49
0
 74
    0
 49
-3.175
 74
    0
  0
LTYPE
  5
3D
330
5
100
AcDbSymbolTableRecord
100
AcDbLinetypeTableRecord
  2
DASHDOTX2
 70
    0
  3
Dash dot (2x) ____  .  ____  .  ____  .  ___
 72
   65
 73
    4
 40
50.8
 49
25.4
 74
    0
 49
-12.7
 74
    0
 49
0
 74
    0
 49
-12.7
 74
    0
  0
LTYPE
  5
3E
330
5
100
AcDbSymbolTableRecord
100
AcDbLinetypeTableRecord
  2
DIVIDE
 70
    0
  3
Divide ____ . . ____ . . ____ . . ____ . . ____
 72
   65
 73
    6
 40
31.75
 49
12.7
 74
    0
 49
-6.35
 74
    0
 49
0
 74
    0
 49
-6.35
 74
    0
 49
0
 74
    0
 49
-6.35
 74
    0
  0
LTYPE
  5
3F
330
5
100
AcDbSymbolTableRecord
100
AcDbLinetypeTableRecord
  2
DIVIDETINY
 70
    0
  3
Divide (.15x) __..__..__..__..__..__..__..__.._
 72
   65
 73
    6
 40
4.7625
 49
1.905
 74
    0
 49
-0.9525
 74
    0
 49
0
 74
    0
 49
-0.9525
 74
    0
 49
0
 74
    0
 49
-0.9525
 74
    0
  0
LTYPE
  5
40
330
5
100
AcDbSymbolTableRecord
100
AcDbLinetypeTableRecord
  2
DIVIDE2
 70
    0
  3
Divide (.5x) __..__..__..__..__..__..__..__.._
 72
   65
 73
    6
 40
15.875
 49
6.35
 74
    0
 49
-3.175
 74
    0
 49
0
 74
    0
 49
-3.175
 74
    0
 49
0
 74
    0
 49
-3.175
 74
    0
  0
LTYPE
  5
41
330
5
100
AcDbSymbolTableRecord
100
AcDbLinetypeTableRecord
  2
DIVIDEX2
 70
    0
  3
Divide (2x) ________  .  .  ________  .  .  _
 72
   65
 73
    6
 40
63.5
 49
25.4
 74
    0
 49
-12.7
 74
    0
 49
0
 74
    0
 49
-12.7
 74
    0
 49
0
 74
    0
 49
-12.7
 74
    0
  0
LTYPE
  5
42
330
5
100
AcDbSymbolTableRecord
100
AcDbLinetypeTableRecord
  2
BORDER
 70
    0
  3
Border __ __ . __ __ . __ __ . __ __ . __ __ .
 72
   65
 73
    6
 40
44.45
 49
12.7
 74
    0
 49
-6.35
 74
    0
 49
12.7
 74
    0
 49
-6.35
 74
    0
 49
0
 74
    0
 49
-6.35
 74
    0
  0
LTYPE
  5
43
330
5
100
AcDbSymbolTableRecord
100
AcDbLinetypeTableRecord
  2
BORDERTINY
 70
    0
  3
Border (.15x) __.__.__.__.__.__.__.__.__.__.__.
 72
   65
 73
    6
 40
6.6675
 49
1.905
 74
    0
 49
-0.9525
 74
    0
 49
1.905
 74
    0
 49
-0.9525
 74
    0
 49
0
 74
    0
 49
-0.9525
 74
    0
  0
LTYPE
  5
44
330
5
100
AcDbSymbolTableRecord
100
AcDbLinetypeTableRecord
  2
BORDER2
 70
    0
  3
Border (.5x) __.__.__.__.__.__.__.__.__.__.__.
 72
   65
 73
    6
 40
22.225
 49
6.35
 74
    0
 49
-3.175
 74
    0
 49
6.35
 74
    0
 49
-3.175
 74
    0
 49
0
 74
    0
 49
-3.175
 74
    0
  0
LTYPE
  5
45
330
5
100
AcDbSymbolTableRecord
100
AcDbLinetypeTableRecord
  2
BORDERX2
 70
    0
  3
Border (2x) ____  ____  .  ____  ____  .  ___
 72
   65
 73
    6
 40
88.89999999999999
 49
25.4
 74
    0
 49
-12.7
 74
    0
 49
25.4
 74
    0
 49
-12.7
 74
    0
 49
0
 74
    0
 49
-12.7
 74
    0
  0
LTYPE
  5
46
330
5
100
AcDbSymbolTableRecord
100
AcDbLinetypeTableRecord
  2
CENTER
 70
    0
  3
Center ____ _ ____ _ ____ _ ____ _ ____ _ ____
 72
   65
 73
    4
 40
50.8
 49
31.75
 74
    0
 49
-6.35
 74
    0
 49
6.35
 74
    0
 49
-6.35
 74
    0
  0
LTYPE
  5
47
330
5
100
AcDbSymbolTableRecord
100
AcDbLinetypeTableRecord
  2
CENTERTINY
 70
    0
  3
Center (.15x) ___ _ ___ _ ___ _ ___ _ ___ _ ___
 72
   65
 73
    4
 40
7.619999999999999
 49
4.7625
 74
    0
 49
-0.9525
 74
    0
 49
0.9525
 74
    0
 49
-0.9525
 74
    0
  0
LTYPE
  5
48
330
5
100
AcDbSymbolTableRecord
100
AcDbLinetypeTableRecord
  2
CENTER2
 70
    0
  3
Center (.5x) ___ _ ___ _ ___ _ ___ _ ___ _ ___
 72
   65
 73
    4
 40
28.575
 49
19.05
 74
    0
 49
-3.175
 74
    0
 49
3.175
 74
    0
 49
-3.175
 74
    0
  0
LTYPE
  5
49
330
5
100
AcDbSymbolTableRecord
100
AcDbLinetypeTableRecord
  2
CENTERX2
 70
    0
  3
Center (2x) ________  __  ________  __  _____
 72
   65
 73
    4
 40
101.6
 49
63.5
 74
    0
 49
-12.7
 74
    0
 49
12.7
 74
    0
 49
-12.7
 74
    0
  0
ENDTAB
  0
TABLE
  2
LAYER
  5
2
330
0
100
AcDbSymbolTable
 70
    1
  0
LAYER
  5
10
330
2
100
AcDbSymbolTableRecord
100
AcDbLayerTableRecord
  2
0
 70
    5
 62
    7
  6
CONTINUOUS
370
   25
390
F
  0
LAYER
  5
4A
330
2
100
AcDbSymbolTableRecord
100
AcDbLayerTableRecord
  2
1 drawing
 70
    5
 62
    7
  6
CONTINUOUS
370
   35
390
F
  0
LAYER
  5
4B
330
2
100
AcDbSymbolTableRecord
100
AcDbLayerTableRecord
  2
1 drawing-1 drawing+
 70
    5
 62
    6
  6
CONTINUOUS
370
    9
390
F
  0
LAYER
  5
4C
330
2
100
AcDbSymbolTableRecord
100
AcDbLayerTableRecord
  2
3 net
 70
    0
 62
    7
  6
CONTINUOUS
370
   25
390
F
  0
LAYER
  5
4D
330
2
100
AcDbSymbolTableRecord
100
AcDbLayerTableRecord
  2
3 net-3a.net.dim+
 70
    0
 62
    6
  6
CONTINUOUS
370
    9
390
F
  0
LAYER
  5
4E
330
2
100
AcDbSymbolTableRecord
100
AcDbLayerTableRecord
  2
4b.helper
 70
    1
 62
    7
  6
DOT2
370
   35
390
F
  0
LAYER
  5
4F
330
2
100
AcDbSymbolTableRecord
100
AcDbLayerTableRecord
  2
5.templates
 70
    1
 62
    7
  6
CONTINUOUS
370
   35
390
F
  0
ENDTAB
  0
TABLE
  2
STYLE
  5
3
330
0
100
AcDbSymbolTable
 70
    3
  0
STYLE
  5
50
330
2
100
AcDbSymbolTableRecord
100
AcDbTextStyleTableRecord
  2
standard
 70
    0
 40
0
 41
1
 50
0
 71
    0
 42
1
  3
standard
  4

  0
STYLE
  5
51
330
2
100
AcDbSymbolTableRecord
100
AcDbTextStyleTableRecord
  2
STANDARD
 70
    0
 40
0
 41
1
 50
0
 71
    0
 42
1
  3
STANDARD
  4

  0
ENDTAB
  0
TABLE
  2
VIEW
  5
6
330
0
100
AcDbSymbolTable
 70
    0
  0
ENDTAB
  0
TABLE
  2
UCS
  5
7
330
0
100
AcDbSymbolTable
 70
    0
  0
ENDTAB
  0
TABLE
  2
APPID
  5
9
330
0
100
AcDbSymbolTable
 70
    1
  0
APPID
  5
12
330
9
100
AcDbSymbolTableRecord
100
AcDbRegAppTableRecord
  2
ACAD
 70
    0
  0
APPID
  5
52
330
9
100
AcDbSymbolTableRecord
100
AcDbRegAppTableRecord
  2
LibreCad
 70
    0
  0
ENDTAB
  0
TABLE
  2
DIMSTYLE
  5
A
330
0
100
AcDbSymbolTable
 70
    1
100
AcDbDimStyleTable
 71
    1
  0
DIMSTYLE
105
53
330
A
100
AcDbSymbolTableRecord
100
AcDbDimStyleTableRecord
  2
Standard
 70
    0
 40
1
 41
2.5
 42
0.625
 43
0.38
 44
1.25
 45
0
 46
0
 47
0
 48
0
 49
1
140
7
141
0.09
142
0
143
25.4
144
1
145
0
146
1
147
0.625
148
0
 71
    0
 72
    0
 73
    0
 74
    1
 75
    0
 76
    0
 77
    0
 78
    1
 79
    0
170
    0
171
    2
172
    0
173
    0
174
    0
175
    0
176
    0
177
    0
178
    0
179
    2
271
    1
272
    4
273
    2
274
    2
275
    0
276
    0
277
    2
278
    0
279
    0
280
    0
281
    0
282
    0
283
    1
284
    0
285
    0
286
    0
288
    0
289
    3
340
51
  0
ENDTAB
  0
TABLE
  2
BLOCK_RECORD
  5
1
330
0
100
AcDbSymbolTable
 70
    2
  0
BLOCK_RECORD
  5
1F
330
1
100
AcDbSymbolTableRecord
100
AcDbBlockTableRecord
  2
*Model_Space
 70
    0
280
    1
281
    0
  0
BLOCK_RECORD
  5
1E
330
1
100
AcDbSymbolTableRecord
100
AcDbBlockTableRecord
  2
*Paper_Space
 70
    0
280
    1
281
    0
  0
BLOCK_RECORD
  5
54
330
1
100
AcDbSymbolTableRecord
100
AcDbBlockTableRecord
  2
*D27
 70
    0
280
    1
281
    0
  0
BLOCK_RECORD
  5
57
330
1
100
AcDbSymbolTableRecord
100
AcDbBlockTableRecord
  2
*D37
 70
    0
280
    1
281
    0
  0
BLOCK_RECORD
  5
5A
330
1
100
AcDbSymbolTableRecord
100
AcDbBlockTableRecord
  2
*D32
 70
    0
280
    1
281
    0
  0
BLOCK_RECORD
  5
5D
330
1
100
AcDbSymbolTableRecord
100
AcDbBlockTableRecord
  2
*D6
 70
    0
280
    1
281
    0
  0
BLOCK_RECORD
  5
60
330
1
100
AcDbSymbolTableRecord
100
AcDbBlockTableRecord
  2
*D17
 70
    0
280
    1
281
    0
  0
BLOCK_RECORD
  5
63
330
1
100
AcDbSymbolTableRecord
100
AcDbBlockTableRecord
  2
*D18
 70
    0
280
    1
281
    0
  0
BLOCK_RECORD
  5
66
330
1
100
AcDbSymbolTableRecord
100
AcDbBlockTableRecord
  2
*D40
 70
    0
280
    1
281
    0
  0
BLOCK_RECORD
  5
69
330
1
100
AcDbSymbolTableRecord
100
AcDbBlockTableRecord
  2
*D36
 70
    0
280
    1
281
    0
  0
BLOCK_RECORD
  5
6C
330
1
100
AcDbSymbolTableRecord
100
AcDbBlockTableRecord
  2
*D8
 70
    0
280
    1
281
    0
  0
BLOCK_RECORD
  5
6F
330
1
100
AcDbSymbolTableRecord
100
AcDbBlockTableRecord
  2
*D22
 70
    0
280
    1
281
    0
  0
BLOCK_RECORD
  5
72
330
1
100
AcDbSymbolTableRecord
100
AcDbBlockTableRecord
  2
*D26
 70
    0
280
    1
281
    0
  0
BLOCK_RECORD
  5
75
330
1
100
AcDbSymbolTableRecord
100
AcDbBlockTableRecord
  2
*D33
 70
    0
280
    1
281
    0
  0
BLOCK_RECORD
  5
78
330
1
100
AcDbSymbolTableRecord
100
AcDbBlockTableRecord
  2
*D31
 70
    0
280
    1
281
    0
  0
BLOCK_RECORD
  5
7B
330
1
100
AcDbSymbolTableRecord
100
AcDbBlockTableRecord
  2
*D1
 70
    0
280
    1
281
    0
  0
BLOCK_RECORD
  5
7E
330
1
100
AcDbSymbolTableRecord
100
AcDbBlockTableRecord
  2
*D10
 70
    0
280
    1
281
    0
  0
BLOCK_RECORD
  5
81
330
1
100
AcDbSymbolTableRecord
100
AcDbBlockTableRecord
  2
*D2
 70
    0
280
    1
281
    0
  0
BLOCK_RECORD
  5
84
330
1
100
AcDbSymbolTableRecord
100
AcDbBlockTableRecord
  2
*D9
 70
    0
280
    1
281
    0
  0
BLOCK_RECORD
  5
87
330
1
100
AcDbSymbolTableRecord
100
AcDbBlockTableRecord
  2
*D23
 70
    0
280
    1
281
    0
  0
BLOCK_RECORD
  5
8A
330
1
100
AcDbSymbolTableRecord
100
AcDbBlockTableRecord
  2
*D13
 70
    0
280
    1
281
    0
  0
BLOCK_RECORD
  5
8D
330
1
100
AcDbSymbolTableRecord
100
AcDbBlockTableRecord
  2
*D4
 70
    0
280
    1
281
    0
  0
BLOCK_RECORD
  5
90
330
1
100
AcDbSymbolTableRecord
100
AcDbBlockTableRecord
  2
*D21
 70
    0
280
    1
281
    0
  0
BLOCK_RECORD
  5
93
330
1
100
AcDbSymbolTableRecord
100
AcDbBlockTableRecord
  2
*D29
 70
    0
280
    1
281
    0
  0
BLOCK_RECORD
  5
96
330
1
100
AcDbSymbolTableRecord
100
AcDbBlockTableRecord
  2
*D7
 70
    0
280
    1
281
    0
  0
BLOCK_RECORD
  5
99
330
1
100
AcDbSymbolTableRecord
100
AcDbBlockTableRecord
  2
*D19
 70
    0
280
    1
281
    0
  0
BLOCK_RECORD
  5
9C
330
1
100
AcDbSymbolTableRecord
100
AcDbBlockTableRecord
  2
*D3
 70
    0
280
    1
281
    0
  0
BLOCK_RECORD
  5
9F
330
1
100
AcDbSymbolTableRecord
100
AcDbBlockTableRecord
  2
*D35
 70
    0
280
    1
281
    0
  0
BLOCK_RECORD
  5
A2
330
1
100
AcDbSymbolTableRecord
100
AcDbBlockTableRecord
  2
*D24
 70
    0
280
    1
281
    0
  0
BLOCK_RECORD
  5
A5
330
1
100
AcDbSymbolTableRecord
100
AcDbBlockTableRecord
  2
*D14
 70
    0
280
    1
281
    0
  0
BLOCK_RECORD
  5
A8
330
1
100
AcDbSymbolTableRecord
100
AcDbBlockTableRecord
  2
*D38
 70
    0
280
    1
281
    0
  0
BLOCK_RECORD
  5
AB
330
1
100
AcDbSymbolTableRecord
100
AcDbBlockTableRecord
  2
*D11
 70
    0
280
    1
281
    0
  0
BLOCK_RECORD
  5
AE
330
1
100
AcDbSymbolTableRecord
100
AcDbBlockTableRecord
  2
*D30
 70
    0
280
    1
281
    0
  0
BLOCK_RECORD
  5
B1
330
1
100
AcDbSymbolTableRecord
100
AcDbBlockTableRecord
  2
*D28
 70
    0
280
    1
281
    0
  0
BLOCK_RECORD
  5
B4
330
1
100
AcDbSymbolTableRecord
100
AcDbBlockTableRecord
  2
*D34
 70
    0
280
    1
281
    0
  0
BLOCK_RECORD
  5
B7
330
1
100
AcDbSymbolTableRecord
100
AcDbBlockTableRecord
  2
*D20
 70
    0
280
    1
281
    0
  0
BLOCK_RECORD
  5
BA
330
1
100
AcDbSymbolTableRecord
100
AcDbBlockTableRecord
  2
*D41
 70
    0
280
    1
281
    0
  0
BLOCK_RECORD
  5
BD
330
1
100
AcDbSymbolTableRecord
100
AcDbBlockTableRecord
  2
*D16
 70
    0
280
    1
281
    0
  0
BLOCK_RECORD
  5
C0
330
1
100
AcDbSymbolTableRecord
100
AcDbBlockTableRecord
  2
*D25
 70
    0
280
    1
281
    0
  0
BLOCK_RECORD
  5
C3
330
1
100
AcDbSymbolTableRecord
100
AcDbBlockTableRecord
  2
*D12
 70
    0
280
    1
281
    0
  0
BLOCK_RECORD
  5
C6
330
1
100
AcDbSymbolTableRecord
100
AcDbBlockTableRecord
  2
*D15
 70
    0
280
    1
281
    0
  0
BLOCK_RECORD
  5
C9
330
1
100
AcDbSymbolTableRecord
100
AcDbBlockTableRecord
  2
*D43
 70
    0
280
    1
281
    0
  0
BLOCK_RECORD
  5
CC
330
1
100
AcDbSymbolTableRecord
100
AcDbBlockTableRecord
  2
*D5
 70
    0
280
    1
281
    0
  0
BLOCK_RECORD
  5
CF
330
1
100
AcDbSymbolTableRecord
100
AcDbBlockTableRecord
  2
*D42
 70
    0
280
    1
281
    0
  0
BLOCK_RECORD
  5
D2
330
1
100
AcDbSymbolTableRecord
100
AcDbBlockTableRecord
  2
*D39
 70
    0
280
    1
281
    0
  0
BLOCK_RECORD
  5
D5
330
1
100
AcDbSymbolTableRecord
100
AcDbBlockTableRecord
  2
bh1750
 70
    0
280
    1
281
    0
  0
BLOCK_RECORD
  5
D8
330
1
100
AcDbSymbolTableRecord
100
AcDbBlockTableRecord
  2
dma45
 70
    0
280
    1
281
    0
  0
BLOCK_RECORD
  5
DB
330
1
100
AcDbSymbolTableRecord
100
AcDbBlockTableRecord
  2
sdd1322
 70
    0
280
    1
281
    0
  0
BLOCK_RECORD
  5
DE
330
1
100
AcDbSymbolTableRecord
100
AcDbBlockTableRecord
  2
rotary encoder
 70
    0
280
    1
281
    0
  0
BLOCK_RECORD
  5
E1
330
1
100
AcDbSymbolTableRecord
100
AcDbBlockTableRecord
  2
button
 70
    0
280
    1
281
    0
  0
BLOCK_RECORD
  5
E4
330
1
100
AcDbSymbolTableRecord
100
AcDbBlockTableRecord
  2
rotary button
 70
    0
280
    1
281
    0
  0
ENDTAB
  0
ENDSEC
  0
SECTION
  2
BLOCKS
  0
BLOCK
  5
20
330
1F
100
AcDbEntity
  8
0
100
AcDbBlockBegin
  2
*Model_Space
 70
    0
 10
0
 20
0
 30
0
  3
*Model_Space
  1

  0
ENDBLK
  5
21
330
1F
100
AcDbEntity
  8
0
100
AcDbBlockEnd
  0
BLOCK
  5
1C
330
1B
100
AcDbEntity
  8
0
100
AcDbBlockBegin
  2
*Paper_Space
 70
    0
 10
0
 20
0
 30
0
  3
*Paper_Space
  1

  0
ENDBLK
  5
1D
330
1F
100
AcDbEntity
  8
0
100
AcDbBlockEnd
  0
BLOCK
  5
55
330
54
100
AcDbEntity
  8
0
100
AcDbBlockBegin
  2
*D27
 70
    1
 10
0
 20
0
  3
*D27
  1

  0
LINE
  5
E7
100
AcDbEntity
  8
3 net-3a.net.dim+
  6
ByBlock
 62
    0
370
   -2
100
AcDbLine
 10
670
 20
310
 11
670
 21
366.9000000000001
  0
MTEXT
  5
E8
100
AcDbEntity
  8
3 net-3a.net.dim+
  6
CONTINUOUS
 62
    0
370
   -2
100
AcDbMText
 10
665.875
 20
338.45
 30
0
 40
7
 41
16.3333333333342
 71
    5
 72
    1
  1
56.9
  7
standard
210
0
220
0
230
1
 50
90
 73
    2
 44
1
  0
SOLID
  5
E9
100
AcDbEntity
  8
3 net-3a.net.dim+
  6
ByBlock
 62
    0
370
   -2
100
AcDbTrace
 10
670
 20
310
 30
0
 11
669.5837153422272
 21
312.5
 31
0
 12
670.4162846577728
 22
312.5
 32
0
 13
670.4162846577728
 23
312.5
 33
0
  0
SOLID
  5
EA
100
AcDbEntity
  8
3 net-3a.net.dim+
  6
ByBlock
 62
    0
370
   -2
100
AcDbTrace
 10
670
 20
366.9000000000001
 30
0
 11
670.4162846577728
 21
364.4000000000001
 31
0
 12
669.5837153422272
 22
364.4000000000001
 32
0
 13
669.5837153422272
 23
364.4000000000001
 33
0
  0
LINE
  5
EB
100
AcDbEntity
  8
3 net-3a.net.dim+
  6
ByBlock
 62
    0
370
   -2
100
AcDbLine
 10
520.625
 20
310
 11
671.25
 21
310
  0
LINE
  5
EC
100
AcDbEntity
  8
3 net-3a.net.dim+
  6
ByBlock
 62
    0
370
   -2
100
AcDbLine
 10
469.125005
 20
366.9000000000001
 11
671.25
 21
366.9000000000001
  0
ENDBLK
  5
56
330
54
100
AcDbEntity
  8
0
100
AcDbBlockEnd
  0
BLOCK
  5
58
330
57
100
AcDbEntity
  8
0
100
AcDbBlockBegin
  2
*D37
 70
    1
 10
0
 20
0
  3
*D37
  1

  0
LINE
  5
ED
100
AcDbEntity
  8
3 net-3a.net.dim+
  6
ByBlock
 62
    0
370
   -2
100
AcDbLine
 10
362.3503344481605
 20
-250
 11
457.3503344481605
 21
-250
  0
MTEXT
  5
EE
100
AcDbEntity
  8
3 net-3a.net.dim+
  6
CONTINUOUS
 62
    0
370
   -2
100
AcDbMText
 10
409.8503344481605
 20
-245.875
 30
0
 40
7
 41
16.33333333333464
 71
    5
 72
    1
  1
95.0
  7
standard
210
0
220
0
230
1
 50
0
 73
    2
 44
1
  0
SOLID
  5
EF
100
AcDbEntity
  8
3 net-3a.net.dim+
  6
ByBlock
 62
    0
370
   -2
100
AcDbTrace
 10
362.3503344481605
 20
-250
 30
0
 11
364.8503344481605
 21
-249.5837153422272
 31
0
 12
364.8503344481605
 22
-250.4162846577728
 32
0
 13
364.8503344481605
 23
-250.4162846577728
 33
0
  0
SOLID
  5
F0
100
AcDbEntity
  8
3 net-3a.net.dim+
  6
ByBlock
 62
    0
370
   -2
100
AcDbTrace
 10
457.3503344481605
 20
-250
 30
0
 11
454.8503344481605
 21
-250.4162846577728
 31
0
 12
454.8503344481605
 22
-249.5837153422272
 32
0
 13
454.8503344481605
 23
-249.5837153422272
 33
0
  0
LINE
  5
F1
100
AcDbEntity
  8
3 net-3a.net.dim+
  6
ByBlock
 62
    0
370
   -2
100
AcDbLine
 10
362.3503344481605
 20
-11.25587633817927
 11
362.3503344481605
 21
-251.25
  0
LINE
  5
F2
100
AcDbEntity
  8
3 net-3a.net.dim+
  6
ByBlock
 62
    0
370
   -2
100
AcDbLine
 10
457.3503344481605
 20
-11.25590911409898
 11
457.3503344481605
 21
-251.25
  0
ENDBLK
  5
59
330
57
100
AcDbEntity
  8
0
100
AcDbBlockEnd
  0
BLOCK
  5
5B
330
5A
100
AcDbEntity
  8
0
100
AcDbBlockBegin
  2
*D32
 70
    1
 10
0
 20
0
  3
*D32
  1

  0
LINE
  5
F3
100
AcDbEntity
  8
3 net-3a.net.dim+
  6
ByBlock
 62
    0
370
   -2
100
AcDbLine
 10
750
 20
-56.90000000000001
 11
750
 21
-14.69999999999999
  0
MTEXT
  5
F4
100
AcDbEntity
  8
3 net-3a.net.dim+
  6
CONTINUOUS
 62
    0
370
   -2
100
AcDbMText
 10
745.875
 20
-35.8
 30
0
 40
7
 41
17.11111111111111
 71
    5
 72
    1
  1
42.2
  7
standard
210
0
220
0
230
1
 50
90
 73
    2
 44
1
  0
SOLID
  5
F5
100
AcDbEntity
  8
3 net-3a.net.dim+
  6
ByBlock
 62
    0
370
   -2
100
AcDbTrace
 10
750
 20
-56.90000000000001
 30
0
 11
749.5837153422272
 21
-54.40000000000001
 31
0
 12
750.4162846577728
 22
-54.40000000000001
 32
0
 13
750.4162846577728
 23
-54.40000000000001
 33
0
  0
SOLID
  5
F6
100
AcDbEntity
  8
3 net-3a.net.dim+
  6
ByBlock
 62
    0
370
   -2
100
AcDbTrace
 10
750
 20
-14.69999999999999
 30
0
 11
750.4162846577728
 21
-17.19999999999999
 31
0
 12
749.5837153422272
 22
-17.19999999999999
 32
0
 13
749.5837153422272
 23
-17.19999999999999
 33
0
  0
LINE
  5
F7
100
AcDbEntity
  8
3 net-3a.net.dim+
  6
ByBlock
 62
    0
370
   -2
100
AcDbLine
 10
575.625
 20
-56.90000000000001
 11
751.25
 21
-56.90000000000001
  0
LINE
  5
F8
100
AcDbEntity
  8
3 net-3a.net.dim+
  6
ByBlock
 62
    0
370
   -2
100
AcDbLine
 10
575.625
 20
-14.69999999999999
 11
751.25
 21
-14.69999999999999
  0
ENDBLK
  5
5C
330
5A
100
AcDbEntity
  8
0
100
AcDbBlockEnd
  0
BLOCK
  5
5E
330
5D
100
AcDbEntity
  8
0
100
AcDbBlockBegin
  2
*D6
 70
    1
 10
0
 20
0
  3
*D6
  1

  0
LINE
  5
F9
100
AcDbEntity
  8
1 drawing-1 drawing+
  6
ByBlock
 62
    0
370
   -2
100
AcDbLine
 10
0
 20
-70
 11
100
 21
-70
  0
MTEXT
  5
FA
100
AcDbEntity
  8
1 drawing-1 drawing+
  6
CONTINUOUS
 62
    0
370
   -2
100
AcDbMText
 10
50
 20
-65.875
 30
0
 40
7
 41
20.22222222222222
 71
    5
 72
    1
  1
100.0
  7
standard
210
0
220
0
230
1
 50
0
 73
    2
 44
1
  0
SOLID
  5
FB
100
AcDbEntity
  8
1 drawing-1 drawing+
  6
ByBlock
 62
    0
370
   -2
100
AcDbTrace
 10
0
 20
-70
 30
0
 11
2.5
 21
-69.58371534222717
 31
0
 12
2.5
 22
-70.41628465777283
 32
0
 13
2.5
 23
-70.41628465777283
 33
0
  0
SOLID
  5
FC
100
AcDbEntity
  8
1 drawing-1 drawing+
  6
ByBlock
 62
    0
370
   -2
100
AcDbTrace
 10
100
 20
-70
 30
0
 11
97.5
 21
-70.41628465777283
 31
0
 12
97.5
 22
-69.58371534222717
 32
0
 13
97.5
 23
-69.58371534222717
 33
0
  0
LINE
  5
FD
100
AcDbEntity
  8
1 drawing-1 drawing+
  6
ByBlock
 62
    0
370
   -2
100
AcDbLine
 10
-1.148106374200643e-16
 20
-0.625
 11
-2.296212748401287e-16
 21
-71.25
  0
LINE
  5
FE
100
AcDbEntity
  8
1 drawing-1 drawing+
  6
ByBlock
 62
    0
370
   -2
100
AcDbLine
 10
100
 20
-0.625
 11
100
 21
-71.25
  0
ENDBLK
  5
5F
330
5D
100
AcDbEntity
  8
0
100
AcDbBlockEnd
  0
BLOCK
  5
61
330
60
100
AcDbEntity
  8
0
100
AcDbBlockBegin
  2
*D17
 70
    1
 10
0
 20
0
  3
*D17
  1

  0
LINE
  5
FF
100
AcDbEntity
  8
3 net-3a.net.dim+
  6
ByBlock
 62
    0
370
   -2
100
AcDbLine
 10
346.319090885901
 20
-240
 11
300
 21
-240
  0
MTEXT
  5
100
100
AcDbEntity
  8
3 net-3a.net.dim+
  6
CONTINUOUS
 62
    0
370
   -2
100
AcDbMText
 10
323.1595454429505
 20
-235.875
 30
0
 40
7
 41
17.11111111111198
 71
    5
 72
    1
  1
46.3
  7
standard
210
0
220
0
230
1
 50
0
 73
    2
 44
1
  0
SOLID
  5
101
100
AcDbEntity
  8
3 net-3a.net.dim+
  6
ByBlock
 62
    0
370
   -2
100
AcDbTrace
 10
346.319090885901
 20
-240
 30
0
 11
343.819090885901
 21
-240.4162846577728
 31
0
 12
343.819090885901
 22
-239.5837153422272
 32
0
 13
343.819090885901
 23
-239.5837153422272
 33
0
  0
SOLID
  5
102
100
AcDbEntity
  8
3 net-3a.net.dim+
  6
ByBlock
 62
    0
370
   -2
100
AcDbTrace
 10
300
 20
-240
 30
0
 11
302.5
 21
-239.5837153422272
 31
0
 12
302.5
 22
-240.4162846577728
 32
0
 13
302.5
 23
-240.4162846577728
 33
0
  0
LINE
  5
103
100
AcDbEntity
  8
3 net-3a.net.dim+
  6
ByBlock
 62
    0
370
   -2
100
AcDbLine
 10
346.319090885901
 20
-50.19409088590099
 11
346.319090885901
 21
-241.25
  0
LINE
  5
104
100
AcDbEntity
  8
3 net-3a.net.dim+
  6
ByBlock
 62
    0
370
   -2
100
AcDbLine
 10
300
 20
-57.525
 11
300
 21
-241.25
  0
ENDBLK
  5
62
330
60
100
AcDbEntity
  8
0
100
AcDbBlockEnd
  0
BLOCK
  5
64
330
63
100
AcDbEntity
  8
0
100
AcDbBlockBegin
  2
*D18
 70
    1
 10
0
 20
0
  3
*D18
  1

  0
LINE
  5
105
100
AcDbEntity
  8
3 net-3a.net.dim+
  6
ByBlock
 62
    0
370
   -2
100
AcDbLine
 10
328.5
 20
-230
 11
300
 21
-230
  0
MTEXT
  5
106
100
AcDbEntity
  8
3 net-3a.net.dim+
  6
CONTINUOUS
 62
    0
370
   -2
100
AcDbMText
 10
314.25
 20
-225.875
 30
0
 40
7
 41
16.33333333333377
 71
    5
 72
    1
  1
28.5
  7
standard
210
0
220
0
230
1
 50
0
 73
    2
 44
1
  0
SOLID
  5
107
100
AcDbEntity
  8
3 net-3a.net.dim+
  6
ByBlock
 62
    0
370
   -2
100
AcDbTrace
 10
328.5
 20
-230
 30
0
 11
326
 21
-230.4162846577728
 31
0
 12
326
 22
-229.5837153422272
 32
0
 13
326
 23
-229.5837153422272
 33
0
  0
SOLID
  5
108
100
AcDbEntity
  8
3 net-3a.net.dim+
  6
ByBlock
 62
    0
370
   -2
100
AcDbTrace
 10
300
 20
-230
 30
0
 11
302.5
 21
-229.5837153422272
 31
0
 12
302.5
 22
-230.4162846577728
 32
0
 13
302.5
 23
-230.4162846577728
 33
0
  0
LINE
  5
109
100
AcDbEntity
  8
3 net-3a.net.dim+
  6
ByBlock
 62
    0
370
   -2
100
AcDbLine
 10
328.5
 20
-29.075
 11
328.5
 21
-231.25
  0
LINE
  5
10A
100
AcDbEntity
  8
3 net-3a.net.dim+
  6
ByBlock
 62
    0
370
   -2
100
AcDbLine
 10
300
 20
-57.525
 11
300
 21
-231.25
  0
ENDBLK
  5
65
330
63
100
AcDbEntity
  8
0
100
AcDbBlockEnd
  0
BLOCK
  5
67
330
66
100
AcDbEntity
  8
0
100
AcDbBlockBegin
  2
*D40
 70
    1
 10
0
 20
0
  3
*D40
  1

  0
LINE
  5
10B
100
AcDbEntity
  8
3 net-3a.net.dim+
  6
ByBlock
 62
    0
370
   -2
100
AcDbLine
 10
700
 20
-37.63090911409898
 11
700
 21
-56.90000000000001
  0
MTEXT
  5
10C
100
AcDbEntity
  8
3 net-3a.net.dim+
  6
CONTINUOUS
 62
    0
370
   -2
100
AcDbMText
 10
695.875
 20
-47.26545455704949
 30
0
 40
7
 41
14.77777777777865
 71
    5
 72
    1
  1
19.3
  7
standard
210
0
220
0
230
1
 50
90
 73
    2
 44
1
  0
SOLID
  5
10D
100
AcDbEntity
  8
3 net-3a.net.dim+
  6
ByBlock
 62
    0
370
   -2
100
AcDbTrace
 10
700
 20
-37.63090911409898
 30
0
 11
700.4162846577728
 21
-40.13090911409898
 31
0
 12
699.5837153422272
 22
-40.13090911409898
 32
0
 13
699.5837153422272
 23
-40.13090911409898
 33
0
  0
SOLID
  5
10E
100
AcDbEntity
  8
3 net-3a.net.dim+
  6
ByBlock
 62
    0
370
   -2
100
AcDbTrace
 10
700
 20
-56.90000000000001
 30
0
 11
699.5837153422272
 21
-54.40000000000001
 31
0
 12
700.4162846577728
 22
-54.40000000000001
 32
0
 13
700.4162846577728
 23
-54.40000000000001
 33
0
  0
LINE
  5
10F
100
AcDbEntity
  8
3 net-3a.net.dim+
  6
ByBlock
 62
    0
370
   -2
100
AcDbLine
 10
459.4753344481605
 20
-37.63090911409898
 11
701.25
 21
-37.63090911409898
  0
LINE
  5
110
100
AcDbEntity
  8
3 net-3a.net.dim+
  6
ByBlock
 62
    0
370
   -2
100
AcDbLine
 10
520.625
 20
-56.90000000000001
 11
701.25
 21
-56.90000000000001
  0
ENDBLK
  5
68
330
66
100
AcDbEntity
  8
0
100
AcDbBlockEnd
  0
BLOCK
  5
6A
330
69
100
AcDbEntity
  8
0
100
AcDbBlockBegin
  2
*D36
 70
    1
 10
0
 20
0
  3
*D36
  1

  0
LINE
  5
111
100
AcDbEntity
  8
3 net-3a.net.dim+
  6
ByBlock
 62
    0
370
   -2
100
AcDbLine
 10
365.1003344481605
 20
-220
 11
377.7003344481605
 21
-220
  0
MTEXT
  5
112
100
AcDbEntity
  8
3 net-3a.net.dim+
  6
CONTINUOUS
 62
    0
370
   -2
100
AcDbMText
 10
385.7142233370496
 20
-215.875
 30
0
 40
7
 41
14.77777777777821
 71
    5
 72
    1
  1
12.6
  7
standard
210
0
220
0
230
1
 50
0
 73
    2
 44
1
  0
SOLID
  5
113
100
AcDbEntity
  8
3 net-3a.net.dim+
  6
ByBlock
 62
    0
370
   -2
100
AcDbTrace
 10
365.1003344481605
 20
-220
 30
0
 11
367.6003344481605
 21
-219.5837153422272
 31
0
 12
367.6003344481605
 22
-220.4162846577728
 32
0
 13
367.6003344481605
 23
-220.4162846577728
 33
0
  0
SOLID
  5
114
100
AcDbEntity
  8
3 net-3a.net.dim+
  6
ByBlock
 62
    0
370
   -2
100
AcDbTrace
 10
377.7003344481605
 20
-220
 30
0
 11
375.2003344481605
 21
-220.4162846577728
 31
0
 12
375.2003344481605
 22
-219.5837153422272
 32
0
 13
375.2003344481605
 23
-219.5837153422272
 33
0
  0
LINE
  5
115
100
AcDbEntity
  8
3 net-3a.net.dim+
  6
ByBlock
 62
    0
370
   -2
100
AcDbLine
 10
365.1003344481605
 20
-35.87500499999996
 11
365.1003344481605
 21
-221.25
  0
LINE
  5
116
100
AcDbEntity
  8
3 net-3a.net.dim+
  6
ByBlock
 62
    0
370
   -2
100
AcDbLine
 10
377.7003344481605
 20
-39.95587633817919
 11
377.7003344481605
 21
-221.25
  0
ENDBLK
  5
6B
330
69
100
AcDbEntity
  8
0
100
AcDbBlockEnd
  0
BLOCK
  5
6D
330
6C
100
AcDbEntity
  8
0
100
AcDbBlockBegin
  2
*D8
 70
    1
 10
0
 20
0
  3
*D8
  1

  0
LINE
  5
117
100
AcDbEntity
  8
1 drawing-1 drawing+
  6
ByBlock
 62
    0
370
   -2
100
AcDbLine
 10
-4.999999999999996
 20
0
 11
-5
 21
-55
  0
MTEXT
  5
118
100
AcDbEntity
  8
1 drawing-1 drawing+
  6
CONTINUOUS
 62
    0
370
   -2
100
AcDbMText
 10
-9.124999999999998
 20
-27.5
 30
0
 40
7
 41
16.3333333333342
 71
    5
 72
    1
  1
55.0
  7
standard
210
0
220
0
230
1
 50
90
 73
    2
 44
1
  0
SOLID
  5
119
100
AcDbEntity
  8
1 drawing-1 drawing+
  6
ByBlock
 62
    0
370
   -2
100
AcDbTrace
 10
-4.999999999999996
 20
0
 30
0
 11
-4.583715342227156
 21
-2.5
 31
0
 12
-5.416284657772837
 22
-2.5
 32
0
 13
-5.416284657772837
 23
-2.5
 33
0
  0
SOLID
  5
11A
100
AcDbEntity
  8
1 drawing-1 drawing+
  6
ByBlock
 62
    0
370
   -2
100
AcDbTrace
 10
-5
 20
-55
 30
0
 11
-5.41628465777284
 21
-52.5
 31
0
 12
-4.583715342227159
 22
-52.5
 32
0
 13
-4.583715342227159
 23
-52.5
 33
0
  0
LINE
  5
11B
100
AcDbEntity
  8
1 drawing-1 drawing+
  6
ByBlock
 62
    0
370
   -2
100
AcDbLine
 10
-0.625
 20
7.654042494670958e-17
 11
-6.249999999999996
 21
1.530808498934192e-16
  0
LINE
  5
11C
100
AcDbEntity
  8
1 drawing-1 drawing+
  6
ByBlock
 62
    0
370
   -2
100
AcDbLine
 10
-0.6250000000000002
 20
-55
 11
-6.25
 21
-55
  0
ENDBLK
  5
6E
330
6C
100
AcDbEntity
  8
0
100
AcDbBlockEnd
  0
BLOCK
  5
70
330
6F
100
AcDbEntity
  8
0
100
AcDbBlockBegin
  2
*D22
 70
    1
 10
0
 20
0
  3
*D22
  1

  0
LINE
  5
11D
100
AcDbEntity
  8
3 net-3a.net.dim+
  6
ByBlock
 62
    0
370
   -2
100
AcDbLine
 10
509.319090885901
 20
-300
 11
300
 21
-300
  0
MTEXT
  5
11E
100
AcDbEntity
  8
3 net-3a.net.dim+
  6
CONTINUOUS
 62
    0
370
   -2
100
AcDbMText
 10
404.6595454429505
 20
-295.875
 30
0
 40
7
 41
21.77777777777865
 71
    5
 72
    1
  1
209.3
  7
standard
210
0
220
0
230
1
 50
0
 73
    2
 44
1
  0
SOLID
  5
11F
100
AcDbEntity
  8
3 net-3a.net.dim+
  6
ByBlock
 62
    0
370
   -2
100
AcDbTrace
 10
509.319090885901
 20
-300
 30
0
 11
506.819090885901
 21
-300.4162846577728
 31
0
 12
506.819090885901
 22
-299.5837153422272
 32
0
 13
506.819090885901
 23
-299.5837153422272
 33
0
  0
SOLID
  5
120
100
AcDbEntity
  8
3 net-3a.net.dim+
  6
ByBlock
 62
    0
370
   -2
100
AcDbTrace
 10
300
 20
-300
 30
0
 11
302.5
 21
-299.5837153422272
 31
0
 12
302.5
 22
-300.4162846577728
 32
0
 13
302.5
 23
-300.4162846577728
 33
0
  0
LINE
  5
121
100
AcDbEntity
  8
3 net-3a.net.dim+
  6
ByBlock
 62
    0
370
   -2
100
AcDbLine
 10
509.319090885901
 20
-50.19409088590097
 11
509.319090885901
 21
-301.25
  0
LINE
  5
122
100
AcDbEntity
  8
3 net-3a.net.dim+
  6
ByBlock
 62
    0
370
   -2
100
AcDbLine
 10
300
 20
-57.525
 11
300
 21
-301.25
  0
ENDBLK
  5
71
330
6F
100
AcDbEntity
  8
0
100
AcDbBlockEnd
  0
BLOCK
  5
73
330
72
100
AcDbEntity
  8
0
100
AcDbBlockBegin
  2
*D26
 70
    1
 10
0
 20
0
  3
*D26
  1

  0
LINE
  5
123
100
AcDbEntity
  8
3 net-3a.net.dim+
  6
ByBlock
 62
    0
370
   -2
100
AcDbLine
 10
670
 20
210
 11
670
 21
310
  0
MTEXT
  5
124
100
AcDbEntity
  8
3 net-3a.net.dim+
  6
CONTINUOUS
 62
    0
370
   -2
100
AcDbMText
 10
665.875
 20
260
 30
0
 40
7
 41
20.22222222222222
 71
    5
 72
    1
  1
100.0
  7
standard
210
0
220
0
230
1
 50
90
 73
    2
 44
1
  0
SOLID
  5
125
100
AcDbEntity
  8
3 net-3a.net.dim+
  6
ByBlock
 62
    0
370
   -2
100
AcDbTrace
 10
670
 20
210
 30
0
 11
669.5837153422272
 21
212.5
 31
0
 12
670.4162846577728
 22
212.5
 32
0
 13
670.4162846577728
 23
212.5
 33
0
  0
SOLID
  5
126
100
AcDbEntity
  8
3 net-3a.net.dim+
  6
ByBlock
 62
    0
370
   -2
100
AcDbTrace
 10
670
 20
310
 30
0
 11
670.4162846577728
 21
307.5
 31
0
 12
669.5837153422272
 22
307.5
 32
0
 13
669.5837153422272
 23
307.5
 33
0
  0
LINE
  5
127
100
AcDbEntity
  8
3 net-3a.net.dim+
  6
ByBlock
 62
    0
370
   -2
100
AcDbLine
 10
520.625
 20
210
 11
671.25
 21
210
  0
LINE
  5
128
100
AcDbEntity
  8
3 net-3a.net.dim+
  6
ByBlock
 62
    0
370
   -2
100
AcDbLine
 10
520.625
 20
310
 11
671.25
 21
310
  0
ENDBLK
  5
74
330
72
100
AcDbEntity
  8
0
100
AcDbBlockEnd
  0
BLOCK
  5
76
330
75
100
AcDbEntity
  8
0
100
AcDbBlockBegin
  2
*D33
 70
    1
 10
0
 20
0
  3
*D33
  1

  0
LINE
  5
129
100
AcDbEntity
  8
3 net-3a.net.dim+
  6
ByBlock
 62
    0
370
   -2
100
AcDbLine
 10
740
 20
-56.90000000000001
 11
740
 21
-28.44999999999998
  0
MTEXT
  5
12A
100
AcDbEntity
  8
3 net-3a.net.dim+
  6
CONTINUOUS
 62
    0
370
   -2
100
AcDbMText
 10
735.875
 20
-42.675
 30
0
 40
7
 41
16.33333333333377
 71
    5
 72
    1
  1
28.5
  7
standard
210
0
220
0
230
1
 50
90
 73
    2
 44
1
  0
SOLID
  5
12B
100
AcDbEntity
  8
3 net-3a.net.dim+
  6
ByBlock
 62
    0
370
   -2
100
AcDbTrace
 10
740
 20
-56.90000000000001
 30
0
 11
739.5837153422272
 21
-54.40000000000001
 31
0
 12
740.4162846577728
 22
-54.40000000000001
 32
0
 13
740.4162846577728
 23
-54.40000000000001
 33
0
  0
SOLID
  5
12C
100
AcDbEntity
  8
3 net-3a.net.dim+
  6
ByBlock
 62
    0
370
   -2
100
AcDbTrace
 10
740
 20
-28.44999999999998
 30
0
 11
740.4162846577728
 21
-30.94999999999998
 31
0
 12
739.5837153422272
 22
-30.94999999999998
 32
0
 13
739.5837153422272
 23
-30.94999999999998
 33
0
  0
LINE
  5
12D
100
AcDbEntity
  8
3 net-3a.net.dim+
  6
ByBlock
 62
    0
370
   -2
100
AcDbLine
 10
520.625
 20
-56.90000000000001
 11
741.25
 21
-56.90000000000001
  0
LINE
  5
12E
100
AcDbEntity
  8
3 net-3a.net.dim+
  6
ByBlock
 62
    0
370
   -2
100
AcDbLine
 10
492.125
 20
-28.44999999999998
 11
741.25
 21
-28.44999999999998
  0
ENDBLK
  5
77
330
75
100
AcDbEntity
  8
0
100
AcDbBlockEnd
  0
BLOCK
  5
79
330
78
100
AcDbEntity
  8
0
100
AcDbBlockBegin
  2
*D31
 70
    1
 10
0
 20
0
  3
*D31
  1

  0
LINE
  5
12F
100
AcDbEntity
  8
3 net-3a.net.dim+
  6
ByBlock
 62
    0
370
   -2
100
AcDbLine
 10
760
 20
-56.9
 11
760
 21
-10.63090911409898
  0
MTEXT
  5
130
100
AcDbEntity
  8
3 net-3a.net.dim+
  6
CONTINUOUS
 62
    0
370
   -2
100
AcDbMText
 10
755.875
 20
-33.76545455704949
 30
0
 40
7
 41
17.11111111111198
 71
    5
 72
    1
  1
46.3
  7
standard
210
0
220
0
230
1
 50
90
 73
    2
 44
1
  0
SOLID
  5
131
100
AcDbEntity
  8
3 net-3a.net.dim+
  6
ByBlock
 62
    0
370
   -2
100
AcDbTrace
 10
760
 20
-56.9
 30
0
 11
759.5837153422272
 21
-54.4
 31
0
 12
760.4162846577728
 22
-54.4
 32
0
 13
760.4162846577728
 23
-54.4
 33
0
  0
SOLID
  5
132
100
AcDbEntity
  8
3 net-3a.net.dim+
  6
ByBlock
 62
    0
370
   -2
100
AcDbTrace
 10
760
 20
-10.63090911409898
 30
0
 11
760.4162846577728
 21
-13.13090911409898
 31
0
 12
759.5837153422272
 22
-13.13090911409898
 32
0
 13
759.5837153422272
 23
-13.13090911409898
 33
0
  0
LINE
  5
133
100
AcDbEntity
  8
3 net-3a.net.dim+
  6
ByBlock
 62
    0
370
   -2
100
AcDbLine
 10
520.625
 20
-56.9
 11
761.25
 21
-56.9
  0
LINE
  5
134
100
AcDbEntity
  8
3 net-3a.net.dim+
  6
ByBlock
 62
    0
370
   -2
100
AcDbLine
 10
513.244090885901
 20
-10.63090911409898
 11
761.25
 21
-10.63090911409898
  0
ENDBLK
  5
7A
330
78
100
AcDbEntity
  8
0
100
AcDbBlockEnd
  0
BLOCK
  5
7C
330
7B
100
AcDbEntity
  8
0
100
AcDbBlockBegin
  2
*D1
 70
    1
 10
0
 20
0
  3
*D1
  1

  0
LINE
  5
135
100
AcDbEntity
  8
1 drawing
  6
ByBlock
 62
    0
370
   -2
100
AcDbLine
 10
-1779.765745801955
 20
63.06582109879213
 11
-979.7657458019551
 21
63.06582109879213
  0
MTEXT
  5
136
100
AcDbEntity
  8
1 drawing
  6
CONTINUOUS
 62
    0
370
   -2
100
AcDbMText
 10
-1379.765745801955
 20
67.19082109879213
 30
0
 40
7
 41
3.111111111111437
 71
    5
 72
    1
  1
a
  7
standard
210
0
220
0
230
1
 50
0
 73
    2
 44
1
  0
SOLID
  5
137
100
AcDbEntity
  8
1 drawing
  6
ByBlock
 62
    0
370
   -2
100
AcDbTrace
 10
-1779.765745801955
 20
63.06582109879213
 30
0
 11
-1777.265745801955
 21
63.48210575656497
 31
0
 12
-1777.265745801955
 22
62.64953644101929
 32
0
 13
-1777.265745801955
 23
62.64953644101929
 33
0
  0
SOLID
  5
138
100
AcDbEntity
  8
1 drawing
  6
ByBlock
 62
    0
370
   -2
100
AcDbTrace
 10
-979.7657458019551
 20
63.06582109879213
 30
0
 11
-982.2657458019551
 21
62.64953644101929
 31
0
 12
-982.2657458019551
 22
63.48210575656497
 32
0
 13
-982.2657458019551
 23
63.48210575656497
 33
0
  0
LINE
  5
139
100
AcDbEntity
  8
1 drawing
  6
ByBlock
 62
    0
370
   -2
100
AcDbLine
 10
-1779.765745801955
 20
-36.30917890120787
 11
-1779.765745801955
 21
64.31582109879213
  0
LINE
  5
13A
100
AcDbEntity
  8
1 drawing
  6
ByBlock
 62
    0
370
   -2
100
AcDbLine
 10
-979.7657458019551
 20
-36.30917890120787
 11
-979.7657458019551
 21
64.31582109879213
  0
ENDBLK
  5
7D
330
7B
100
AcDbEntity
  8
0
100
AcDbBlockEnd
  0
BLOCK
  5
7F
330
7E
100
AcDbEntity
  8
0
100
AcDbBlockBegin
  2
*D10
 70
    1
 10
0
 20
0
  3
*D10
  1

  0
LINE
  5
13B
100
AcDbEntity
  8
3 net-3a.net.dim+
  6
ByBlock
 62
    0
370
   -2
100
AcDbLine
 10
300
 20
-260
 11
245
 21
-260
  0
MTEXT
  5
13C
100
AcDbEntity
  8
3 net-3a.net.dim+
  6
CONTINUOUS
 62
    0
370
   -2
100
AcDbMText
 10
272.5
 20
-255.875
 30
0
 40
7
 41
16.3333333333342
 71
    5
 72
    1
  1
55.0
  7
standard
210
0
220
0
230
1
 50
0
 73
    2
 44
1
  0
SOLID
  5
13D
100
AcDbEntity
  8
3 net-3a.net.dim+
  6
ByBlock
 62
    0
370
   -2
100
AcDbTrace
 10
300
 20
-260
 30
0
 11
297.5
 21
-260.4162846577728
 31
0
 12
297.5
 22
-259.5837153422272
 32
0
 13
297.5
 23
-259.5837153422272
 33
0
  0
SOLID
  5
13E
100
AcDbEntity
  8
3 net-3a.net.dim+
  6
ByBlock
 62
    0
370
   -2
100
AcDbTrace
 10
245
 20
-260
 30
0
 11
247.5
 21
-259.5837153422272
 31
0
 12
247.5
 22
-260.4162846577728
 32
0
 13
247.5
 23
-260.4162846577728
 33
0
  0
LINE
  5
13F
100
AcDbEntity
  8
3 net-3a.net.dim+
  6
ByBlock
 62
    0
370
   -2
100
AcDbLine
 10
300
 20
-172.225
 11
300
 21
-261.25
  0
LINE
  5
140
100
AcDbEntity
  8
3 net-3a.net.dim+
  6
ByBlock
 62
    0
370
   -2
100
AcDbLine
 10
245
 20
-57.525
 11
245
 21
-261.25
  0
ENDBLK
  5
80
330
7E
100
AcDbEntity
  8
0
100
AcDbBlockEnd
  0
BLOCK
  5
82
330
81
100
AcDbEntity
  8
0
100
AcDbBlockBegin
  2
*D2
 70
    1
 10
0
 20
0
  3
*D2
  1

  0
LINE
  5
141
100
AcDbEntity
  8
1 drawing
  6
ByBlock
 62
    0
370
   -2
100
AcDbLine
 10
-1780.390745801955
 20
-586.9341789012078
 11
-1881.015745801955
 21
-586.9341789012078
  0
LINE
  5
142
100
AcDbEntity
  8
1 drawing
  6
ByBlock
 62
    0
370
   -2
100
AcDbLine
 10
-1780.390745801955
 20
-36.93417890120787
 11
-1881.015745801955
 21
-36.93417890120786
  0
LINE
  5
143
100
AcDbEntity
  8
1 drawing
  6
ByBlock
 62
    0
370
   -2
100
AcDbLine
 10
-1879.765745801955
 20
-586.9341789012078
 11
-1879.765745801955
 21
-36.93417890120786
  0
MTEXT
  5
144
100
AcDbEntity
  8
1 drawing
  6
CONTINUOUS
 62
    0
370
   -2
100
AcDbMText
 10
-1883.890745801955
 20
-311.9341789012078
 30
0
 40
7
 41
3.111111111111437
 71
    5
 72
    1
  1
d
  7
standard
210
0
220
0
230
1
 50
90
 73
    2
 44
1
  0
SOLID
  5
145
100
AcDbEntity
  8
1 drawing
  6
ByBlock
 62
    0
370
   -2
100
AcDbTrace
 10
-1879.765745801955
 20
-586.9341789012078
 30
0
 11
-1880.182030459728
 21
-584.4341789012078
 31
0
 12
-1879.349461144182
 22
-584.4341789012078
 32
0
 13
-1879.349461144182
 23
-584.4341789012078
 33
0
  0
SOLID
  5
146
100
AcDbEntity
  8
1 drawing
  6
ByBlock
 62
    0
370
   -2
100
AcDbTrace
 10
-1879.765745801955
 20
-36.93417890120786
 30
0
 11
-1879.349461144182
 21
-39.43417890120786
 31
0
 12
-1880.182030459728
 22
-39.43417890120786
 32
0
 13
-1880.182030459728
 23
-39.43417890120786
 33
0
  0
ENDBLK
  5
83
330
81
100
AcDbEntity
  8
0
100
AcDbBlockEnd
  0
BLOCK
  5
85
330
84
100
AcDbEntity
  8
0
100
AcDbBlockBegin
  2
*D9
 70
    1
 10
0
 20
0
  3
*D9
  1

  0
ARC
  5
147
100
AcDbEntity
  8
1 drawing-1 drawing+
  6
ByBlock
 62
    0
370
   -2
100
AcDbCircle
 10
114.737
 20
-55
 40
25.23725755703261
100
AcDbArc
 50
104.9998001810798
 51
180
  0
SOLID
  5
148
100
AcDbEntity
  8
1 drawing-1 drawing+
  6
ByBlock
 62
    0
370
   -2
100
AcDbTrace
 10
108.2052021139745
 20
-30.6226583611725
 30
0
 11
105.9528981728059
 21
-31.78473403551276
 31
0
 12
105.6978646943959
 22
-30.99218776552071
 32
0
 13
105.6978646943959
 23
-30.99218776552071
 33
0
  0
SOLID
  5
149
100
AcDbEntity
  8
1 drawing-1 drawing+
  6
ByBlock
 62
    0
370
   -2
100
AcDbTrace
 10
89.49974244296737
 20
-55
 30
0
 11
89.20774254144426
 21
-52.48245576527292
 31
0
 12
90.03929082975939
 22
-52.52367601986187
 32
0
 13
90.03929082975939
 23
-52.52367601986187
 33
0
  0
MTEXT
  5
14A
100
AcDbEntity
  8
1 drawing-1 drawing+
  6
CONTINUOUS
 62
    0
370
   -2
100
AcDbMText
 10
94.21911903317576
 20
-39.25601935413021
 30
0
 40
7
 41
26.44444444444488
 71
    8
 72
    1
  1
75.00%%D
  7
standard
210
0
220
0
230
1
 50
412.4999000905398
 73
    2
 44
1
  0
ENDBLK
  5
86
330
84
100
AcDbEntity
  8
0
100
AcDbBlockEnd
  0
BLOCK
  5
88
330
87
100
AcDbEntity
  8
0
100
AcDbBlockBegin
  2
*D23
 70
    1
 10
0
 20
0
  3
*D23
  1

  0
LINE
  5
14B
100
AcDbEntity
  8
3 net-3a.net.dim+
  6
ByBlock
 62
    0
370
   -2
100
AcDbLine
 10
670
 20
-171.6
 11
670
 21
-56.9
  0
MTEXT
  5
14C
100
AcDbEntity
  8
3 net-3a.net.dim+
  6
CONTINUOUS
 62
    0
370
   -2
100
AcDbMText
 10
665.875
 20
-114.25
 30
0
 40
7
 41
19.44444444444444
 71
    5
 72
    1
  1
114.7
  7
standard
210
0
220
0
230
1
 50
90
 73
    2
 44
1
  0
SOLID
  5
14D
100
AcDbEntity
  8
3 net-3a.net.dim+
  6
ByBlock
 62
    0
370
   -2
100
AcDbTrace
 10
670
 20
-171.6
 30
0
 11
669.5837153422272
 21
-169.1
 31
0
 12
670.4162846577728
 22
-169.1
 32
0
 13
670.4162846577728
 23
-169.1
 33
0
  0
SOLID
  5
14E
100
AcDbEntity
  8
3 net-3a.net.dim+
  6
ByBlock
 62
    0
370
   -2
100
AcDbTrace
 10
670
 20
-56.9
 30
0
 11
670.4162846577728
 21
-59.4
 31
0
 12
669.5837153422272
 22
-59.4
 32
0
 13
669.5837153422272
 23
-59.4
 33
0
  0
LINE
  5
14F
100
AcDbEntity
  8
3 net-3a.net.dim+
  6
ByBlock
 62
    0
370
   -2
100
AcDbLine
 10
520.625
 20
-171.6
 11
671.25
 21
-171.6
  0
LINE
  5
150
100
AcDbEntity
  8
3 net-3a.net.dim+
  6
ByBlock
 62
    0
370
   -2
100
AcDbLine
 10
520.625
 20
-56.9
 11
671.25
 21
-56.9
  0
ENDBLK
  5
89
330
87
100
AcDbEntity
  8
0
100
AcDbBlockEnd
  0
BLOCK
  5
8B
330
8A
100
AcDbEntity
  8
0
100
AcDbBlockBegin
  2
*D13
 70
    1
 10
0
 20
0
  3
*D13
  1

  0
LINE
  5
151
100
AcDbEntity
  8
3 net-3a.net.dim+
  6
ByBlock
 62
    0
370
   -2
100
AcDbLine
 10
473.680909114099
 20
-280
 11
300
 21
-280
  0
MTEXT
  5
152
100
AcDbEntity
  8
3 net-3a.net.dim+
  6
CONTINUOUS
 62
    0
370
   -2
100
AcDbMText
 10
386.8404545570495
 20
-275.875
 30
0
 40
7
 41
20.22222222222265
 71
    5
 72
    1
  1
173.7
  7
standard
210
0
220
0
230
1
 50
0
 73
    2
 44
1
  0
SOLID
  5
153
100
AcDbEntity
  8
3 net-3a.net.dim+
  6
ByBlock
 62
    0
370
   -2
100
AcDbTrace
 10
473.680909114099
 20
-280
 30
0
 11
471.180909114099
 21
-280.4162846577728
 31
0
 12
471.180909114099
 22
-279.5837153422272
 32
0
 13
471.180909114099
 23
-279.5837153422272
 33
0
  0
SOLID
  5
154
100
AcDbEntity
  8
3 net-3a.net.dim+
  6
ByBlock
 62
    0
370
   -2
100
AcDbTrace
 10
300
 20
-280
 30
0
 11
302.5
 21
-279.5837153422272
 31
0
 12
302.5
 22
-280.4162846577728
 32
0
 13
302.5
 23
-280.4162846577728
 33
0
  0
LINE
  5
155
100
AcDbEntity
  8
3 net-3a.net.dim+
  6
ByBlock
 62
    0
370
   -2
100
AcDbLine
 10
473.680909114099
 20
-50.19409088590097
 11
473.680909114099
 21
-281.25
  0
LINE
  5
156
100
AcDbEntity
  8
3 net-3a.net.dim+
  6
ByBlock
 62
    0
370
   -2
100
AcDbLine
 10
300
 20
-57.525
 11
300
 21
-281.25
  0
ENDBLK
  5
8C
330
8A
100
AcDbEntity
  8
0
100
AcDbBlockEnd
  0
BLOCK
  5
8E
330
8D
100
AcDbEntity
  8
0
100
AcDbBlockBegin
  2
*D4
 70
    1
 10
0
 20
0
  3
*D4
  1

  0
LINE
  5
157
100
AcDbEntity
  8
3 net-3a.net.dim+
  6
ByBlock
 62
    0
370
   -2
100
AcDbLine
 10
290
 20
-46.449995
 11
290
 21
-61.9
  0
MTEXT
  5
158
100
AcDbEntity
  8
3 net-3a.net.dim+
  6
CONTINUOUS
 62
    0
370
   -2
100
AcDbMText
 10
285.875
 20
-45.38055055555512
 30
0
 40
7
 41
10.88888888888976
 71
    5
 72
    1
  1
5.5
  7
standard
210
0
220
0
230
1
 50
90
 73
    2
 44
1
  0
SOLID
  5
159
100
AcDbEntity
  8
3 net-3a.net.dim+
  6
ByBlock
 62
    0
370
   -2
100
AcDbTrace
 10
290
 20
-51.449995
 30
0
 11
289.5837153422272
 21
-48.949995
 31
0
 12
290.4162846577728
 22
-48.949995
 32
0
 13
290.4162846577728
 23
-48.949995
 33
0
  0
SOLID
  5
15A
100
AcDbEntity
  8
3 net-3a.net.dim+
  6
ByBlock
 62
    0
370
   -2
100
AcDbTrace
 10
290
 20
-56.9
 30
0
 11
290.4162846577728
 21
-59.4
 31
0
 12
289.5837153422272
 22
-59.4
 32
0
 13
289.5837153422272
 23
-59.4
 33
0
  0
LINE
  5
15B
100
AcDbEntity
  8
3 net-3a.net.dim+
  6
ByBlock
 62
    0
370
   -2
100
AcDbLine
 10
304.875005
 20
-51.449995
 11
288.75
 21
-51.449995
  0
LINE
  5
15C
100
AcDbEntity
  8
3 net-3a.net.dim+
  6
ByBlock
 62
    0
370
   -2
100
AcDbLine
 10
304.875005
 20
-56.9
 11
288.75
 21
-56.9
  0
ENDBLK
  5
8F
330
8D
100
AcDbEntity
  8
0
100
AcDbBlockEnd
  0
BLOCK
  5
91
330
90
100
AcDbEntity
  8
0
100
AcDbBlockBegin
  2
*D21
 70
    1
 10
0
 20
0
  3
*D21
  1

  0
LINE
  5
15D
100
AcDbEntity
  8
3 net-3a.net.dim+
  6
ByBlock
 62
    0
370
   -2
100
AcDbLine
 10
300
 20
-310
 11
520
 21
-310
  0
MTEXT
  5
15E
100
AcDbEntity
  8
3 net-3a.net.dim+
  6
CONTINUOUS
 62
    0
370
   -2
100
AcDbMText
 10
410
 20
-305.875
 30
0
 40
7
 41
21.77777777777778
 71
    5
 72
    1
  1
220.0
  7
standard
210
0
220
0
230
1
 50
0
 73
    2
 44
1
  0
SOLID
  5
15F
100
AcDbEntity
  8
3 net-3a.net.dim+
  6
ByBlock
 62
    0
370
   -2
100
AcDbTrace
 10
300
 20
-310
 30
0
 11
302.5
 21
-309.5837153422272
 31
0
 12
302.5
 22
-310.4162846577728
 32
0
 13
302.5
 23
-310.4162846577728
 33
0
  0
SOLID
  5
160
100
AcDbEntity
  8
3 net-3a.net.dim+
  6
ByBlock
 62
    0
370
   -2
100
AcDbTrace
 10
520
 20
-310
 30
0
 11
517.5
 21
-310.4162846577728
 31
0
 12
517.5
 22
-309.5837153422272
 32
0
 13
517.5
 23
-309.5837153422272
 33
0
  0
LINE
  5
161
100
AcDbEntity
  8
3 net-3a.net.dim+
  6
ByBlock
 62
    0
370
   -2
100
AcDbLine
 10
300
 20
-172.225
 11
300
 21
-311.25
  0
LINE
  5
162
100
AcDbEntity
  8
3 net-3a.net.dim+
  6
ByBlock
 62
    0
370
   -2
100
AcDbLine
 10
520
 20
-172.225
 11
520
 21
-311.25
  0
ENDBLK
  5
92
330
90
100
AcDbEntity
  8
0
100
AcDbBlockEnd
  0
BLOCK
  5
94
330
93
100
AcDbEntity
  8
0
100
AcDbBlockBegin
  2
*D29
 70
    1
 10
0
 20
0
  3
*D29
  1

  0
LINE
  5
163
100
AcDbEntity
  8
3 net-3a.net.dim+
  6
ByBlock
 62
    0
370
   -2
100
AcDbLine
 10
670
 20
0
 11
670
 21
100
  0
MTEXT
  5
164
100
AcDbEntity
  8
3 net-3a.net.dim+
  6
CONTINUOUS
 62
    0
370
   -2
100
AcDbMText
 10
665.875
 20
50
 30
0
 40
7
 41
20.22222222222222
 71
    5
 72
    1
  1
100.0
  7
standard
210
0
220
0
230
1
 50
90
 73
    2
 44
1
  0
SOLID
  5
165
100
AcDbEntity
  8
3 net-3a.net.dim+
  6
ByBlock
 62
    0
370
   -2
100
AcDbTrace
 10
670
 20
0
 30
0
 11
669.5837153422272
 21
2.5
 31
0
 12
670.4162846577728
 22
2.5
 32
0
 13
670.4162846577728
 23
2.5
 33
0
  0
SOLID
  5
166
100
AcDbEntity
  8
3 net-3a.net.dim+
  6
ByBlock
 62
    0
370
   -2
100
AcDbTrace
 10
670
 20
100
 30
0
 11
670.4162846577728
 21
97.5
 31
0
 12
669.5837153422272
 22
97.5
 32
0
 13
669.5837153422272
 23
97.5
 33
0
  0
LINE
  5
167
100
AcDbEntity
  8
3 net-3a.net.dim+
  6
ByBlock
 62
    0
370
   -2
100
AcDbLine
 10
520.625
 20
0
 11
671.25
 21
0
  0
LINE
  5
168
100
AcDbEntity
  8
3 net-3a.net.dim+
  6
ByBlock
 62
    0
370
   -2
100
AcDbLine
 10
520.625
 20
100
 11
671.25
 21
100
  0
ENDBLK
  5
95
330
93
100
AcDbEntity
  8
0
100
AcDbBlockEnd
  0
BLOCK
  5
97
330
96
100
AcDbEntity
  8
0
100
AcDbBlockBegin
  2
*D7
 70
    1
 10
0
 20
0
  3
*D7
  1

  0
LINE
  5
169
100
AcDbEntity
  8
1 drawing-1 drawing+
  6
ByBlock
 62
    0
370
   -2
100
AcDbLine
 10
100.6037036414307
 20
0.1617619031890761
 11
107.3676613207056
 21
1.974158900989101
  0
LINE
  5
16A
100
AcDbEntity
  8
1 drawing-1 drawing+
  6
ByBlock
 62
    0
370
   -2
100
AcDbLine
 10
115.3409092251425
 20
-54.83823809681093
 11
122.1048669044174
 21
-53.0258410990109
  0
LINE
  5
16B
100
AcDbEntity
  8
1 drawing-1 drawing+
  6
ByBlock
 62
    0
370
   -2
100
AcDbLine
 10
106.1602540378443
 20
1.650635094610949
 11
120.8974596215561
 21
-53.34936490538905
  0
MTEXT
  5
16C
100
AcDbEntity
  8
1 drawing-1 drawing+
  6
CONTINUOUS
 62
    0
370
   -2
100
AcDbMText
 10
117.5133008631427
 20
-24.78173634434114
 30
0
 40
7
 41
16.3333333333342
 71
    5
 72
    1
  1
56.9
  7
standard
210
0
220
0
230
1
 50
285.0000000000001
 73
    2
 44
1
  0
SOLID
  5
16D
100
AcDbEntity
  8
1 drawing-1 drawing+
  6
ByBlock
 62
    0
370
   -2
100
AcDbTrace
 10
106.1602540378443
 20
1.650635094610949
 30
0
 11
107.2094017526313
 21
-0.6564370734961251
 31
0
 12
106.4052015485699
 22
-0.871921868727318
 32
0
 13
106.4052015485699
 23
-0.871921868727318
 33
0
  0
SOLID
  5
16E
100
AcDbEntity
  8
1 drawing-1 drawing+
  6
ByBlock
 62
    0
370
   -2
100
AcDbTrace
 10
120.8974596215561
 20
-53.34936490538905
 30
0
 11
119.8483119067691
 21
-51.04229273728198
 31
0
 12
120.6525121108305
 22
-50.82680794205078
 32
0
 13
120.6525121108305
 23
-50.82680794205078
 33
0
  0
ENDBLK
  5
98
330
96
100
AcDbEntity
  8
0
100
AcDbBlockEnd
  0
BLOCK
  5
9A
330
99
100
AcDbEntity
  8
0
100
AcDbBlockBegin
  2
*D19
 70
    1
 10
0
 20
0
  3
*D19
  1

  0
LINE
  5
16F
100
AcDbEntity
  8
3 net-3a.net.dim+
  6
ByBlock
 62
    0
370
   -2
100
AcDbLine
 10
310.680909114099
 20
-220
 11
300
 21
-220
  0
MTEXT
  5
170
100
AcDbEntity
  8
3 net-3a.net.dim+
  6
CONTINUOUS
 62
    0
370
   -2
100
AcDbMText
 10
318.6947980029879
 20
-215.875
 30
0
 40
7
 41
14.77777777777778
 71
    5
 72
    1
  1
10.7
  7
standard
210
0
220
0
230
1
 50
0
 73
    2
 44
1
  0
SOLID
  5
171
100
AcDbEntity
  8
3 net-3a.net.dim+
  6
ByBlock
 62
    0
370
   -2
100
AcDbTrace
 10
310.680909114099
 20
-220
 30
0
 11
308.180909114099
 21
-220.4162846577728
 31
0
 12
308.180909114099
 22
-219.5837153422272
 32
0
 13
308.180909114099
 23
-219.5837153422272
 33
0
  0
SOLID
  5
172
100
AcDbEntity
  8
3 net-3a.net.dim+
  6
ByBlock
 62
    0
370
   -2
100
AcDbTrace
 10
300
 20
-220
 30
0
 11
302.5
 21
-219.5837153422272
 31
0
 12
302.5
 22
-220.4162846577728
 32
0
 13
302.5
 23
-220.4162846577728
 33
0
  0
LINE
  5
173
100
AcDbEntity
  8
3 net-3a.net.dim+
  6
ByBlock
 62
    0
370
   -2
100
AcDbLine
 10
310.680909114099
 20
-50.19409088590099
 11
310.680909114099
 21
-221.25
  0
LINE
  5
174
100
AcDbEntity
  8
3 net-3a.net.dim+
  6
ByBlock
 62
    0
370
   -2
100
AcDbLine
 10
300
 20
-57.525
 11
300
 21
-221.25
  0
ENDBLK
  5
9B
330
99
100
AcDbEntity
  8
0
100
AcDbBlockEnd
  0
BLOCK
  5
9D
330
9C
100
AcDbEntity
  8
0
100
AcDbBlockBegin
  2
*D3
 70
    1
 10
0
 20
0
  3
*D3
  1

  0
LINE
  5
175
100
AcDbEntity
  8
1 drawing
  6
ByBlock
 62
    0
370
   -2
100
AcDbLine
 10
-1779.765745801955
 20
-587.5591789012078
 11
-1779.765745801955
 21
-638.1841789012078
  0
LINE
  5
176
100
AcDbEntity
  8
1 drawing
  6
ByBlock
 62
    0
370
   -2
100
AcDbLine
 10
-832.3657458019551
 20
-587.5591789012078
 11
-832.3657458019551
 21
-638.1841789012078
  0
LINE
  5
177
100
AcDbEntity
  8
1 drawing
  6
ByBlock
 62
    0
370
   -2
100
AcDbLine
 10
-1779.765745801955
 20
-636.9341789012078
 11
-832.3657458019551
 21
-636.9341789012078
  0
MTEXT
  5
178
100
AcDbEntity
  8
1 drawing
  6
CONTINUOUS
 62
    0
370
   -2
100
AcDbMText
 10
-1306.065745801955
 20
-632.8091789012078
 30
0
 40
7
 41
2.333333333333659
 71
    5
 72
    1
  1
c
  7
standard
210
0
220
0
230
1
 50
0
 73
    2
 44
1
  0
SOLID
  5
179
100
AcDbEntity
  8
1 drawing
  6
ByBlock
 62
    0
370
   -2
100
AcDbTrace
 10
-1779.765745801955
 20
-636.9341789012078
 30
0
 11
-1777.265745801955
 21
-636.517894243435
 31
0
 12
-1777.265745801955
 22
-637.3504635589807
 32
0
 13
-1777.265745801955
 23
-637.3504635589807
 33
0
  0
SOLID
  5
17A
100
AcDbEntity
  8
1 drawing
  6
ByBlock
 62
    0
370
   -2
100
AcDbTrace
 10
-832.3657458019551
 20
-636.9341789012078
 30
0
 11
-834.8657458019551
 21
-637.3504635589807
 31
0
 12
-834.8657458019551
 22
-636.517894243435
 32
0
 13
-834.8657458019551
 23
-636.517894243435
 33
0
  0
ENDBLK
  5
9E
330
9C
100
AcDbEntity
  8
0
100
AcDbBlockEnd
  0
BLOCK
  5
A0
330
9F
100
AcDbEntity
  8
0
100
AcDbBlockBegin
  2
*D35
 70
    1
 10
0
 20
0
  3
*D35
  1

  0
LINE
  5
17B
100
AcDbEntity
  8
3 net-3a.net.dim+
  6
ByBlock
 62
    0
370
   -2
100
AcDbLine
 10
840
 20
-190
 11
840
 21
366.9000000000001
  0
MTEXT
  5
17C
100
AcDbEntity
  8
3 net-3a.net.dim+
  6
CONTINUOUS
 62
    0
370
   -2
100
AcDbMText
 10
835.875
 20
88.45000000000005
 30
0
 40
7
 41
21.77777777777908
 71
    5
 72
    1
  1
556.9
  7
standard
210
0
220
0
230
1
 50
90
 73
    2
 44
1
  0
SOLID
  5
17D
100
AcDbEntity
  8
3 net-3a.net.dim+
  6
ByBlock
 62
    0
370
   -2
100
AcDbTrace
 10
840
 20
-190
 30
0
 11
839.5837153422272
 21
-187.5
 31
0
 12
840.4162846577728
 22
-187.5
 32
0
 13
840.4162846577728
 23
-187.5
 33
0
  0
SOLID
  5
17E
100
AcDbEntity
  8
3 net-3a.net.dim+
  6
ByBlock
 62
    0
370
   -2
100
AcDbTrace
 10
840
 20
366.9000000000001
 30
0
 11
840.4162846577728
 21
364.4000000000001
 31
0
 12
839.5837153422272
 22
364.4000000000001
 32
0
 13
839.5837153422272
 23
364.4000000000001
 33
0
  0
LINE
  5
17F
100
AcDbEntity
  8
3 net-3a.net.dim+
  6
ByBlock
 62
    0
370
   -2
100
AcDbLine
 10
510.625
 20
-190
 11
841.25
 21
-190
  0
LINE
  5
180
100
AcDbEntity
  8
3 net-3a.net.dim+
  6
ByBlock
 62
    0
370
   -2
100
AcDbLine
 10
469.125005
 20
366.9000000000001
 11
841.25
 21
366.9000000000001
  0
ENDBLK
  5
A1
330
9F
100
AcDbEntity
  8
0
100
AcDbBlockEnd
  0
BLOCK
  5
A3
330
A2
100
AcDbEntity
  8
0
100
AcDbBlockBegin
  2
*D24
 70
    1
 10
0
 20
0
  3
*D24
  1

  0
LINE
  5
181
100
AcDbEntity
  8
3 net-3a.net.dim+
  6
ByBlock
 62
    0
370
   -2
100
AcDbLine
 10
670
 20
100
 11
670
 21
155
  0
MTEXT
  5
182
100
AcDbEntity
  8
3 net-3a.net.dim+
  6
CONTINUOUS
 62
    0
370
   -2
100
AcDbMText
 10
665.875
 20
127.5
 30
0
 40
7
 41
16.3333333333342
 71
    5
 72
    1
  1
55.0
  7
standard
210
0
220
0
230
1
 50
90
 73
    2
 44
1
  0
SOLID
  5
183
100
AcDbEntity
  8
3 net-3a.net.dim+
  6
ByBlock
 62
    0
370
   -2
100
AcDbTrace
 10
670
 20
100
 30
0
 11
669.5837153422272
 21
102.5
 31
0
 12
670.4162846577728
 22
102.5
 32
0
 13
670.4162846577728
 23
102.5
 33
0
  0
SOLID
  5
184
100
AcDbEntity
  8
3 net-3a.net.dim+
  6
ByBlock
 62
    0
370
   -2
100
AcDbTrace
 10
670
 20
155
 30
0
 11
670.4162846577728
 21
152.5
 31
0
 12
669.5837153422272
 22
152.5
 32
0
 13
669.5837153422272
 23
152.5
 33
0
  0
LINE
  5
185
100
AcDbEntity
  8
3 net-3a.net.dim+
  6
ByBlock
 62
    0
370
   -2
100
AcDbLine
 10
520.625
 20
100
 11
671.25
 21
100
  0
LINE
  5
186
100
AcDbEntity
  8
3 net-3a.net.dim+
  6
ByBlock
 62
    0
370
   -2
100
AcDbLine
 10
520.625
 20
155
 11
671.25
 21
155
  0
ENDBLK
  5
A4
330
A2
100
AcDbEntity
  8
0
100
AcDbBlockEnd
  0
BLOCK
  5
A6
330
A5
100
AcDbEntity
  8
0
100
AcDbBlockBegin
  2
*D14
 70
    1
 10
0
 20
0
  3
*D14
  1

  0
LINE
  5
187
100
AcDbEntity
  8
3 net-3a.net.dim+
  6
ByBlock
 62
    0
370
   -2
100
AcDbLine
 10
468.500005
 20
-270
 11
300
 21
-270
  0
MTEXT
  5
188
100
AcDbEntity
  8
3 net-3a.net.dim+
  6
CONTINUOUS
 62
    0
370
   -2
100
AcDbMText
 10
384.2500025
 20
-265.875
 30
0
 40
7
 41
20.22222222222309
 71
    5
 72
    1
  1
168.5
  7
standard
210
0
220
0
230
1
 50
0
 73
    2
 44
1
  0
SOLID
  5
189
100
AcDbEntity
  8
3 net-3a.net.dim+
  6
ByBlock
 62
    0
370
   -2
100
AcDbTrace
 10
468.500005
 20
-270
 30
0
 11
466.000005
 21
-270.4162846577728
 31
0
 12
466.000005
 22
-269.5837153422272
 32
0
 13
466.000005
 23
-269.5837153422272
 33
0
  0
SOLID
  5
18A
100
AcDbEntity
  8
3 net-3a.net.dim+
  6
ByBlock
 62
    0
370
   -2
100
AcDbTrace
 10
300
 20
-270
 30
0
 11
302.5
 21
-269.5837153422272
 31
0
 12
302.5
 22
-270.4162846577728
 32
0
 13
302.5
 23
-270.4162846577728
 33
0
  0
LINE
  5
18B
100
AcDbEntity
  8
3 net-3a.net.dim+
  6
ByBlock
 62
    0
370
   -2
100
AcDbLine
 10
468.500005
 20
-52.07499499999998
 11
468.500005
 21
-271.25
  0
LINE
  5
18C
100
AcDbEntity
  8
3 net-3a.net.dim+
  6
ByBlock
 62
    0
370
   -2
100
AcDbLine
 10
300
 20
-57.525
 11
300
 21
-271.25
  0
ENDBLK
  5
A7
330
A5
100
AcDbEntity
  8
0
100
AcDbBlockEnd
  0
BLOCK
  5
A9
330
A8
100
AcDbEntity
  8
0
100
AcDbBlockBegin
  2
*D38
 70
    1
 10
0
 20
0
  3
*D38
  1

  0
LINE
  5
18D
100
AcDbEntity
  8
3 net-3a.net.dim+
  6
ByBlock
 62
    0
370
   -2
100
AcDbLine
 10
432
 20
-37.83090911409892
 11
432
 21
-8.030909114098961
  0
MTEXT
  5
18E
100
AcDbEntity
  8
3 net-3a.net.dim+
  6
CONTINUOUS
 62
    0
370
   -2
100
AcDbMText
 10
427.875
 20
-22.93090911409893
 30
0
 40
7
 41
16.33333333333377
 71
    5
 72
    1
  1
29.8
  7
standard
210
0
220
0
230
1
 50
90
 73
    2
 44
1
  0
SOLID
  5
18F
100
AcDbEntity
  8
3 net-3a.net.dim+
  6
ByBlock
 62
    0
370
   -2
100
AcDbTrace
 10
432
 20
-37.83090911409892
 30
0
 11
431.5837153422272
 21
-35.33090911409892
 31
0
 12
432.4162846577728
 22
-35.33090911409892
 32
0
 13
432.4162846577728
 23
-35.33090911409892
 33
0
  0
SOLID
  5
190
100
AcDbEntity
  8
3 net-3a.net.dim+
  6
ByBlock
 62
    0
370
   -2
100
AcDbTrace
 10
432
 20
-8.030909114098961
 30
0
 11
432.4162846577728
 21
-10.53090911409896
 31
0
 12
431.5837153422272
 22
-10.53090911409896
 32
0
 13
431.5837153422272
 23
-10.53090911409896
 33
0
  0
LINE
  5
191
100
AcDbEntity
  8
3 net-3a.net.dim+
  6
ByBlock
 62
    0
370
   -2
100
AcDbLine
 10
453.9753344481605
 20
-37.83090911409892
 11
430.75
 21
-37.83090911409892
  0
LINE
  5
192
100
AcDbEntity
  8
3 net-3a.net.dim+
  6
ByBlock
 62
    0
370
   -2
100
AcDbLine
 10
453.9753344481605
 20
-8.030909114098959
 11
430.75
 21
-8.030909114098961
  0
ENDBLK
  5
AA
330
A8
100
AcDbEntity
  8
0
100
AcDbBlockEnd
  0
BLOCK
  5
AC
330
AB
100
AcDbEntity
  8
0
100
AcDbBlockBegin
  2
*D11
 70
    1
 10
0
 20
0
  3
*D11
  1

  0
LINE
  5
193
100
AcDbEntity
  8
3 net-3a.net.dim+
  6
ByBlock
 62
    0
370
   -2
100
AcDbLine
 10
300
 20
-270
 11
190
 21
-270
  0
MTEXT
  5
194
100
AcDbEntity
  8
3 net-3a.net.dim+
  6
CONTINUOUS
 62
    0
370
   -2
100
AcDbMText
 10
245
 20
-265.875
 30
0
 40
7
 41
18.66666666666666
 71
    5
 72
    1
  1
110.0
  7
standard
210
0
220
0
230
1
 50
0
 73
    2
 44
1
  0
SOLID
  5
195
100
AcDbEntity
  8
3 net-3a.net.dim+
  6
ByBlock
 62
    0
370
   -2
100
AcDbTrace
 10
300
 20
-270
 30
0
 11
297.5
 21
-270.4162846577728
 31
0
 12
297.5
 22
-269.5837153422272
 32
0
 13
297.5
 23
-269.5837153422272
 33
0
  0
SOLID
  5
196
100
AcDbEntity
  8
3 net-3a.net.dim+
  6
ByBlock
 62
    0
370
   -2
100
AcDbTrace
 10
190
 20
-270
 30
0
 11
192.5
 21
-269.5837153422272
 31
0
 12
192.5
 22
-270.4162846577728
 32
0
 13
192.5
 23
-270.4162846577728
 33
0
  0
LINE
  5
197
100
AcDbEntity
  8
3 net-3a.net.dim+
  6
ByBlock
 62
    0
370
   -2
100
AcDbLine
 10
300
 20
-270.625
 11
300
 21
-271.25
  0
LINE
  5
198
100
AcDbEntity
  8
3 net-3a.net.dim+
  6
ByBlock
 62
    0
370
   -2
100
AcDbLine
 10
190
 20
-0.625
 11
190
 21
-271.25
  0
ENDBLK
  5
AD
330
AB
100
AcDbEntity
  8
0
100
AcDbBlockEnd
  0
BLOCK
  5
AF
330
AE
100
AcDbEntity
  8
0
100
AcDbBlockBegin
  2
*D30
 70
    1
 10
0
 20
0
  3
*D30
  1

  0
LINE
  5
199
100
AcDbEntity
  8
3 net-3a.net.dim+
  6
ByBlock
 62
    0
370
   -2
100
AcDbLine
 10
800
 20
-56.9
 11
800
 21
0
  0
MTEXT
  5
19A
100
AcDbEntity
  8
3 net-3a.net.dim+
  6
CONTINUOUS
 62
    0
370
   -2
100
AcDbMText
 10
795.875
 20
-28.45
 30
0
 40
7
 41
16.3333333333342
 71
    5
 72
    1
  1
56.9
  7
standard
210
0
220
0
230
1
 50
90
 73
    2
 44
1
  0
SOLID
  5
19B
100
AcDbEntity
  8
3 net-3a.net.dim+
  6
ByBlock
 62
    0
370
   -2
100
AcDbTrace
 10
800
 20
-56.9
 30
0
 11
799.5837153422272
 21
-54.4
 31
0
 12
800.4162846577728
 22
-54.4
 32
0
 13
800.4162846577728
 23
-54.4
 33
0
  0
SOLID
  5
19C
100
AcDbEntity
  8
3 net-3a.net.dim+
  6
ByBlock
 62
    0
370
   -2
100
AcDbTrace
 10
800
 20
0
 30
0
 11
800.4162846577728
 21
-2.5
 31
0
 12
799.5837153422272
 22
-2.5
 32
0
 13
799.5837153422272
 23
-2.5
 33
0
  0
LINE
  5
19D
100
AcDbEntity
  8
3 net-3a.net.dim+
  6
ByBlock
 62
    0
370
   -2
100
AcDbLine
 10
520.625
 20
-56.9
 11
801.25
 21
-56.9
  0
LINE
  5
19E
100
AcDbEntity
  8
3 net-3a.net.dim+
  6
ByBlock
 62
    0
370
   -2
100
AcDbLine
 10
520.625
 20
0
 11
801.25
 21
0
  0
ENDBLK
  5
B0
330
AE
100
AcDbEntity
  8
0
100
AcDbBlockEnd
  0
BLOCK
  5
B2
330
B1
100
AcDbEntity
  8
0
100
AcDbBlockBegin
  2
*D28
 70
    1
 10
0
 20
0
  3
*D28
  1

  0
LINE
  5
19F
100
AcDbEntity
  8
3 net-3a.net.dim+
  6
ByBlock
 62
    0
370
   -2
100
AcDbLine
 10
680
 20
-56.9
 11
680
 21
-46.26909088590097
  0
MTEXT
  5
1A0
100
AcDbEntity
  8
3 net-3a.net.dim+
  6
CONTINUOUS
 62
    0
370
   -2
100
AcDbMText
 10
675.875
 20
-38.25520199701187
 30
0
 40
7
 41
14.77777777777821
 71
    5
 72
    1
  1
10.6
  7
standard
210
0
220
0
230
1
 50
90
 73
    2
 44
1
  0
SOLID
  5
1A1
100
AcDbEntity
  8
3 net-3a.net.dim+
  6
ByBlock
 62
    0
370
   -2
100
AcDbTrace
 10
680
 20
-56.9
 30
0
 11
679.5837153422272
 21
-54.4
 31
0
 12
680.4162846577728
 22
-54.4
 32
0
 13
680.4162846577728
 23
-54.4
 33
0
  0
SOLID
  5
1A2
100
AcDbEntity
  8
3 net-3a.net.dim+
  6
ByBlock
 62
    0
370
   -2
100
AcDbTrace
 10
680
 20
-46.26909088590097
 30
0
 11
680.4162846577728
 21
-48.76909088590097
 31
0
 12
679.5837153422272
 22
-48.76909088590097
 32
0
 13
679.5837153422272
 23
-48.76909088590097
 33
0
  0
LINE
  5
1A3
100
AcDbEntity
  8
3 net-3a.net.dim+
  6
ByBlock
 62
    0
370
   -2
100
AcDbLine
 10
520.625
 20
-56.9
 11
681.25
 21
-56.9
  0
LINE
  5
1A4
100
AcDbEntity
  8
3 net-3a.net.dim+
  6
ByBlock
 62
    0
370
   -2
100
AcDbLine
 10
513.244090885901
 20
-46.26909088590097
 11
681.25
 21
-46.26909088590097
  0
ENDBLK
  5
B3
330
B1
100
AcDbEntity
  8
0
100
AcDbBlockEnd
  0
BLOCK
  5
B5
330
B4
100
AcDbEntity
  8
0
100
AcDbBlockBegin
  2
*D34
 70
    1
 10
0
 20
0
  3
*D34
  1

  0
LINE
  5
1A5
100
AcDbEntity
  8
3 net-3a.net.dim+
  6
ByBlock
 62
    0
370
   -2
100
AcDbLine
 10
365.1003344481605
 20
-240
 11
454.6003344481605
 21
-240
  0
MTEXT
  5
1A6
100
AcDbEntity
  8
3 net-3a.net.dim+
  6
CONTINUOUS
 62
    0
370
   -2
100
AcDbMText
 10
409.8503344481605
 20
-235.875
 30
0
 40
7
 41
16.3333333333342
 71
    5
 72
    1
  1
89.5
  7
standard
210
0
220
0
230
1
 50
0
 73
    2
 44
1
  0
SOLID
  5
1A7
100
AcDbEntity
  8
3 net-3a.net.dim+
  6
ByBlock
 62
    0
370
   -2
100
AcDbTrace
 10
365.1003344481605
 20
-240
 30
0
 11
367.6003344481605
 21
-239.5837153422272
 31
0
 12
367.6003344481605
 22
-240.4162846577728
 32
0
 13
367.6003344481605
 23
-240.4162846577728
 33
0
  0
SOLID
  5
1A8
100
AcDbEntity
  8
3 net-3a.net.dim+
  6
ByBlock
 62
    0
370
   -2
100
AcDbTrace
 10
454.6003344481605
 20
-240
 30
0
 11
452.1003344481605
 21
-240.4162846577728
 31
0
 12
452.1003344481605
 22
-239.5837153422272
 32
0
 13
452.1003344481605
 23
-239.5837153422272
 33
0
  0
LINE
  5
1A9
100
AcDbEntity
  8
3 net-3a.net.dim+
  6
ByBlock
 62
    0
370
   -2
100
AcDbLine
 10
365.1003344481605
 20
-35.87500499999996
 11
365.1003344481605
 21
-241.25
  0
LINE
  5
1AA
100
AcDbEntity
  8
3 net-3a.net.dim+
  6
ByBlock
 62
    0
370
   -2
100
AcDbLine
 10
454.6003344481605
 20
-35.87500499999996
 11
454.6003344481605
 21
-241.25
  0
ENDBLK
  5
B6
330
B4
100
AcDbEntity
  8
0
100
AcDbBlockEnd
  0
BLOCK
  5
B8
330
B7
100
AcDbEntity
  8
0
100
AcDbBlockBegin
  2
*D20
 70
    1
 10
0
 20
0
  3
*D20
  1

  0
LINE
  5
1AB
100
AcDbEntity
  8
3 net-3a.net.dim+
  6
ByBlock
 62
    0
370
   -2
100
AcDbLine
 10
295
 20
-210
 11
310.500005
 21
-210
  0
MTEXT
  5
1AC
100
AcDbEntity
  8
3 net-3a.net.dim+
  6
CONTINUOUS
 62
    0
370
   -2
100
AcDbMText
 10
311.5694494444448
 20
-205.875
 30
0
 40
7
 41
10.88888888888976
 71
    5
 72
    1
  1
5.5
  7
standard
210
0
220
0
230
1
 50
0
 73
    2
 44
1
  0
SOLID
  5
1AD
100
AcDbEntity
  8
3 net-3a.net.dim+
  6
ByBlock
 62
    0
370
   -2
100
AcDbTrace
 10
300
 20
-210
 30
0
 11
297.5
 21
-210.4162846577728
 31
0
 12
297.5
 22
-209.5837153422272
 32
0
 13
297.5
 23
-209.5837153422272
 33
0
  0
SOLID
  5
1AE
100
AcDbEntity
  8
3 net-3a.net.dim+
  6
ByBlock
 62
    0
370
   -2
100
AcDbTrace
 10
305.500005
 20
-210
 30
0
 11
308.000005
 21
-209.5837153422272
 31
0
 12
308.000005
 22
-210.4162846577728
 32
0
 13
308.000005
 23
-210.4162846577728
 33
0
  0
LINE
  5
1AF
100
AcDbEntity
  8
3 net-3a.net.dim+
  6
ByBlock
 62
    0
370
   -2
100
AcDbLine
 10
300
 20
-57.525
 11
300
 21
-211.25
  0
LINE
  5
1B0
100
AcDbEntity
  8
3 net-3a.net.dim+
  6
ByBlock
 62
    0
370
   -2
100
AcDbLine
 10
305.500005
 20
-52.074995
 11
305.500005
 21
-211.25
  0
ENDBLK
  5
B9
330
B7
100
AcDbEntity
  8
0
100
AcDbBlockEnd
  0
BLOCK
  5
BB
330
BA
100
AcDbEntity
  8
0
100
AcDbBlockBegin
  2
*D41
 70
    1
 10
0
 20
0
  3
*D41
  1

  0
LINE
  5
1B1
100
AcDbEntity
  8
3 net-3a.net.dim+
  6
ByBlock
 62
    0
370
   -2
100
AcDbLine
 10
790
 20
-8.030909114098961
 11
790
 21
-56.9
  0
MTEXT
  5
1B2
100
AcDbEntity
  8
3 net-3a.net.dim+
  6
CONTINUOUS
 62
    0
370
   -2
100
AcDbMText
 10
785.875
 20
-32.46545455704948
 30
0
 40
7
 41
17.11111111111111
 71
    5
 72
    1
  1
48.9
  7
standard
210
0
220
0
230
1
 50
90
 73
    2
 44
1
  0
SOLID
  5
1B3
100
AcDbEntity
  8
3 net-3a.net.dim+
  6
ByBlock
 62
    0
370
   -2
100
AcDbTrace
 10
790
 20
-8.030909114098961
 30
0
 11
790.4162846577728
 21
-10.53090911409896
 31
0
 12
789.5837153422272
 22
-10.53090911409896
 32
0
 13
789.5837153422272
 23
-10.53090911409896
 33
0
  0
SOLID
  5
1B4
100
AcDbEntity
  8
3 net-3a.net.dim+
  6
ByBlock
 62
    0
370
   -2
100
AcDbTrace
 10
790
 20
-56.9
 30
0
 11
789.5837153422272
 21
-54.4
 31
0
 12
790.4162846577728
 22
-54.4
 32
0
 13
790.4162846577728
 23
-54.4
 33
0
  0
LINE
  5
1B5
100
AcDbEntity
  8
3 net-3a.net.dim+
  6
ByBlock
 62
    0
370
   -2
100
AcDbLine
 10
455.2253344481605
 20
-8.030909114098961
 11
791.25
 21
-8.030909114098961
  0
LINE
  5
1B6
100
AcDbEntity
  8
3 net-3a.net.dim+
  6
ByBlock
 62
    0
370
   -2
100
AcDbLine
 10
520.625
 20
-56.9
 11
791.25
 21
-56.9
  0
ENDBLK
  5
BC
330
BA
100
AcDbEntity
  8
0
100
AcDbBlockEnd
  0
BLOCK
  5
BE
330
BD
100
AcDbEntity
  8
0
100
AcDbBlockBegin
  2
*D16
 70
    1
 10
0
 20
0
  3
*D16
  1

  0
LINE
  5
1B7
100
AcDbEntity
  8
3 net-3a.net.dim+
  6
ByBlock
 62
    0
370
   -2
100
AcDbLine
 10
362.3503344481605
 20
-250
 11
300
 21
-250
  0
MTEXT
  5
1B8
100
AcDbEntity
  8
3 net-3a.net.dim+
  6
CONTINUOUS
 62
    0
370
   -2
100
AcDbMText
 10
331.1751672240803
 20
-245.875
 30
0
 40
7
 41
17.11111111111155
 71
    5
 72
    1
  1
62.4
  7
standard
210
0
220
0
230
1
 50
0
 73
    2
 44
1
  0
SOLID
  5
1B9
100
AcDbEntity
  8
3 net-3a.net.dim+
  6
ByBlock
 62
    0
370
   -2
100
AcDbTrace
 10
362.3503344481605
 20
-250
 30
0
 11
359.8503344481605
 21
-250.4162846577728
 31
0
 12
359.8503344481605
 22
-249.5837153422272
 32
0
 13
359.8503344481605
 23
-249.5837153422272
 33
0
  0
SOLID
  5
1BA
100
AcDbEntity
  8
3 net-3a.net.dim+
  6
ByBlock
 62
    0
370
   -2
100
AcDbTrace
 10
300
 20
-250
 30
0
 11
302.5
 21
-249.5837153422272
 31
0
 12
302.5
 22
-250.4162846577728
 32
0
 13
302.5
 23
-250.4162846577728
 33
0
  0
LINE
  5
1BB
100
AcDbEntity
  8
3 net-3a.net.dim+
  6
ByBlock
 62
    0
370
   -2
100
AcDbLine
 10
362.3503344481605
 20
-37.17500500000003
 11
362.3503344481605
 21
-251.25
  0
LINE
  5
1BC
100
AcDbEntity
  8
3 net-3a.net.dim+
  6
ByBlock
 62
    0
370
   -2
100
AcDbLine
 10
300
 20
-57.525
 11
300
 21
-251.25
  0
ENDBLK
  5
BF
330
BD
100
AcDbEntity
  8
0
100
AcDbBlockEnd
  0
BLOCK
  5
C1
330
C0
100
AcDbEntity
  8
0
100
AcDbBlockBegin
  2
*D25
 70
    1
 10
0
 20
0
  3
*D25
  1

  0
LINE
  5
1BD
100
AcDbEntity
  8
3 net-3a.net.dim+
  6
ByBlock
 62
    0
370
   -2
100
AcDbLine
 10
670
 20
155
 11
670
 21
210
  0
MTEXT
  5
1BE
100
AcDbEntity
  8
3 net-3a.net.dim+
  6
CONTINUOUS
 62
    0
370
   -2
100
AcDbMText
 10
665.875
 20
182.5
 30
0
 40
7
 41
16.3333333333342
 71
    5
 72
    1
  1
55.0
  7
standard
210
0
220
0
230
1
 50
90
 73
    2
 44
1
  0
SOLID
  5
1BF
100
AcDbEntity
  8
3 net-3a.net.dim+
  6
ByBlock
 62
    0
370
   -2
100
AcDbTrace
 10
670
 20
155
 30
0
 11
669.5837153422272
 21
157.5
 31
0
 12
670.4162846577728
 22
157.5
 32
0
 13
670.4162846577728
 23
157.5
 33
0
  0
SOLID
  5
1C0
100
AcDbEntity
  8
3 net-3a.net.dim+
  6
ByBlock
 62
    0
370
   -2
100
AcDbTrace
 10
670
 20
210
 30
0
 11
670.4162846577728
 21
207.5
 31
0
 12
669.5837153422272
 22
207.5
 32
0
 13
669.5837153422272
 23
207.5
 33
0
  0
LINE
  5
1C1
100
AcDbEntity
  8
3 net-3a.net.dim+
  6
ByBlock
 62
    0
370
   -2
100
AcDbLine
 10
520.625
 20
155
 11
671.25
 21
155
  0
LINE
  5
1C2
100
AcDbEntity
  8
3 net-3a.net.dim+
  6
ByBlock
 62
    0
370
   -2
100
AcDbLine
 10
520.625
 20
210
 11
671.25
 21
210
  0
ENDBLK
  5
C2
330
C0
100
AcDbEntity
  8
0
100
AcDbBlockEnd
  0
BLOCK
  5
C4
330
C3
100
AcDbEntity
  8
0
100
AcDbBlockBegin
  2
*D12
 70
    1
 10
0
 20
0
  3
*D12
  1

  0
LINE
  5
1C3
100
AcDbEntity
  8
3 net-3a.net.dim+
  6
ByBlock
 62
    0
370
   -2
100
AcDbLine
 10
491.5
 20
-290
 11
300
 21
-290
  0
MTEXT
  5
1C4
100
AcDbEntity
  8
3 net-3a.net.dim+
  6
CONTINUOUS
 62
    0
370
   -2
100
AcDbMText
 10
395.75
 20
-285.875
 30
0
 40
7
 41
18.66666666666753
 71
    5
 72
    1
  1
191.5
  7
standard
210
0
220
0
230
1
 50
0
 73
    2
 44
1
  0
SOLID
  5
1C5
100
AcDbEntity
  8
3 net-3a.net.dim+
  6
ByBlock
 62
    0
370
   -2
100
AcDbTrace
 10
491.5
 20
-290
 30
0
 11
489
 21
-290.4162846577728
 31
0
 12
489
 22
-289.5837153422272
 32
0
 13
489
 23
-289.5837153422272
 33
0
  0
SOLID
  5
1C6
100
AcDbEntity
  8
3 net-3a.net.dim+
  6
ByBlock
 62
    0
370
   -2
100
AcDbTrace
 10
300
 20
-290
 30
0
 11
302.5
 21
-289.5837153422272
 31
0
 12
302.5
 22
-290.4162846577728
 32
0
 13
302.5
 23
-290.4162846577728
 33
0
  0
LINE
  5
1C7
100
AcDbEntity
  8
3 net-3a.net.dim+
  6
ByBlock
 62
    0
370
   -2
100
AcDbLine
 10
491.5
 20
-29.07499999999998
 11
491.5
 21
-291.25
  0
LINE
  5
1C8
100
AcDbEntity
  8
3 net-3a.net.dim+
  6
ByBlock
 62
    0
370
   -2
100
AcDbLine
 10
300
 20
-57.525
 11
300
 21
-291.25
  0
ENDBLK
  5
C5
330
C3
100
AcDbEntity
  8
0
100
AcDbBlockEnd
  0
BLOCK
  5
C7
330
C6
100
AcDbEntity
  8
0
100
AcDbBlockBegin
  2
*D15
 70
    1
 10
0
 20
0
  3
*D15
  1

  0
LINE
  5
1C9
100
AcDbEntity
  8
3 net-3a.net.dim+
  6
ByBlock
 62
    0
370
   -2
100
AcDbLine
 10
365
 20
-260
 11
300
 21
-260
  0
MTEXT
  5
1CA
100
AcDbEntity
  8
3 net-3a.net.dim+
  6
CONTINUOUS
 62
    0
370
   -2
100
AcDbMText
 10
332.5
 20
-255.875
 30
0
 40
7
 41
16.3333333333342
 71
    5
 72
    1
  1
65.0
  7
standard
210
0
220
0
230
1
 50
0
 73
    2
 44
1
  0
SOLID
  5
1CB
100
AcDbEntity
  8
3 net-3a.net.dim+
  6
ByBlock
 62
    0
370
   -2
100
AcDbTrace
 10
365
 20
-260
 30
0
 11
362.5
 21
-260.4162846577728
 31
0
 12
362.5
 22
-259.5837153422272
 32
0
 13
362.5
 23
-259.5837153422272
 33
0
  0
SOLID
  5
1CC
100
AcDbEntity
  8
3 net-3a.net.dim+
  6
ByBlock
 62
    0
370
   -2
100
AcDbTrace
 10
300
 20
-260
 30
0
 11
302.5
 21
-259.5837153422272
 31
0
 12
302.5
 22
-260.4162846577728
 32
0
 13
302.5
 23
-260.4162846577728
 33
0
  0
LINE
  5
1CD
100
AcDbEntity
  8
3 net-3a.net.dim+
  6
ByBlock
 62
    0
370
   -2
100
AcDbLine
 10
365
 20
-33.625
 11
365
 21
-261.25
  0
LINE
  5
1CE
100
AcDbEntity
  8
3 net-3a.net.dim+
  6
ByBlock
 62
    0
370
   -2
100
AcDbLine
 10
300
 20
-57.625
 11
300
 21
-261.25
  0
ENDBLK
  5
C8
330
C6
100
AcDbEntity
  8
0
100
AcDbBlockEnd
  0
BLOCK
  5
CA
330
C9
100
AcDbEntity
  8
0
100
AcDbBlockBegin
  2
*D43
 70
    1
 10
0
 20
0
  3
*D43
  1

  0
LINE
  5
1CF
100
AcDbEntity
  8
3 net-3a.net.dim+
  6
ByBlock
 62
    0
370
   -2
100
AcDbLine
 10
377.7003344481605
 20
-230
 11
442.0003344481605
 21
-230
  0
MTEXT
  5
1D0
100
AcDbEntity
  8
3 net-3a.net.dim+
  6
CONTINUOUS
 62
    0
370
   -2
100
AcDbMText
 10
409.8503344481605
 20
-225.875
 30
0
 40
7
 41
17.11111111111198
 71
    5
 72
    1
  1
64.3
  7
standard
210
0
220
0
230
1
 50
0
 73
    2
 44
1
  0
SOLID
  5
1D1
100
AcDbEntity
  8
3 net-3a.net.dim+
  6
ByBlock
 62
    0
370
   -2
100
AcDbTrace
 10
377.7003344481605
 20
-230
 30
0
 11
380.2003344481605
 21
-229.5837153422272
 31
0
 12
380.2003344481605
 22
-230.4162846577728
 32
0
 13
380.2003344481605
 23
-230.4162846577728
 33
0
  0
SOLID
  5
1D2
100
AcDbEntity
  8
3 net-3a.net.dim+
  6
ByBlock
 62
    0
370
   -2
100
AcDbTrace
 10
442.0003344481605
 20
-230
 30
0
 11
439.5003344481605
 21
-230.4162846577728
 31
0
 12
439.5003344481605
 22
-229.5837153422272
 32
0
 13
439.5003344481605
 23
-229.5837153422272
 33
0
  0
LINE
  5
1D3
100
AcDbEntity
  8
3 net-3a.net.dim+
  6
ByBlock
 62
    0
370
   -2
100
AcDbLine
 10
377.7003344481605
 20
-38.54699999999995
 11
377.7003344481605
 21
-231.25
  0
LINE
  5
1D4
100
AcDbEntity
  8
3 net-3a.net.dim+
  6
ByBlock
 62
    0
370
   -2
100
AcDbLine
 10
442.0003344481605
 20
-38.54699999999995
 11
442.0003344481605
 21
-231.25
  0
ENDBLK
  5
CB
330
C9
100
AcDbEntity
  8
0
100
AcDbBlockEnd
  0
BLOCK
  5
CD
330
CC
100
AcDbEntity
  8
0
100
AcDbBlockBegin
  2
*D5
 70
    1
 10
0
 20
0
  3
*D5
  1

  0
LINE
  5
1D5
100
AcDbEntity
  8
1 drawing-1 drawing+
  6
ByBlock
 62
    0
370
   -2
100
AcDbLine
 10
0
 20
-80
 11
114.7372055837118
 21
-80
  0
MTEXT
  5
1D6
100
AcDbEntity
  8
1 drawing-1 drawing+
  6
CONTINUOUS
 62
    0
370
   -2
100
AcDbMText
 10
57.36860279185588
 20
-75.875
 30
0
 40
7
 41
19.44444444444444
 71
    5
 72
    1
  1
114.7
  7
standard
210
0
220
0
230
1
 50
0
 73
    2
 44
1
  0
SOLID
  5
1D7
100
AcDbEntity
  8
1 drawing-1 drawing+
  6
ByBlock
 62
    0
370
   -2
100
AcDbTrace
 10
0
 20
-80
 30
0
 11
2.5
 21
-79.58371534222717
 31
0
 12
2.5
 22
-80.41628465777283
 32
0
 13
2.5
 23
-80.41628465777283
 33
0
  0
SOLID
  5
1D8
100
AcDbEntity
  8
1 drawing-1 drawing+
  6
ByBlock
 62
    0
370
   -2
100
AcDbTrace
 10
114.7372055837118
 20
-80
 30
0
 11
112.2372055837118
 21
-80.41628465777283
 31
0
 12
112.2372055837118
 22
-79.58371534222717
 32
0
 13
112.2372055837118
 23
-79.58371534222717
 33
0
  0
LINE
  5
1D9
100
AcDbEntity
  8
1 drawing-1 drawing+
  6
ByBlock
 62
    0
370
   -2
100
AcDbLine
 10
-1.148106374200643e-16
 20
-55.625
 11
-2.296212748401287e-16
 21
-81.25
  0
LINE
  5
1DA
100
AcDbEntity
  8
1 drawing-1 drawing+
  6
ByBlock
 62
    0
370
   -2
100
AcDbLine
 10
114.7372055837118
 20
-55.625
 11
114.7372055837118
 21
-81.25
  0
ENDBLK
  5
CE
330
CC
100
AcDbEntity
  8
0
100
AcDbBlockEnd
  0
BLOCK
  5
D0
330
CF
100
AcDbEntity
  8
0
100
AcDbBlockBegin
  2
*D42
 70
    1
 10
0
 20
0
  3
*D42
  1

  0
LINE
  5
1DB
100
AcDbEntity
  8
3 net-3a.net.dim+
  6
ByBlock
 62
    0
370
   -2
100
AcDbLine
 10
770
 20
-9.13090911409898
 11
770
 21
-56.9
  0
MTEXT
  5
1DC
100
AcDbEntity
  8
3 net-3a.net.dim+
  6
CONTINUOUS
 62
    0
370
   -2
100
AcDbMText
 10
765.875
 20
-33.01545455704949
 30
0
 40
7
 41
17.11111111111111
 71
    5
 72
    1
  1
47.8
  7
standard
210
0
220
0
230
1
 50
90
 73
    2
 44
1
  0
SOLID
  5
1DD
100
AcDbEntity
  8
3 net-3a.net.dim+
  6
ByBlock
 62
    0
370
   -2
100
AcDbTrace
 10
770
 20
-9.13090911409898
 30
0
 11
770.4162846577728
 21
-11.63090911409898
 31
0
 12
769.5837153422272
 22
-11.63090911409898
 32
0
 13
769.5837153422272
 23
-11.63090911409898
 33
0
  0
SOLID
  5
1DE
100
AcDbEntity
  8
3 net-3a.net.dim+
  6
ByBlock
 62
    0
370
   -2
100
AcDbTrace
 10
770
 20
-56.9
 30
0
 11
769.5837153422272
 21
-54.4
 31
0
 12
770.4162846577728
 22
-54.4
 32
0
 13
770.4162846577728
 23
-54.4
 33
0
  0
LINE
  5
1DF
100
AcDbEntity
  8
3 net-3a.net.dim+
  6
ByBlock
 62
    0
370
   -2
100
AcDbLine
 10
459.4753344481605
 20
-9.13090911409898
 11
771.25
 21
-9.13090911409898
  0
LINE
  5
1E0
100
AcDbEntity
  8
3 net-3a.net.dim+
  6
ByBlock
 62
    0
370
   -2
100
AcDbLine
 10
520.625
 20
-56.9
 11
771.25
 21
-56.9
  0
ENDBLK
  5
D1
330
CF
100
AcDbEntity
  8
0
100
AcDbBlockEnd
  0
BLOCK
  5
D3
330
D2
100
AcDbEntity
  8
0
100
AcDbBlockBegin
  2
*D39
 70
    1
 10
0
 20
0
  3
*D39
  1

  0
LINE
  5
1E1
100
AcDbEntity
  8
3 net-3a.net.dim+
  6
ByBlock
 62
    0
370
   -2
100
AcDbLine
 10
392.2932607402383
 20
-9.130909114098984
 11
392.2932607402383
 21
-37.63090911409898
  0
MTEXT
  5
1E2
100
AcDbEntity
  8
3 net-3a.net.dim+
  6
CONTINUOUS
 62
    0
370
   -2
100
AcDbMText
 10
388.1682607402383
 20
-23.38090911409898
 30
0
 40
7
 41
16.33333333333377
 71
    5
 72
    1
  1
28.5
  7
standard
210
0
220
0
230
1
 50
90
 73
    2
 44
1
  0
SOLID
  5
1E3
100
AcDbEntity
  8
3 net-3a.net.dim+
  6
ByBlock
 62
    0
370
   -2
100
AcDbTrace
 10
392.2932607402383
 20
-9.130909114098984
 30
0
 11
392.7095453980111
 21
-11.63090911409898
 31
0
 12
391.8769760824654
 22
-11.63090911409898
 32
0
 13
391.8769760824654
 23
-11.63090911409898
 33
0
  0
SOLID
  5
1E4
100
AcDbEntity
  8
3 net-3a.net.dim+
  6
ByBlock
 62
    0
370
   -2
100
AcDbTrace
 10
392.2932607402383
 20
-37.63090911409898
 30
0
 11
391.8769760824654
 21
-35.13090911409898
 31
0
 12
392.7095453980111
 22
-35.13090911409898
 32
0
 13
392.7095453980111
 23
-35.13090911409898
 33
0
  0
LINE
  5
1E5
100
AcDbEntity
  8
3 net-3a.net.dim+
  6
ByBlock
 62
    0
370
   -2
100
AcDbLine
 10
364.4753344481605
 20
-9.130909114098982
 11
393.5432607402383
 21
-9.130909114098984
  0
LINE
  5
1E6
100
AcDbEntity
  8
3 net-3a.net.dim+
  6
ByBlock
 62
    0
370
   -2
100
AcDbLine
 10
364.4753344481605
 20
-37.63090911409898
 11
393.5432607402383
 21
-37.63090911409898
  0
ENDBLK
  5
D4
330
D2
100
AcDbEntity
  8
0
100
AcDbBlockEnd
  0
BLOCK
  5
D6
330
D5
100
AcDbEntity
  8
0
100
AcDbBlockBegin
  2
bh1750
 70
    0
 10
0
 20
0
  3
bh1750
  1

  0
LWPOLYLINE
  5
1E7
100
AcDbEntity
  8
3 net
  6
ByLayer
 62
  256
370
   -1
100
AcDbPolyline
 90
    4
 70
    1
 43
0
 10
-6.75
 20
-9.199999999999818
 10
6.75
 20
-9.199999999999818
 10
6.75
 20
9.199999999999825
 10
-6.75
 20
9.199999999999825
  0
LINE
  5
1E8
100
AcDbEntity
  8
3 net
  6
ByLayer
 62
  256
370
   -1
100
AcDbLine
 10
0
 20
-9.199999999999818
 11
5.5
 21
-9.199999999999818
  0
LINE
  5
1E9
100
AcDbEntity
  8
3 net
  6
ByLayer
 62
  256
370
   -1
100
AcDbLine
 10
0
 20
-9.199999999999818
 11
5.5
 21
-9.199999999999818
  0
LINE
  5
1EA
100
AcDbEntity
  8
3 net
  6
ByLayer
 62
  256
370
   -1
100
AcDbLine
 10
0
 20
-9.199999999999818
 11
5.5
 21
-9.199999999999818
  0
LINE
  5
1EB
100
AcDbEntity
  8
3 net
  6
ByLayer
 62
  256
370
   -1
100
AcDbLine
 10
0
 20
-9.199999999999818
 11
5.5
 21
-9.199999999999818
  0
LINE
  5
1EC
100
AcDbEntity
  8
3 net
  6
ByLayer
 62
  256
370
   -1
100
AcDbLine
 10
-6.75
 20
-7.199999999999818
 11
6.75
 21
-7.199999999999818
  0
LWPOLYLINE
  5
1ED
100
AcDbEntity
  8
3 net
  6
ByLayer
 62
  256
370
   -1
100
AcDbPolyline
 90
    5
 70
    0
 43
0
 10
-1.300000000000011
 20
1.791007890658875
 10
1.300000000000011
 20
1.791007890658875
 10
1.300000000000011
 20
3.391007890658869
 10
-1.300000000000011
 20
3.391007890658869
 10
-1.300000000000011
 20
1.791007890658875
  0
POINT
  5
1EE
100
AcDbEntity
  8
3 net
  6
ByLayer
 62
  256
370
   -2
100
AcDbPoint
 10
0
 20
2.591007890658872
  0
ENDBLK
  5
D7
330
D5
100
AcDbEntity
  8
0
100
AcDbBlockEnd
  0
BLOCK
  5
D9
330
D8
100
AcDbEntity
  8
0
100
AcDbBlockBegin
  2
dma45
 70
    0
 10
0
 20
0
  3
dma45
  1

  0
CIRCLE
  5
1EF
100
AcDbEntity
  8
3 net
  6
ByLayer
 62
  256
370
   -1
100
AcDbCircle
 10
0
 20
0
 40
20
  0
CIRCLE
  5
1F0
100
AcDbEntity
  8
3 net
  6
ByLayer
 62
  256
370
   -1
100
AcDbCircle
 10
-17.81909088590101
 20
17.819090885901
 40
3.3
  0
CIRCLE
  5
1F1
100
AcDbEntity
  8
3 net
  6
ByLayer
 62
  256
370
   -1
100
AcDbCircle
 10
-17.81909088590101
 20
-17.81909088590099
 40
3.3
  0
CIRCLE
  5
1F2
100
AcDbEntity
  8
3 net
  6
ByLayer
 62
  256
370
   -1
100
AcDbCircle
 10
17.81909088590101
 20
-17.81909088590099
 40
3.3
  0
CIRCLE
  5
1F3
100
AcDbEntity
  8
3 net
  6
ByLayer
 62
  256
370
   -1
100
AcDbCircle
 10
17.81909088590101
 20
17.819090885901
 40
3.3
  0
LWPOLYLINE
  5
1F4
100
AcDbEntity
  8
3 net
  6
ByLayer
 62
  256
370
   -1
100
AcDbPolyline
 90
    5
 70
    0
 43
0
 10
-22.99999500000001
 20
-22.999995
 10
22.99999500000001
 20
-22.999995
 10
22.99999500000001
 20
22.999995
 10
-22.99999500000001
 20
22.999995
 10
-22.99999500000001
 20
-22.999995
  0
POINT
  5
1F5
100
AcDbEntity
  8
3 net
  6
ByLayer
 62
  256
370
   -2
100
AcDbPoint
 10
0
 20
0
  0
ENDBLK
  5
DA
330
D8
100
AcDbEntity
  8
0
100
AcDbBlockEnd
  0
BLOCK
  5
DC
330
DB
100
AcDbEntity
  8
0
100
AcDbBlockBegin
  2
sdd1322
 70
    0
 10
0
 20
0
  3
sdd1322
  1

  0
LINE
  5
1F6
100
AcDbEntity
  8
3 net
  6
ByLayer
 62
  256
370
   -1
100
AcDbLine
 10
-44.89966555183952
 20
14.94983277591973
 11
44.60033444816048
 21
14.94983277591973
  0
LINE
  5
1F7
100
AcDbEntity
  8
3 net
  6
ByLayer
 62
  256
370
   -1
100
AcDbLine
 10
-44.89966555183952
 20
-14.85016722408022
 11
-44.89966555183952
 21
14.94983277591973
  0
LINE
  5
1F8
100
AcDbEntity
  8
3 net
  6
ByLayer
 62
  256
370
   -1
100
AcDbLine
 10
44.60033444816048
 20
-14.85016722408022
 11
44.60033444816048
 21
14.94983277591973
  0
LINE
  5
1F9
100
AcDbEntity
  8
3 net
  6
ByLayer
 62
  256
370
   -1
100
AcDbLine
 10
-44.89966555183952
 20
-14.85016722408022
 11
-32.2996655518395
 21
-14.85016722408022
  0
LINE
  5
1FA
100
AcDbEntity
  8
3 net
  6
ByLayer
 62
  256
370
   -1
100
AcDbLine
 10
32.00033444816052
 20
-14.85016722408022
 11
44.60033444816048
 21
-14.85016722408022
  0
LINE
  5
1FB
100
AcDbEntity
  8
3 net
  6
ByLayer
 62
  256
370
   -1
100
AcDbLine
 10
-31.14966555183952
 20
-15.85016722408028
 11
30.85033444816048
 21
-15.85016722408028
  0
LINE
  5
1FC
100
AcDbEntity
  8
3 net
  6
ByLayer
 62
  256
370
   -1
100
AcDbLine
 10
-32.2996655518395
 20
-14.85016722408022
 11
-31.14966555183952
 21
-15.85016722408028
  0
LINE
  5
1FD
100
AcDbEntity
  8
3 net
  6
ByLayer
 62
  256
370
   -1
100
AcDbLine
 10
30.85033444816048
 20
-15.85016722408028
 11
32.00033444816052
 21
-14.85016722408022
  0
CIRCLE
  5
1FE
100
AcDbEntity
  8
3 net
  6
ByLayer
 62
  256
370
   -1
100
AcDbCircle
 10
-47.64966555183952
 20
13.84983277591971
 40
1.5
  0
CIRCLE
  5
1FF
100
AcDbEntity
  8
3 net
  6
ByLayer
 62
  256
370
   -1
100
AcDbCircle
 10
-47.64966555183952
 20
-14.65016722408029
 40
1.5
  0
CIRCLE
  5
200
100
AcDbEntity
  8
3 net
  6
ByLayer
 62
  256
370
   -1
100
AcDbCircle
 10
47.35033444816048
 20
-14.65016722408029
 40
1.5
  0
CIRCLE
  5
201
100
AcDbEntity
  8
3 net
  6
ByLayer
 62
  256
370
   -1
100
AcDbCircle
 10
47.35033444816048
 20
13.84983277591971
 40
1.5
  0
POINT
  5
202
100
AcDbEntity
  8
3 net
  6
ByLayer
 62
  256
370
   -1
100
AcDbPoint
 10
0
 20
0
  0
LINE
  5
203
100
AcDbEntity
  8
3 net
  6
ByLayer
 62
  256
370
   -1
100
AcDbLine
 10
44.60033444816048
 20
14.94983277591973
 11
38.2003344481605
 21
14.94983277591973
  0
LINE
  5
204
100
AcDbEntity
  8
3 net
  6
ByLayer
 62
  256
370
   -1
100
AcDbLine
 10
38.2003344481605
 20
11.94983277591973
 11
-40.59966555183951
 21
11.94983277591973
  0
LINE
  5
205
100
AcDbEntity
  8
3 net
  6
ByLayer
 62
  256
370
   -1
100
AcDbLine
 10
-40.59966555183951
 20
11.94983277591973
 11
-40.59966555183951
 21
-9.250167224080272
  0
LINE
  5
206
100
AcDbEntity
  8
3 net
  6
ByLayer
 62
  256
370
   -1
100
AcDbLine
 10
38.2003344481605
 20
11.94983277591973
 11
38.2003344481605
 21
-9.250167224080272
  0
LINE
  5
207
100
AcDbEntity
  8
3 net
  6
ByLayer
 62
  256
370
   -1
100
AcDbLine
 10
38.2003344481605
 20
-9.250167224080272
 11
-40.59966555183951
 21
-9.250167224080272
  0
LINE
  5
208
100
AcDbEntity
  8
3 net
  6
DOT2
 62
  256
370
   -1
100
AcDbLine
 10
47.3503
 20
13.8498
 11
50.6003
 21
13.8498
  0
LINE
  5
209
100
AcDbEntity
  8
3 net
  6
DOT2
 62
  256
370
   -1
100
AcDbLine
 10
-44.89966555183952
 20
14.94983277591973
 11
-44.89966555183952
 21
16.34983277591973
  0
LINE
  5
20A
100
AcDbEntity
  8
3 net
  6
DOT2
 62
  256
370
   -1
100
AcDbLine
 10
-44.89966555183952
 20
16.34983277591973
 11
-44.89966555183952
 21
11.94983277591973
  0
LINE
  5
20B
100
AcDbEntity
  8
3 net
  6
DOT2
 62
  256
370
   -1
100
AcDbLine
 10
50.6003
 20
13.8498
 11
-49.8997
 21
13.8498
  0
LINE
  5
20C
100
AcDbEntity
  8
3 net
  6
DOT2
 62
  256
370
   -1
100
AcDbLine
 10
38.2003
 20
14.9498
 11
38.2003
 21
-18.5502
  0
ENDBLK
  5
DD
330
DB
100
AcDbEntity
  8
0
100
AcDbBlockEnd
  0
BLOCK
  5
DF
330
DE
100
AcDbEntity
  8
0
100
AcDbBlockBegin
  2
rotary encoder
 70
    0
 10
0
 20
0
  3
rotary encoder
  1

  0
CIRCLE
  5
20D
100
AcDbEntity
  8
3 net
  6
ByLayer
 62
  256
370
   -2
100
AcDbCircle
 10
0
 20
0
 40
3.4
  0
POINT
  5
20E
100
AcDbEntity
  8
3 net
  6
ByLayer
 62
  256
370
   -2
100
AcDbPoint
 10
0
 20
0
  0
ENDBLK
  5
E0
330
DE
100
AcDbEntity
  8
0
100
AcDbBlockEnd
  0
BLOCK
  5
E2
330
E1
100
AcDbEntity
  8
0
100
AcDbBlockBegin
  2
button
 70
    0
 10
0
 20
0
  3
button
  1

  0
CIRCLE
  5
20F
100
AcDbEntity
  8
3 net
  6
ByLayer
 62
  256
370
   -1
100
AcDbCircle
 10
9.184850993605136e-17
 20
0
 40
6
  0
ENDBLK
  5
E3
330
E1
100
AcDbEntity
  8
0
100
AcDbBlockEnd
  0
BLOCK
  5
E5
330
E4
100
AcDbEntity
  8
0
100
AcDbBlockBegin
  2
rotary button
 70
    0
 10
0
 20
0
  3
rotary button
  1

  0
CIRCLE
  5
210
100
AcDbEntity
  8
3 net
  6
ByLayer
 62
  256
370
   -2
100
AcDbCircle
 10
0
 20
0
 40
15
  0
POINT
  5
211
100
AcDbEntity
  8
3 net
  6
ByLayer
 62
  256
370
   -2
100
AcDbPoint
 10
0
 20
0
  0
ENDBLK
  5
E6
330
E4
100
AcDbEntity
  8
0
100
AcDbBlockEnd
  0
ENDSEC
  0
SECTION
  2
ENTITIES
  0
IMAGE
  5
214
100
AcDbEntity
  8
5.templates
  6
ByLayer
 62
  256
370
   -1
100
AcDbRasterImage
 10
1400
 20
1000
 30
0
 11
0.05601125273423871
 21
0
 31
0
 12
3.429700068860944e-18
 22
0.05601125273423881
 32
0
 13
679
 23
667
340
212
 70
    1
280
    0
281
   50
282
   50
283
    0
360
213
  0
IMAGE
  5
217
100
AcDbEntity
  8
5.templates
  6
ByLayer
 62
  256
370
   -1
100
AcDbRasterImage
 10
1000
 20
1000
 30
0
 11
0.04338568006388076
 21
0
 31
0
 12
2.656606710953135e-18
 22
0.04338568006388076
 32
0
 13
800
 23
800
340
215
 70
    1
280
    0
281
   50
282
   50
283
    0
360
216
  0
IMAGE
  5
21A
100
AcDbEntity
  8
5.templates
  6
ByLayer
 62
  256
370
   -2
100
AcDbRasterImage
 10
1100
 20
1000
 30
0
 11
0.06704988158440571
 21
0
 31
0
 12
4.105621143277577e-18
 22
0.06704988158440656
 32
0
 13
522
 23
522
340
218
 70
    1
280
    0
281
   50
282
   50
283
    0
360
219
  0
IMAGE
  5
21D
100
AcDbEntity
  8
5.templates
  6
ByLayer
 62
  256
370
   -2
100
AcDbRasterImage
 10
1200
 20
1000
 30
0
 11
0.03765345425387968
 21
0
 31
0
 12
2.305609111442752e-18
 22
0.03765345425387968
 32
0
 13
960
 23
960
340
21B
 70
    1
280
    0
281
   50
282
   50
283
    0
360
21C
  0
IMAGE
  5
220
100
AcDbEntity
  8
5.templates
  6
ByLayer
 62
  256
370
   -2
100
AcDbRasterImage
 10
1300
 20
1000
 30
0
 11
0.04945964514027096
 21
0
 31
0
 12
3.028529805399839e-18
 22
0.04945964514027106
 32
0
 13
470
 23
761
340
21E
 70
    1
280
    0
281
   50
282
   50
283
    0
360
21F
  0
IMAGE
  5
223
100
AcDbEntity
  8
5.templates
  6
ByLayer
 62
  256
370
   -2
100
AcDbRasterImage
 10
1500
 20
1000
 30
0
 11
0.09158380650209148
 21
0
 31
0
 12
5.607890774325844e-18
 22
0.09158380650209143
 32
0
 13
679
 23
408
340
221
 70
    1
280
    0
281
   50
282
   50
283
    0
360
222
  0
IMAGE
  5
226
100
AcDbEntity
  8
4b.helper
  6
ByLayer
 62
  256
370
   -1
100
AcDbRasterImage
 10
0
 20
0
 30
0
 11
1
 21
0
 31
0
 12
6.123233995736766e-17
 22
1
 32
0
 13
1
 23
1
340
224
 70
    1
280
    0
281
   50
282
   50
283
    0
360
225
  0
MTEXT
  5
227
100
AcDbEntity
  8
1 drawing
  6
ByLayer
 62
  256
370
   -1
100
AcDbMText
 10
-891.6666666666697
 20
320
 30
0
 40
20
 41
758.8965083293947
 71
    1
 72
    1
  1
a = 100, b = 56.94, c = 114.74, d = 55, epsilon = 75.00
  7
standard
210
0
220
0
230
1
 50
0
 73
    2
 44
1
  0
LWPOLYLINE
  5
228
100
AcDbEntity
  8
1 drawing
  6
ByLayer
 62
  256
370
   -1
100
AcDbPolyline
 90
    5
 70
    0
 43
0
 10
-832.3657458019551
 20
-586.9341789012078
 10
-1779.765745801955
 20
-586.9341789012078
 10
-1779.765745801955
 20
-36.93417890120787
 10
-979.7657458019551
 20
-36.93417890120787
 10
-832.39418152058
 20
-586.9323443902033
  0
DIMENSION
  5
229
100
AcDbEntity
  8
1 drawing
  6
ByLayer
 62
  256
370
   -1
100
AcDbDimension
  2
*D1
 10
-979.7657458019551
 20
63.06582109879213
 30
0
 11
-1379.765745801955
 21
67.19082109879213
 31
0
 70
   32
  1
a
 71
    5
  3
Standard
 53
0
210
0
220
0
230
1
100
AcDbAlignedDimension
 13
-1779.765745801955
 23
-36.93417890120787
 33
0
 14
-979.7657458019551
 24
-36.93417890120787
 34
0
100
AcDbRotatedDimension
  0
DIMENSION
  5
22A
100
AcDbEntity
  8
1 drawing
  6
ByLayer
 62
  256
370
   -1
100
AcDbDimension
  2
*D2
 10
-1879.765745801955
 20
-36.93417890120793
 30
0
 11
-1883.890745801955
 21
-311.9341789012078
 31
0
 70
   33
  1
d
 71
    5
  3
Standard
 53
0
210
0
220
0
230
1
100
AcDbAlignedDimension
 13
-1779.765745801955
 23
-586.9341789012078
 33
0
 14
-1779.765745801955
 24
-36.93417890120787
 34
0
  0
DIMENSION
  5
22B
100
AcDbEntity
  8
1 drawing
  6
ByLayer
 62
  256
370
   -1
100
AcDbDimension
  2
*D3
 10
-832.3657458019551
 20
-636.9341789012078
 30
0
 11
-1306.065745801955
 21
-632.8091789012078
 31
0
 70
   33
  1
c
 71
    5
  3
Standard
 53
0
210
0
220
0
230
1
100
AcDbAlignedDimension
 13
-1779.765745801955
 23
-586.9341789012078
 33
0
 14
-832.3657458019551
 24
-586.9341789012078
 34
0
  0
LINE
  5
22C
100
AcDbEntity
  8
4b.helper
  6
ByLayer
 62
  256
370
   -1
100
AcDbLine
 10
520
 20
0
 11
300
 21
-56.9
  0
LINE
  5
22D
100
AcDbEntity
  8
4b.helper
  6
ByLayer
 62
  256
370
   -1
100
AcDbLine
 10
300
 20
-56.9
 11
300
 21
0
  0
LINE
  5
22E
100
AcDbEntity
  8
4b.helper
  6
ByLayer
 62
  256
370
   -1
100
AcDbLine
 10
300
 20
0
 11
520
 21
-56.90000000000001
  0
DIMENSION
  5
22F
100
AcDbEntity
  8
3 net-3a.net.dim+
  6
ByLayer
 62
  256
370
   -1
100
AcDbDimension
  2
*D4
 10
290
 20
-56.9
 30
0
 11
285.875
 21
-54.1749975
 31
0
 70
   32
 71
    5
 72
    0
  3
Standard
 53
0
210
0
220
0
230
1
100
AcDbAlignedDimension
 13
305.500005
 23
-51.449995
 33
0
 14
305.500005
 24
-56.9
 34
0
 50
90
100
AcDbRotatedDimension
  0
LINE
  5
230
100
AcDbEntity
  8
4b.helper
  6
ByLayer
 62
  256
370
   -1
100
AcDbLine
 10
300
 20
0
 11
300
 21
10
  0
POINT
  5
231
100
AcDbEntity
  8
4b.helper
  6
ByLayer
 62
  256
370
   -1
100
AcDbPoint
 10
123.4975651461897
 20
202.3117655999663
  0
POINT
  5
232
100
AcDbEntity
  8
4b.helper
  6
ByLayer
 62
  256
370
   -1
100
AcDbPoint
 10
429.1812266559937
 20
630.3487203656667
  0
LINE
  5
233
100
AcDbEntity
  8
4b.helper
  6
DOT2
 62
  256
370
   -1
100
AcDbLine
 10
328.5
 20
-528.45
 11
328.5
 21
471.55
  0
INSERT
  5
234
100
AcDbEntity
  8
5.templates
  6
ByLayer
 62
  256
370
   -2
100
AcDbBlockReference
  2
rotary encoder
 10
1117.50001909353
 20
993.2
 30
0
 41
1
 42
1
 43
0
 50
0
 70
    1
 71
    1
 44
0
 45
0
  0
INSERT
  5
235
100
AcDbEntity
  8
5.templates
  6
ByLayer
 62
  256
370
   -2
100
AcDbBlockReference
  2
dma45
 10
1310
 20
970
 30
0
 41
1
 42
1
 43
0
 50
0
 70
    1
 71
    1
 44
1
 45
1
  0
INSERT
  5
236
100
AcDbEntity
  8
5.templates
  6
ByLayer
 62
  256
370
   -2
100
AcDbBlockReference
  2
sdd1322
 10
1220
 20
970
 30
0
 41
1
 42
1
 43
0
 50
0
 70
    1
 71
    1
 44
1
 45
1
  0
INSERT
  5
237
100
AcDbEntity
  8
5.templates
  6
ByLayer
 62
  256
370
   -2
100
AcDbBlockReference
  2
rotary button
 10
1530
 20
980
 30
0
 41
1
 42
1
 43
0
 50
0
 70
    1
 71
    1
 44
0
 45
0
  0
LWPOLYLINE
  5
238
100
AcDbEntity
  8
5.templates
  6
ByLayer
 62
  256
370
   -1
100
AcDbPolyline
 90
    5
 70
    0
 43
0
 10
1010.448905441948
 20
1019.768441426138
 10
1013.248905441948
 20
1019.768441426138
 10
1013.248905441948
 20
1021.468441426138
 10
1010.448905441948
 20
1021.468441426138
 10
1010.448905441948
 20
1019.768441426138
  0
LWPOLYLINE
  5
239
100
AcDbEntity
  8
5.templates
  6
ByLayer
 62
  256
370
   -1
100
AcDbPolyline
 90
    4
 70
    1
 43
0
 10
1005.358025850101
 20
1008.777433535479
 10
1018.858025850101
 20
1008.777433535479
 10
1018.858025850101
 20
1027.177433535478
 10
1005.358025850101
 20
1027.177433535478
  0
INSERT
  5
23A
100
AcDbEntity
  8
5.templates
  6
ByLayer
 62
  256
370
   -2
100
AcDbBlockReference
  2
bh1750
 10
1016
 20
987
 30
0
 41
1
 42
1
 43
0
 50
0
 70
    1
 71
    1
 44
1
 45
1
  0
DIMENSION
  5
23B
100
AcDbEntity
  8
1 drawing-1 drawing+
  6
ByLayer
 62
  256
370
   -1
100
AcDbDimension
  2
*D5
 10
114.7372055837118
 20
-80
 30
0
 11
57.36860279185588
 21
-75.875
 31
0
 70
   32
 71
    5
 72
    0
  3
Standard
 53
0
210
0
220
0
230
1
100
AcDbAlignedDimension
 13
0
 23
-55
 33
0
 14
114.7372055837118
 24
-55
 34
0
100
AcDbRotatedDimension
  0
DIMENSION
  5
23C
100
AcDbEntity
  8
1 drawing-1 drawing+
  6
ByLayer
 62
  256
370
   -1
100
AcDbDimension
  2
*D6
 10
100
 20
-70
 30
0
 11
50
 21
-65.875
 31
0
 70
   32
 71
    5
 72
    0
  3
Standard
 53
0
210
0
220
0
230
1
100
AcDbAlignedDimension
 13
0
 23
0
 33
0
 14
100
 24
0
 34
0
100
AcDbRotatedDimension
  0
DIMENSION
  5
23D
100
AcDbEntity
  8
1 drawing-1 drawing+
  6
ByLayer
 62
  256
370
   -1
100
AcDbDimension
  2
*D7
 10
120.8974596215561
 20
-53.34936490538905
 30
0
 11
117.5133008631427
 21
-24.78173634434114
 31
0
 70
   33
 71
    5
 72
    0
  3
Standard
 53
0
210
0
220
0
230
1
100
AcDbAlignedDimension
 13
100
 23
0
 33
0
 14
114.7372055837118
 24
-55
 34
0
  0
TEXT
  5
23E
100
AcDbEntity
  8
1 drawing-1 drawing+
  6
ByLayer
 62
  256
370
   -1
100
AcDbText
 10
20
 20
1
 30
0
 40
10
  1
a
 50
0
 41
1
 51
0
  7
standard
 71
    0
210
0
220
0
230
1
100
AcDbText
  0
TEXT
  5
23F
100
AcDbEntity
  8
1 drawing-1 drawing+
  6
ByLayer
 62
  256
370
   -1
100
AcDbText
 10
106
 20
-50
 30
0
 40
10
  1
b
 50
0
 41
1
 51
0
  7
standard
 71
    0
210
0
220
0
230
1
100
AcDbText
  0
TEXT
  5
240
100
AcDbEntity
  8
1 drawing-1 drawing+
  6
ByLayer
 62
  256
370
   -1
100
AcDbText
 10
1
 20
-31
 30
0
 40
10
  1
d
 50
0
 41
1
 51
0
  7
standard
 71
    0
210
0
220
0
230
1
100
AcDbText
  0
TEXT
  5
241
100
AcDbEntity
  8
1 drawing-1 drawing+
  6
ByLayer
 62
  256
370
   -1
100
AcDbText
 10
11
 20
-54
 30
0
 40
10
  1
c
 50
0
 41
1
 51
0
  7
standard
 71
    0
210
0
220
0
230
1
100
AcDbText
  0
DIMENSION
  5
242
100
AcDbEntity
  8
1 drawing-1 drawing+
  6
ByLayer
 62
  256
370
   -1
100
AcDbDimension
  2
*D8
 10
-5
 20
-55
 30
0
 11
-9.124999999999998
 21
-27.5
 31
0
 70
   32
 71
    5
 72
    0
  3
Standard
 53
0
210
0
220
0
230
1
100
AcDbAlignedDimension
 13
0
 23
0
 33
0
 14
-2.032046680001139e-16
 24
-55
 34
0
 50
90
100
AcDbRotatedDimension
  0
DIMENSION
  5
243
100
AcDbEntity
  8
1 drawing-1 drawing+
  6
ByLayer
 62
  256
370
   -1
100
AcDbDimension
  2
*D9
 10
0
 20
-55
 30
0
 11
0
 21
0
 31
0
 70
   34
 71
    5
 72
    0
  3
Standard
 53
0
210
0
220
0
230
1
100
AcDb2LineAngularDimension
 13
114.737
 23
-55
 33
0
 14
100
 24
0
 34
0
 15
114.737
 25
-55
 35
0
 16
90
 26
-50
 36
0
  0
TEXT
  5
244
100
AcDbEntity
  8
1 drawing
  6
ByLayer
 62
  256
370
   -1
100
AcDbText
 10
0
 20
0
 30
0
 40
2
  1
a
 50
0
 41
1
 51
0
  7
STANDARD
 71
    0
210
0
220
0
230
1
100
AcDbText
  0
TEXT
  5
245
100
AcDbEntity
  8
1 drawing
  6
ByLayer
 62
  256
370
   -1
100
AcDbText
 10
100
 20
0
 30
0
 40
2
  1
a
 50
0
 41
1
 51
0
  7
STANDARD
 71
    0
210
0
220
0
230
1
100
AcDbText
  0
LINE
  5
246
100
AcDbEntity
  8
1 drawing
  6
ByLayer
 62
  256
370
   35
100
AcDbLine
 10
0
 20
0
 11
100
 21
0
  0
LINE
  5
247
100
AcDbEntity
  8
1 drawing
  6
ByLayer
 62
  256
370
   35
100
AcDbLine
 10
100
 20
0
 11
114.737
 21
-55
  0
LINE
  5
248
100
AcDbEntity
  8
1 drawing
  6
ByLayer
 62
  256
370
   35
100
AcDbLine
 10
0
 20
-55
 11
0
 21
0
  0
LINE
  5
249
100
AcDbEntity
  8
1 drawing
  6
ByLayer
 62
  256
370
   35
100
AcDbLine
 10
0
 20
-55
 11
114.737
 21
-55
  0
POINT
  5
24A
100
AcDbEntity
  8
3 net
  6
ByLayer
 62
  256
370
   -1
100
AcDbPoint
 10
300
 20
0
  0
LINE
  5
24B
100
AcDbEntity
  8
3 net
  6
ByLayer
 62
  256
370
   -1
100
AcDbLine
 10
300
 20
-56.9
 11
300
 21
0
  0
LINE
  5
24C
100
AcDbEntity
  8
3 net
  6
ByLayer
 62
  256
370
   -1
100
AcDbLine
 10
300
 20
-56.9
 11
300
 21
-171.6
  0
POINT
  5
24D
100
AcDbEntity
  8
3 net
  6
ByLayer
 62
  256
370
   -1
100
AcDbPoint
 10
300
 20
-56.9
  0
POINT
  5
24E
100
AcDbEntity
  8
3 net
  6
ByLayer
 62
  256
370
   -1
100
AcDbPoint
 10
300
 20
-171.6
  0
LINE
  5
24F
100
AcDbEntity
  8
3 net
  6
ByLayer
 62
  256
370
   -1
100
AcDbLine
 10
300
 20
0
 11
300
 21
100
  0
LINE
  5
250
100
AcDbEntity
  8
3 net
  6
ByLayer
 62
  256
370
   -1
100
AcDbLine
 10
300
 20
100
 11
300
 21
155
  0
POINT
  5
251
100
AcDbEntity
  8
3 net
  6
ByLayer
 62
  256
370
   -1
100
AcDbPoint
 10
300
 20
100
  0
POINT
  5
252
100
AcDbEntity
  8
3 net
  6
ByLayer
 62
  256
370
   -1
100
AcDbPoint
 10
300
 20
155
  0
LINE
  5
253
100
AcDbEntity
  8
3 net
  6
ByLayer
 62
  256
370
   -1
100
AcDbLine
 10
300
 20
155
 11
300
 21
210
  0
LINE
  5
254
100
AcDbEntity
  8
3 net
  6
ByLayer
 62
  256
370
   -1
100
AcDbLine
 10
300
 20
210
 11
300
 21
310
  0
POINT
  5
255
100
AcDbEntity
  8
3 net
  6
ByLayer
 62
  256
370
   -1
100
AcDbPoint
 10
300
 20
210
  0
POINT
  5
256
100
AcDbEntity
  8
3 net
  6
ByLayer
 62
  256
370
   -1
100
AcDbPoint
 10
300
 20
310
  0
POINT
  5
257
100
AcDbEntity
  8
3 net
  6
ByLayer
 62
  256
370
   -1
100
AcDbPoint
 10
300
 20
366.9
  0
TEXT
  5
258
100
AcDbEntity
  8
3 net
  6
ByLayer
 62
  256
370
   -1
100
AcDbText
 10
289
 20
-114.25
 30
0
 40
10
  1
c
 50
0
 41
1
 51
0
  7
standard
 71
    0
210
0
220
0
230
1
100
AcDbText
  0
TEXT
  5
259
100
AcDbEntity
  8
3 net
  6
ByLayer
 62
  256
370
   -1
100
AcDbText
 10
289
 20
-28.45
 30
0
 40
10
  1
b
 50
0
 41
1
 51
0
  7
standard
 71
    0
210
0
220
0
230
1
100
AcDbText
  0
TEXT
  5
25A
100
AcDbEntity
  8
3 net
  6
ByLayer
 62
  256
370
   -1
100
AcDbText
 10
289
 20
50
 30
0
 40
10
  1
a
 50
0
 41
1
 51
0
  7
standard
 71
    0
210
0
220
0
230
1
100
AcDbText
  0
TEXT
  5
25B
100
AcDbEntity
  8
3 net
  6
ByLayer
 62
  256
370
   -1
100
AcDbText
 10
289
 20
127.5
 30
0
 40
10
  1
d
 50
0
 41
1
 51
0
  7
standard
 71
    0
210
0
220
0
230
1
100
AcDbText
  0
TEXT
  5
25C
100
AcDbEntity
  8
3 net
  6
ByLayer
 62
  256
370
   -1
100
AcDbText
 10
289
 20
182.5
 30
0
 40
10
  1
d'
 50
0
 41
1
 51
0
  7
standard
 71
    0
210
0
220
0
230
1
100
AcDbText
  0
TEXT
  5
25D
100
AcDbEntity
  8
3 net
  6
ByLayer
 62
  256
370
   -1
100
AcDbText
 10
289
 20
260
 30
0
 40
10
  1
a'
 50
0
 41
1
 51
0
  7
standard
 71
    0
210
0
220
0
230
1
100
AcDbText
  0
TEXT
  5
25E
100
AcDbEntity
  8
3 net
  6
ByLayer
 62
  256
370
   -1
100
AcDbText
 10
289
 20
338.45
 30
0
 40
10
  1
b'
 50
0
 41
1
 51
0
  7
standard
 71
    0
210
0
220
0
230
1
100
AcDbText
  0
LINE
  5
25F
100
AcDbEntity
  8
3 net
  6
ByLayer
 62
  256
370
   -1
100
AcDbLine
 10
300
 20
310
 11
520
 21
310
  0
LINE
  5
260
100
AcDbEntity
  8
3 net
  6
ByLayer
 62
  256
370
   -1
100
AcDbLine
 10
300
 20
210
 11
520
 21
210
  0
LINE
  5
261
100
AcDbEntity
  8
3 net
  6
ByLayer
 62
  256
370
   -1
100
AcDbLine
 10
300
 20
155
 11
520
 21
155
  0
LINE
  5
262
100
AcDbEntity
  8
3 net
  6
ByLayer
 62
  256
370
   -1
100
AcDbLine
 10
300
 20
100
 11
520
 21
100
  0
LINE
  5
263
100
AcDbEntity
  8
3 net
  6
ByLayer
 62
  256
370
   -1
100
AcDbLine
 10
300
 20
0
 11
520
 21
0
  0
LINE
  5
264
100
AcDbEntity
  8
3 net
  6
ByLayer
 62
  256
370
   -1
100
AcDbLine
 10
300
 20
-56.9
 11
520
 21
-56.9
  0
LINE
  5
265
100
AcDbEntity
  8
3 net
  6
ByLayer
 62
  256
370
   -1
100
AcDbLine
 10
300
 20
-171.6
 11
520
 21
-171.6
  0
LINE
  5
266
100
AcDbEntity
  8
3 net
  6
ByLayer
 62
  256
370
   -1
100
AcDbLine
 10
520
 20
-56.9
 11
520
 21
0
  0
LINE
  5
267
100
AcDbEntity
  8
3 net
  6
ByLayer
 62
  256
370
   -1
100
AcDbLine
 10
520
 20
-56.9
 11
520
 21
-171.6
  0
LINE
  5
268
100
AcDbEntity
  8
3 net
  6
ByLayer
 62
  256
370
   -1
100
AcDbLine
 10
520
 20
0
 11
520
 21
100
  0
LINE
  5
269
100
AcDbEntity
  8
3 net
  6
ByLayer
 62
  256
370
   -1
100
AcDbLine
 10
520
 20
100
 11
520
 21
155
  0
LINE
  5
26A
100
AcDbEntity
  8
3 net
  6
ByLayer
 62
  256
370
   -1
100
AcDbLine
 10
520
 20
155
 11
520
 21
210
  0
LINE
  5
26B
100
AcDbEntity
  8
3 net
  6
ByLayer
 62
  256
370
   -1
100
AcDbLine
 10
520
 20
210
 11
520
 21
310
  0
LINE
  5
26C
100
AcDbEntity
  8
3 net
  6
ByLayer
 62
  256
370
   -1
100
AcDbLine
 10
300
 20
100
 11
245
 21
100
  0
LINE
  5
26D
100
AcDbEntity
  8
3 net
  6
ByLayer
 62
  256
370
   -1
100
AcDbLine
 10
245
 20
100
 11
190
 21
100
  0
LINE
  5
26E
100
AcDbEntity
  8
3 net
  6
ByLayer
 62
  256
370
   -1
100
AcDbLine
 10
245
 20
100
 11
245
 21
-14.69999999999999
  0
LINE
  5
26F
100
AcDbEntity
  8
3 net
  6
ByLayer
 62
  256
370
   -1
100
AcDbLine
 10
300
 20
0
 11
245
 21
-14.69999999999999
  0
LINE
  5
270
100
AcDbEntity
  8
3 net
  6
ByLayer
 62
  256
370
   -1
100
AcDbLine
 10
190
 20
0
 11
190
 21
100
  0
LINE
  5
271
100
AcDbEntity
  8
3 net
  6
ByLayer
 62
  256
370
   -1
100
AcDbLine
 10
245
 20
-14.69999999999999
 11
190
 21
0
  0
LINE
  5
272
100
AcDbEntity
  8
3 net
  6
ByLayer
 62
  256
370
   -1
100
AcDbLine
 10
245
 20
100
 11
245
 21
155
  0
LINE
  5
273
100
AcDbEntity
  8
3 net
  6
ByLayer
 62
  256
370
   -1
100
AcDbLine
 10
245
 20
155
 11
300
 21
155
  0
LINE
  5
274
100
AcDbEntity
  8
3 net
  6
ByLayer
 62
  256
370
   -1
100
AcDbLine
 10
245
 20
-14.7
 11
245
 21
-56.9
  0
LINE
  5
275
100
AcDbEntity
  8
3 net
  6
ByLayer
 62
  256
370
   -1
100
AcDbLine
 10
245
 20
-56.9
 11
300
 21
-56.9
  0
LINE
  5
276
100
AcDbEntity
  8
3 net
  6
ByLayer
 62
  256
370
   -1
100
AcDbLine
 10
520
 20
100
 11
575
 21
100
  0
LINE
  5
277
100
AcDbEntity
  8
3 net
  6
ByLayer
 62
  256
370
   -1
100
AcDbLine
 10
575
 20
100
 11
630
 21
100
  0
LINE
  5
278
100
AcDbEntity
  8
3 net
  6
ByLayer
 62
  256
370
   -1
100
AcDbLine
 10
575
 20
100
 11
575
 21
-14.69999999999999
  0
LINE
  5
279
100
AcDbEntity
  8
3 net
  6
ByLayer
 62
  256
370
   -1
100
AcDbLine
 10
520
 20
0
 11
575
 21
-14.69999999999999
  0
LINE
  5
27A
100
AcDbEntity
  8
3 net
  6
ByLayer
 62
  256
370
   -1
100
AcDbLine
 10
630
 20
0
 11
630
 21
100
  0
LINE
  5
27B
100
AcDbEntity
  8
3 net
  6
ByLayer
 62
  256
370
   -1
100
AcDbLine
 10
575
 20
-14.69999999999999
 11
630
 21
0
  0
LINE
  5
27C
100
AcDbEntity
  8
3 net
  6
ByLayer
 62
  256
370
   -1
100
AcDbLine
 10
575
 20
100
 11
575
 21
155
  0
LINE
  5
27D
100
AcDbEntity
  8
3 net
  6
ByLayer
 62
  256
370
   -1
100
AcDbLine
 10
575
 20
155
 11
520
 21
155
  0
LINE
  5
27E
100
AcDbEntity
  8
3 net
  6
ByLayer
 62
  256
370
   -1
100
AcDbLine
 10
575
 20
-14.69999999999998
 11
575
 21
-56.90000000000001
  0
LINE
  5
27F
100
AcDbEntity
  8
3 net
  6
ByLayer
 62
  256
370
   -1
100
AcDbLine
 10
575
 20
-56.90000000000001
 11
520
 21
-56.90000000000001
  0
POINT
  5
280
100
AcDbEntity
  8
3 net
  6
ByLayer
 62
  256
370
   -1
100
AcDbPoint
 10
410
 20
-28.45
  0
INSERT
  5
281
100
AcDbEntity
  8
3 net
  6
ByLayer
 62
  256
370
   -2
100
AcDbBlockReference
  2
dma45
 10
328.5
 20
-28.45
 30
0
 41
1
 42
1
 43
0
 50
0
 70
    1
 71
    1
 44
0
 45
0
  0
INSERT
  5
282
100
AcDbEntity
  8
3 net
  6
ByLayer
 62
  256
370
   -2
100
AcDbBlockReference
  2
dma45
 10
491.5
 20
-28.44999999999998
 30
0
 41
1
 42
1
 43
0
 50
0
 70
    1
 71
    1
 44
1
 45
1
  0
INSERT
  5
283
100
AcDbEntity
  8
3 net
  6
ByLayer
 62
  256
370
   -2
100
AcDbBlockReference
  2
button
 10
345.999995
 20
25.5
 30
0
 41
1
 42
1
 43
0
 50
0
 70
    1
 71
    1
 44
0
 45
0
  0
POINT
  5
284
100
AcDbEntity
  8
3 net
  6
ByLayer
 62
  256
370
   -2
100
AcDbPoint
 10
328.5
 20
25.5
  0
INSERT
  5
285
100
AcDbEntity
  8
3 net
  6
ByLayer
 62
  256
370
   -2
100
AcDbBlockReference
  2
rotary button
 10
328.5
 20
70
 30
0
 41
1
 42
1
 43
0
 50
0
 70
    1
 71
    1
 44
1
 45
1
  0
INSERT
  5
286
100
AcDbEntity
  8
3 net
  6
ByLayer
 62
  256
370
   -1
100
AcDbBlockReference
  2
bh1750
 10
328.5
 20
28.09100789065887
 30
0
 41
1
 42
1
 43
0
 50
180
 70
    1
 71
    1
 44
0
 45
0
  0
ELLIPSE
  5
287
100
AcDbEntity
  8
3 net
  6
DOT2
 62
  256
370
   -1
100
AcDbEllipse
 10
328.5
 20
10
 30
0
 11
20
 21
0
 31
0
 40
0.75
 41
0
 42
6.283185307179586
  0
LINE
  5
288
100
AcDbEntity
  8
3 net
  6
ByLayer
 62
  256
370
   -2
100
AcDbLine
 10
351.499995
 20
366.9
 11
351.499995
 21
310
  0
LINE
  5
289
100
AcDbEntity
  8
3 net
  6
ByLayer
 62
  256
370
   -2
100
AcDbLine
 10
468.500005
 20
366.9000000000001
 11
468.500005
 21
310
  0
LINE
  5
28A
100
AcDbEntity
  8
3 net
  6
CONTINUOUS
 62
    7
370
   25
100
AcDbLine
 10
351.499995
 20
366.9
 11
468.500005
 21
366.9
  0
INSERT
  5
28B
100
AcDbEntity
  8
3 net
  6
ByLayer
 62
  256
370
   -1
100
AcDbBlockReference
  2
bh1750
 10
328.5
 20
281.9089921093411
 30
0
 41
-1
 42
1
 43
0
 50
0
 70
    1
 71
    1
 44
0
 45
0
  0
INSERT
  5
28C
100
AcDbEntity
  8
3 net
  6
ByLayer
 62
  256
370
   -2
100
AcDbBlockReference
  2
button
 10
345.999995
 20
284.5
 30
0
 41
-1
 42
1
 43
0
 50
180
 70
    1
 71
    1
 44
0
 45
0
  0
INSERT
  5
28D
100
AcDbEntity
  8
3 net
  6
ByLayer
 62
  256
370
   -2
100
AcDbBlockReference
  2
rotary button
 10
328.5
 20
240
 30
0
 41
-1
 42
1
 43
0
 50
180
 70
    1
 71
    1
 44
1
 45
1
  0
ELLIPSE
  5
28E
100
AcDbEntity
  8
3 net
  6
DOT2
 62
  256
370
   -1
100
AcDbEllipse
 10
328.5
 20
300
 30
0
 11
20
 21
0
 31
0
 40
0.75
 41
0
 42
6.283185307179586
  0
ELLIPSE
  5
28F
100
AcDbEntity
  8
3 net
  6
DOT2
 62
  256
370
   -1
100
AcDbEllipse
 10
491.5
 20
10.00000000000001
 30
0
 11
-20
 21
0
 31
0
 40
0.75
 41
0
 42
6.283185307179586
  0
ELLIPSE
  5
290
100
AcDbEntity
  8
3 net
  6
DOT2
 62
  256
370
   -1
100
AcDbEllipse
 10
491.5
 20
300
 30
0
 11
-20
 21
0
 31
0
 40
0.75
 41
0
 42
6.283185307179586
  0
DIMENSION
  5
291
100
AcDbEntity
  8
3 net-3a.net.dim+
  6
ByLayer
 62
  256
370
   -1
100
AcDbDimension
  2
*D10
 10
245
 20
-260
 30
0
 11
272.5
 21
-255.875
 31
0
 70
   32
 71
    5
 72
    0
  3
Standard
 53
0
210
0
220
0
230
1
100
AcDbAlignedDimension
 13
300
 23
-171.6
 33
0
 14
245
 24
-56.9
 34
0
100
AcDbRotatedDimension
  0
DIMENSION
  5
292
100
AcDbEntity
  8
3 net-3a.net.dim+
  6
ByLayer
 62
  256
370
   -1
100
AcDbDimension
  2
*D11
 10
190
 20
-270
 30
0
 11
245
 21
-265.875
 31
0
 70
   32
 71
    5
 72
    0
  3
Standard
 53
0
210
0
220
0
230
1
100
AcDbAlignedDimension
 13
300
 23
-270
 33
0
 14
190
 24
0
 34
0
100
AcDbRotatedDimension
  0
DIMENSION
  5
293
100
AcDbEntity
  8
3 net-3a.net.dim+
  6
ByLayer
 62
  256
370
   -1
100
AcDbDimension
  2
*D12
 10
300
 20
-290
 30
0
 11
395.75
 21
-285.875
 31
0
 70
   32
 71
    5
 72
    0
  3
Standard
 53
0
210
0
220
0
230
1
100
AcDbAlignedDimension
 13
491.5
 23
-28.44999999999998
 33
0
 14
300
 24
-56.9
 34
0
100
AcDbRotatedDimension
  0
DIMENSION
  5
294
100
AcDbEntity
  8
3 net-3a.net.dim+
  6
ByLayer
 62
  256
370
   -1
100
AcDbDimension
  2
*D13
 10
300
 20
-280
 30
0
 11
386.8404545570495
 21
-275.875
 31
0
 70
   32
 71
    5
 72
    0
  3
Standard
 53
0
210
0
220
0
230
1
100
AcDbAlignedDimension
 13
473.680909114099
 23
-49.56909088590097
 33
0
 14
300
 24
-56.9
 34
0
100
AcDbRotatedDimension
  0
DIMENSION
  5
295
100
AcDbEntity
  8
3 net-3a.net.dim+
  6
ByLayer
 62
  256
370
   -1
100
AcDbDimension
  2
*D14
 10
300
 20
-270
 30
0
 11
384.2500025
 21
-265.875
 31
0
 70
   32
 71
    5
 72
    0
  3
Standard
 53
0
210
0
220
0
230
1
100
AcDbAlignedDimension
 13
468.500005
 23
-51.44999499999998
 33
0
 14
300
 24
-56.9
 34
0
100
AcDbRotatedDimension
  0
DIMENSION
  5
296
100
AcDbEntity
  8
3 net-3a.net.dim+
  6
ByLayer
 62
  256
370
   -1
100
AcDbDimension
  2
*D15
 10
300
 20
-260
 30
0
 11
332.5
 21
-255.875
 31
0
 70
   32
 71
    5
 72
    0
  3
Standard
 53
0
210
0
220
0
230
1
100
AcDbAlignedDimension
 13
365
 23
-33
 33
0
 14
300
 24
-57
 34
0
100
AcDbRotatedDimension
  0
DIMENSION
  5
297
100
AcDbEntity
  8
3 net-3a.net.dim+
  6
ByLayer
 62
  256
370
   -1
100
AcDbDimension
  2
*D16
 10
300
 20
-250
 30
0
 11
331.1751672240803
 21
-245.875
 31
0
 70
   32
 71
    5
 72
    0
  3
Standard
 53
0
210
0
220
0
230
1
100
AcDbAlignedDimension
 13
362.3503344481605
 23
-36.55000500000003
 33
0
 14
300
 24
-56.9
 34
0
100
AcDbRotatedDimension
  0
DIMENSION
  5
298
100
AcDbEntity
  8
3 net-3a.net.dim+
  6
ByLayer
 62
  256
370
   -1
100
AcDbDimension
  2
*D17
 10
300
 20
-240
 30
0
 11
323.1595454429505
 21
-235.875
 31
0
 70
   32
 71
    5
 72
    0
  3
Standard
 53
0
210
0
220
0
230
1
100
AcDbAlignedDimension
 13
346.319090885901
 23
-49.56909088590099
 33
0
 14
300
 24
-56.9
 34
0
100
AcDbRotatedDimension
  0
DIMENSION
  5
299
100
AcDbEntity
  8
3 net-3a.net.dim+
  6
ByLayer
 62
  256
370
   -1
100
AcDbDimension
  2
*D18
 10
300
 20
-230
 30
0
 11
314.25
 21
-225.875
 31
0
 70
   32
 71
    5
 72
    0
  3
Standard
 53
0
210
0
220
0
230
1
100
AcDbAlignedDimension
 13
328.5
 23
-28.45
 33
0
 14
300
 24
-56.9
 34
0
100
AcDbRotatedDimension
  0
DIMENSION
  5
29A
100
AcDbEntity
  8
3 net-3a.net.dim+
  6
ByLayer
 62
  256
370
   -1
100
AcDbDimension
  2
*D19
 10
300
 20
-220
 30
0
 11
305.3404545570495
 21
-215.875
 31
0
 70
   32
 71
    5
 72
    0
  3
Standard
 53
0
210
0
220
0
230
1
100
AcDbAlignedDimension
 13
310.680909114099
 23
-49.56909088590099
 33
0
 14
300
 24
-56.9
 34
0
100
AcDbRotatedDimension
  0
DIMENSION
  5
29B
100
AcDbEntity
  8
3 net-3a.net.dim+
  6
ByLayer
 62
  256
370
   -1
100
AcDbDimension
  2
*D20
 10
300
 20
-210
 30
0
 11
302.7500025
 21
-205.875
 31
0
 70
   32
 71
    5
 72
    0
  3
Standard
 53
0
210
0
220
0
230
1
100
AcDbAlignedDimension
 13
300
 23
-56.9
 33
0
 14
305.500005
 24
-51.449995
 34
0
100
AcDbRotatedDimension
  0
DIMENSION
  5
29C
100
AcDbEntity
  8
3 net-3a.net.dim+
  6
ByLayer
 62
  256
370
   -1
100
AcDbDimension
  2
*D21
 10
520
 20
-310
 30
0
 11
410
 21
-305.875
 31
0
 70
   32
 71
    5
 72
    0
  3
Standard
 53
0
210
0
220
0
230
1
100
AcDbAlignedDimension
 13
300
 23
-171.6
 33
0
 14
520
 24
-171.6
 34
0
100
AcDbRotatedDimension
  0
DIMENSION
  5
29D
100
AcDbEntity
  8
3 net-3a.net.dim+
  6
ByLayer
 62
  256
370
   -1
100
AcDbDimension
  2
*D22
 10
300
 20
-300
 30
0
 11
404.6595454429505
 21
-295.875
 31
0
 70
   32
 71
    5
 72
    0
  3
Standard
 53
0
210
0
220
0
230
1
100
AcDbAlignedDimension
 13
509.319090885901
 23
-49.56909088590097
 33
0
 14
300
 24
-56.9
 34
0
100
AcDbRotatedDimension
  0
DIMENSION
  5
29E
100
AcDbEntity
  8
3 net-3a.net.dim+
  6
ByLayer
 62
  256
370
   -1
100
AcDbDimension
  2
*D23
 10
670
 20
-56.90000000000002
 30
0
 11
665.875
 21
-114.25
 31
0
 70
   32
 71
    5
 72
    0
  3
Standard
 53
0
210
0
220
0
230
1
100
AcDbAlignedDimension
 13
520
 23
-171.6
 33
0
 14
520
 24
-56.9
 34
0
 50
90
100
AcDbRotatedDimension
  0
DIMENSION
  5
29F
100
AcDbEntity
  8
3 net-3a.net.dim+
  6
ByLayer
 62
  256
370
   -1
100
AcDbDimension
  2
*D24
 10
670
 20
155
 30
0
 11
665.875
 21
127.5
 31
0
 70
   32
 71
    5
 72
    0
  3
Standard
 53
0
210
0
220
0
230
1
100
AcDbAlignedDimension
 13
520
 23
100
 33
0
 14
520
 24
155
 34
0
 50
90
100
AcDbRotatedDimension
  0
DIMENSION
  5
2A0
100
AcDbEntity
  8
3 net-3a.net.dim+
  6
ByLayer
 62
  256
370
   -1
100
AcDbDimension
  2
*D25
 10
670
 20
210
 30
0
 11
665.875
 21
182.5
 31
0
 70
   32
 71
    5
 72
    0
  3
Standard
 53
0
210
0
220
0
230
1
100
AcDbAlignedDimension
 13
520
 23
155
 33
0
 14
520
 24
210
 34
0
 50
90
100
AcDbRotatedDimension
  0
DIMENSION
  5
2A1
100
AcDbEntity
  8
3 net-3a.net.dim+
  6
ByLayer
 62
  256
370
   -1
100
AcDbDimension
  2
*D26
 10
670
 20
310
 30
0
 11
665.875
 21
260
 31
0
 70
   32
 71
    5
 72
    0
  3
Standard
 53
0
210
0
220
0
230
1
100
AcDbAlignedDimension
 13
520
 23
210
 33
0
 14
520
 24
310
 34
0
 50
90
100
AcDbRotatedDimension
  0
DIMENSION
  5
2A2
100
AcDbEntity
  8
3 net-3a.net.dim+
  6
ByLayer
 62
  256
370
   -1
100
AcDbDimension
  2
*D27
 10
670
 20
366.9000000000001
 30
0
 11
665.875
 21
338.45
 31
0
 70
   32
 71
    5
 72
    0
  3
Standard
 53
0
210
0
220
0
230
1
100
AcDbAlignedDimension
 13
520
 23
310
 33
0
 14
468.500005
 24
366.9000000000001
 34
0
 50
90
100
AcDbRotatedDimension
  0
DIMENSION
  5
2A3
100
AcDbEntity
  8
3 net-3a.net.dim+
  6
ByLayer
 62
  256
370
   -1
100
AcDbDimension
  2
*D28
 10
680
 20
-46.26909088590099
 30
0
 11
675.875
 21
-51.58454544295049
 31
0
 70
   32
 71
    5
 72
    0
  3
Standard
 53
0
210
0
220
0
230
1
100
AcDbAlignedDimension
 13
520
 23
-56.9
 33
0
 14
512.619090885901
 24
-46.26909088590097
 34
0
 50
90
100
AcDbRotatedDimension
  0
DIMENSION
  5
2A4
100
AcDbEntity
  8
3 net-3a.net.dim+
  6
ByLayer
 62
  256
370
   -1
100
AcDbDimension
  2
*D29
 10
670
 20
99.99999999999997
 30
0
 11
665.875
 21
50
 31
0
 70
   32
 71
    5
 72
    0
  3
Standard
 53
0
210
0
220
0
230
1
100
AcDbAlignedDimension
 13
520
 23
0
 33
0
 14
520
 24
100
 34
0
 50
90
100
AcDbRotatedDimension
  0
DIMENSION
  5
2A5
100
AcDbEntity
  8
3 net-3a.net.dim+
  6
ByLayer
 62
  256
370
   -1
100
AcDbDimension
  2
*D30
 10
800
 20
0
 30
0
 11
795.875
 21
-28.45
 31
0
 70
   32
 71
    5
 72
    0
  3
Standard
 53
0
210
0
220
0
230
1
100
AcDbAlignedDimension
 13
520
 23
-56.9
 33
0
 14
520
 24
0
 34
0
 50
90
100
AcDbRotatedDimension
  0
DIMENSION
  5
2A6
100
AcDbEntity
  8
3 net-3a.net.dim+
  6
ByLayer
 62
  256
370
   -1
100
AcDbDimension
  2
*D31
 10
760
 20
-10
 30
0
 11
755.875
 21
-33.76545455704949
 31
0
 70
   32
 71
    5
 72
    0
  3
Standard
 53
0
210
0
220
0
230
1
100
AcDbAlignedDimension
 13
520
 23
-56.9
 33
0
 14
512.619090885901
 24
-10.63090911409898
 34
0
 50
90
100
AcDbRotatedDimension
  0
DIMENSION
  5
2A7
100
AcDbEntity
  8
3 net-3a.net.dim+
  6
ByLayer
 62
  256
370
   -1
100
AcDbDimension
  2
*D32
 10
750
 20
-30
 30
0
 11
745.875
 21
-35.8
 31
0
 70
   32
 71
    5
 72
    0
  3
Standard
 53
0
210
0
220
0
230
1
100
AcDbAlignedDimension
 13
575
 23
-56.90000000000001
 33
0
 14
575
 24
-14.69999999999999
 34
0
 50
90
100
AcDbRotatedDimension
  0
DIMENSION
  5
2A8
100
AcDbEntity
  8
3 net-3a.net.dim+
  6
ByLayer
 62
  256
370
   -1
100
AcDbDimension
  2
*D33
 10
740
 20
-30
 30
0
 11
735.875
 21
-42.675
 31
0
 70
   32
 71
    5
 72
    0
  3
Standard
 53
0
210
0
220
0
230
1
100
AcDbAlignedDimension
 13
520
 23
-56.90000000000001
 33
0
 14
491.5
 24
-28.44999999999998
 34
0
 50
90
100
AcDbRotatedDimension
  0
DIMENSION
  5
2A9
100
AcDbEntity
  8
3 net-3a.net.dim+
  6
ByLayer
 62
  256
370
   -1
100
AcDbDimension
  2
*D34
 10
450
 20
-240
 30
0
 11
409.8503344481605
 21
-235.875
 31
0
 70
   32
 71
    5
 72
    0
  3
Standard
 53
0
210
0
220
0
230
1
100
AcDbAlignedDimension
 13
365.1003344481605
 23
-35.25000499999996
 33
0
 14
454.6003344481605
 24
-35.25000499999996
 34
0
100
AcDbRotatedDimension
  0
LINE
  5
2AA
100
AcDbEntity
  8
3 net
  6
ByLayer
 62
  256
370
   -1
100
AcDbLine
 10
300
 20
-171.6
 11
310
 21
-190
  0
LINE
  5
2AB
100
AcDbEntity
  8
3 net
  6
ByLayer
 62
  256
370
   -1
100
AcDbLine
 10
310
 20
-190
 11
510
 21
-190
  0
LINE
  5
2AC
100
AcDbEntity
  8
3 net
  6
ByLayer
 62
  256
370
   -1
100
AcDbLine
 10
510
 20
-190
 11
520
 21
-171.6
  0
DIMENSION
  5
2AD
100
AcDbEntity
  8
3 net-3a.net.dim+
  6
ByLayer
 62
  256
370
   -1
100
AcDbDimension
  2
*D35
 10
840
 20
366.9000000000001
 30
0
 11
835.875
 21
88.45000000000005
 31
0
 70
   32
 71
    5
 72
    0
  3
Standard
 53
0
210
0
220
0
230
1
100
AcDbAlignedDimension
 13
510
 23
-190
 33
0
 14
468.500005
 24
366.9000000000001
 34
0
 50
90
100
AcDbRotatedDimension
  0
INSERT
  5
2AE
100
AcDbEntity
  8
5.templates
  6
ByLayer
 62
  256
370
   -2
100
AcDbBlockReference
  2
button
 10
1419.015820303274
 20
980
 30
0
 41
1
 42
1
 43
0
 50
0
 70
    1
 71
    1
 44
1
 45
1
  0
DIMENSION
  5
2AF
100
AcDbEntity
  8
3 net-3a.net.dim+
  6
ByLayer
 62
  256
370
   -1
100
AcDbDimension
  2
*D36
 10
370
 20
-220
 30
0
 11
371.4003344481605
 21
-215.875
 31
0
 70
   32
 71
    5
 72
    0
  3
Standard
 53
0
210
0
220
0
230
1
100
AcDbAlignedDimension
 13
365.1003344481605
 23
-35.25000499999996
 33
0
 14
377.7003344481605
 24
-39.33087633817919
 34
0
100
AcDbRotatedDimension
  0
DIMENSION
  5
2B0
100
AcDbEntity
  8
3 net-3a.net.dim+
  6
ByLayer
 62
  256
370
   -1
100
AcDbDimension
  2
*D37
 10
460
 20
-250
 30
0
 11
409.8503344481605
 21
-245.875
 31
0
 70
   32
 71
    5
 72
    0
  3
Standard
 53
0
210
0
220
0
230
1
100
AcDbAlignedDimension
 13
362.3503344481605
 23
-10.63087633817927
 33
0
 14
457.3503344481605
 24
-10.63090911409898
 34
0
100
AcDbRotatedDimension
  0
INSERT
  5
2B1
100
AcDbEntity
  8
3 net
  6
ByLayer
 62
  256
370
   -2
100
AcDbBlockReference
  2
button
 10
311.000005
 20
25.5
 30
0
 41
-1
 42
1
 43
0
 50
0
 70
    1
 71
    1
 44
0
 45
0
  0
INSERT
  5
2B2
100
AcDbEntity
  8
3 net
  6
ByLayer
 62
  256
370
   -2
100
AcDbBlockReference
  2
button
 10
311.000005
 20
284.5
 30
0
 41
1
 42
1
 43
0
 50
180
 70
    1
 71
    1
 44
0
 45
0
  0
LINE
  5
2B3
100
AcDbEntity
  8
3 net
  6
ByLayer
 62
  256
370
   -1
100
AcDbLine
 10
356
 20
-57
 11
356
 21
-21.722
  0
INSERT
  5
2B4
100
AcDbEntity
  8
3 net
  6
ByLayer
 62
  256
370
   -2
100
AcDbBlockReference
  2
sdd1322
 10
410
 20
-23.07183277591973
 30
0
 41
1
 42
1
 43
0
 50
0
 70
    1
 71
    1
 44
0
 45
0
  0
DIMENSION
  5
2B5
100
AcDbEntity
  8
3 net-3a.net.dim+
  6
ByLayer
 62
  256
370
   -1
100
AcDbDimension
  2
*D38
 10
432
 20
-15.58090411409895
 30
0
 11
427.875
 21
-22.93090911409893
 31
0
 70
   32
 71
    5
 72
    0
  3
Standard
 53
0
210
0
220
0
230
1
100
AcDbAlignedDimension
 13
454.6003344481605
 23
-37.83090911409892
 33
0
 14
454.6003344481605
 24
-8.030909114098959
 34
0
 50
90
100
AcDbRotatedDimension
  0
DIMENSION
  5
2B6
100
AcDbEntity
  8
3 net-3a.net.dim+
  6
ByLayer
 62
  256
370
   -1
100
AcDbDimension
  2
*D39
 10
392.2932607402383
 20
-36.38641985901003
 30
0
 11
388.1682607402383
 21
-23.38090911409898
 31
0
 70
   32
 71
    5
 72
    0
  3
Standard
 53
0
210
0
220
0
230
1
100
AcDbAlignedDimension
 13
363.8503344481605
 23
-9.130909114098982
 33
0
 14
363.8503344481605
 24
-37.63090911409898
 34
0
 50
90
100
AcDbRotatedDimension
  0
DIMENSION
  5
2B7
100
AcDbEntity
  8
3 net-3a.net.dim+
  6
ByLayer
 62
  256
370
   -1
100
AcDbDimension
  2
*D40
 10
700
 20
-59.48090411409899
 30
0
 11
695.875
 21
-47.26545455704949
 31
0
 70
   32
 71
    5
 72
    0
  3
Standard
 53
0
210
0
220
0
230
1
100
AcDbAlignedDimension
 13
458.8503344481605
 23
-37.63090911409898
 33
0
 14
520
 24
-56.90000000000001
 34
0
 50
90
100
AcDbRotatedDimension
  0
DIMENSION
  5
2B8
100
AcDbEntity
  8
3 net-3a.net.dim+
  6
ByLayer
 62
  256
370
   -1
100
AcDbDimension
  2
*D41
 10
790
 20
0
 30
0
 11
785.875
 21
-32.46545455704948
 31
0
 70
   32
 71
    5
 72
    0
  3
Standard
 53
0
210
0
220
0
230
1
100
AcDbAlignedDimension
 13
454.6003344481605
 23
-8.030909114098961
 33
0
 14
520
 24
-56.9
 34
0
 50
90
100
AcDbRotatedDimension
  0
DIMENSION
  5
2B9
100
AcDbEntity
  8
3 net-3a.net.dim+
  6
ByLayer
 62
  256
370
   -1
100
AcDbDimension
  2
*D42
 10
770
 20
0
 30
0
 11
765.875
 21
-33.01545455704949
 31
0
 70
   32
 71
    5
 72
    0
  3
Standard
 53
0
210
0
220
0
230
1
100
AcDbAlignedDimension
 13
458.8503344481605
 23
-9.13090911409898
 33
0
 14
520
 24
-56.9
 34
0
 50
90
100
AcDbRotatedDimension
  0
DIMENSION
  5
2BA
100
AcDbEntity
  8
3 net-3a.net.dim+
  6
ByLayer
 62
  256
370
   -1
100
AcDbDimension
  2
*D43
 10
430
 20
-230
 30
0
 11
409.8503344481605
 21
-225.875
 31
0
 70
   32
 71
    5
 72
    0
  3
Standard
 53
0
210
0
220
0
230
1
100
AcDbAlignedDimension
 13
377.7003344481605
 23
-37.92199999999995
 33
0
 14
442.0003344481605
 24
-37.92199999999995
 34
0
100
AcDbRotatedDimension
  0
LINE
  5
2BB
100
AcDbEntity
  8
3 net-3a.net.dim+
  6
ByLayer
 62
  256
370
   -1
100
AcDbLine
 10
356
 20
-57
 11
350
 21
-100
  0
TEXT
  5
2BC
100
AcDbEntity
  8
3 net-3a.net.dim+
  6
ByLayer
 62
  256
370
   -1
100
AcDbText
 10
349.6433576915413
 20
-102.5586775330708
 30
0
 40
5
  1
golden ratio
 50
82.05700000000003
 41
1
 51
0
  7
standard
 71
    0
210
0
220
0
230
1
100
AcDbText
  0
ENDSEC
  0
SECTION
  2
OBJECTS
  0
DICTIONARY
  5
C
330
0
100
AcDbDictionary
281
    1
  3
ACAD_GROUP
350
D
  3
ACAD_IMAGE_DICT
350
2BD
  0
DICTIONARY
  5
D
330
C
100
AcDbDictionary
281
    1
  0
IMAGEDEF_REACTOR
  5
213
330
214
100
AcDbRasterImageDefReactor
 90
    2
330
214
  0
IMAGEDEF_REACTOR
  5
216
330
217
100
AcDbRasterImageDefReactor
 90
    2
330
217
  0
IMAGEDEF_REACTOR
  5
219
330
21A
100
AcDbRasterImageDefReactor
 90
    2
330
21A
  0
IMAGEDEF_REACTOR
  5
21C
330
21D
100
AcDbRasterImageDefReactor
 90
    2
330
21D
  0
IMAGEDEF_REACTOR
  5
21F
330
220
100
AcDbRasterImageDefReactor
 90
    2
330
220
  0
IMAGEDEF_REACTOR
  5
222
330
223
100
AcDbRasterImageDefReactor
 90
    2
330
223
  0
IMAGEDEF_REACTOR
  5
225
330
226
100
AcDbRasterImageDefReactor
 90
    2
330
226
  0
DICTIONARY
  5
2BD
330
C
100
AcDbDictionary
281
    1
  3
61VD2B+YVpL._AC_SX679_
350
212
  3
S8c57f7850ee74d8f8601b5be8d157e36U
350
215
  3
51ukTXy28XL._SX522_
350
218
  3
S12512251df614476883127d5668d4097c.jpg_960x960q75
350
21B
  3
Dayton_DMA45-4_(Dimensions)
350
21E
  3
51wnqO1BpHL._AC_SX679_
350
221
  3
S8c57f7850ee74d8f8601b5be8d157e36U
350
224
  0
IMAGEDEF
  5
212
102
{ACAD_REACTORS
330
213
102
}
100
AcDbRasterImageDef
 90
    0
  1
../../media/61VD2B+YVpL._AC_SX679_.jpg
 10
679
 20
667
 11
1
 21
1
280
    1
281
    0
  0
IMAGEDEF
  5
215
102
{ACAD_REACTORS
330
216
102
}
100
AcDbRasterImageDef
 90
    0
  1
../../media/S8c57f7850ee74d8f8601b5be8d157e36U.png
 10
800
 20
800
 11
1
 21
1
280
    1
281
    0
  0
IMAGEDEF
  5
218
102
{ACAD_REACTORS
330
219
102
}
100
AcDbRasterImageDef
 90
    0
  1
../../media/51ukTXy28XL._SX522_.jpg
 10
522
 20
522
 11
1
 21
1
280
    1
281
    0
  0
IMAGEDEF
  5
21B
102
{ACAD_REACTORS
330
21C
102
}
100
AcDbRasterImageDef
 90
    0
  1
../../media/S12512251df614476883127d5668d4097c.jpg_960x960q75.png
 10
960
 20
960
 11
1
 21
1
280
    1
281
    0
  0
IMAGEDEF
  5
21E
102
{ACAD_REACTORS
330
21F
102
}
100
AcDbRasterImageDef
 90
    0
  1
../../media/Dayton_DMA45-4_(Dimensions).png
 10
470
 20
761
 11
1
 21
1
280
    1
281
    0
  0
IMAGEDEF
  5
221
102
{ACAD_REACTORS
330
222
102
}
100
AcDbRasterImageDef
 90
    0
  1
../../media/51wnqO1BpHL._AC_SX679_.jpg
 10
679
 20
408
 11
1
 21
1
280
    1
281
    0
  0
IMAGEDEF
  5
224
102
{ACAD_REACTORS
330
225
102
}
100
AcDbRasterImageDef
 90
    0
  1
../../media/S8c57f7850ee74d8f8601b5be8d157e36U.jpg
 10
1
 20
1
 11
1
 21
1
280
    1
281
    0
  0
PLOTSETTINGS
  5
2BE
100
AcDbPlotSettings
  6
1x1
 40
3.53
 41
3.53
 42
3.53
 43
3.53
  0
ENDSEC
  0
EOF
